<?xml version="1.0" encoding="utf-8"?>
<!-- Generator: Adobe Illustrator 25.3.1, SVG Export Plug-In . SVG Version: 6.00 Build 0)  -->
<svg version="1.1" id="Layer_1" xmlns="http://www.w3.org/2000/svg" xmlns:xlink="http://www.w3.org/1999/xlink" x="0px" y="0px"
	 viewBox="0 0 378.3 118.7" style="enable-background:new 0 0 378.3 118.7;" xml:space="preserve">
<path id="XMLID_139_" d="M53.3,55.7l-0.3-0.3v-5.3l0.3-0.3H313l0.3,0.3v5.3l-0.3,0.3H53.3z"/>
<path id="XMLID_137_" d="M0.3,55.7L0,55.4v-5.3l0.3-0.3H39l0.3,0.3v5.3L39,55.7H0.3z"/>
<path id="XMLID_135_" d="M327.9,55.7l-0.3-0.3v-5.3l0.3-0.3h36.5l0.3,0.3v5.3l-0.3,0.3H327.9z"/>
<path id="XMLID_133_" d="M0.3,118.7L0,118.4v-5.3l0.3-0.3h180.5l0.3,0.3v5.3l-0.3,0.3H0.3z"/>
<path id="XMLID_131_" d="M195.1,118.7l-0.3-0.3v-5.3l0.3-0.3H378l0.3,0.3v5.3l-0.3,0.3H195.1z"/>
<g id="XMLID_78_">
	<path id="XMLID_128_" d="M22.6,0.8l0.3,0.3l16.5,40.7l-0.3,0.3h-5.9L33,41.8l-3.8-9.4H10.8L7,41.8l-0.3,0.3H0.8l-0.3-0.3L17,1.1
		l0.3-0.3C17.3,0.8,22.6,0.8,22.6,0.8z M13.2,26.5h13.6L20,9L13.2,26.5z"/>
	<path id="XMLID_125_" d="M48.8,14.4l0.3,0.3v0.9c1.8-1.2,4.4-2.1,7.1-2.1C64.5,13.5,71,20,71,28.2S64.5,43,56.2,43
		c-2.7,0-5.3-0.9-7.1-2.1v14.5l-0.3,0.3h-5.3l-0.3-0.3V14.7l0.3-0.3C43.5,14.4,48.8,14.4,48.8,14.4z M49.1,34.4
		c2.1,2.1,4.4,2.9,7.1,2.9c5,0,8.6-3.8,8.6-9.2c0-5.3-3.5-9.2-8.6-9.2c-2.7,0-5,1.2-7.1,3V34.4z"/>
	<path id="XMLID_122_" d="M78.7,15.3c1.8-0.9,4.1-1.8,7.4-1.8c6.5,0,10.9,3.8,10.9,11.8v16.5l-0.3,0.3h-5.3l-0.3-0.3v-0.9
		c-2.1,1.5-5,2.1-6.8,2.1c-5,0-9.7-2.4-9.7-8c0-8.3,8.6-10.3,16.5-10.9c0-3.2-2.1-5-5.3-5c-3.2,0-5.9,0.9-9.4,3.2L76.1,22L78.7,15.3
		z M91.1,29.1c-6.2,0.3-10.3,2.4-10.3,5.3c0,2.1,1.5,2.9,4.1,2.9c2.1,0,4.1-0.6,6.2-1.8V29.1z"/>
	<path id="XMLID_120_" d="M108.5,14.4l0.3,0.3v0.9c2.1-1.2,4.7-2.1,7.4-2.1c1.8,0,3.5,0.3,5.3,1.2l0.3,5.9l-0.3,0.3
		c-1.8-1.5-3.8-1.8-5.3-1.8c-2.9,0-5.9,1.2-7.4,3v19.8l-0.3,0.3h-5.3l-0.3-0.3V14.7l0.3-0.3C103.2,14.4,108.5,14.4,108.5,14.4z"/>
	<path id="XMLID_118_" d="M135,7.3l0.3,0.3v6.7h10.6l0.3,0.3V20l-0.3,0.3h-10.6v10.6c0,4.7,2.1,6.5,4.4,6.5c1.6,0,3.9-0.4,6.2-2.1
		l0.3,0.3v5.6c-1.6,0.9-4.6,1.8-6.5,1.8c-6.5,0-10.3-4.1-10.3-11.8V20.3h-4.7l-0.3-0.3v-5.3l0.3-0.3h4.7V7.6l0.3-0.3
		C129.7,7.3,135,7.3,135,7.3z"/>
	<path id="XMLID_116_" d="M157.2,14.4l0.3,0.3v0.9c2.1-1.2,4.1-2.1,6.8-2.1c4.7,0,8,1.5,10,3.8c2.7-2.4,6.2-3.8,9.4-3.8
		c8.9,0,12.7,5,12.7,13v15.3l-0.3,0.3h-5.3l-0.3-0.3V26.8c0-4.7-1.8-7.7-6.8-7.7c-2.7,0-5,1.2-6.8,3v19.8l-0.3,0.3h-5.3l-0.3-0.3
		V26.8c0-4.7-1.8-7.7-6.8-7.7c-2.7,0-5,1.2-6.8,3v19.8l-0.3,0.3h-5.3l-0.3-0.3V14.7l0.3-0.3C151.9,14.4,157.2,14.4,157.2,14.4z"/>
	<path id="XMLID_113_" d="M227.7,39.2c-2.7,1.8-6.8,3.8-11.2,3.8c-8.6,0-15.3-6.8-15.3-15c0-8,5.6-14.5,14.2-14.5
		c7.4,0,12.4,6.5,12.4,14.5c0,0.3,0,0.8-0.3,1.5l-0.6,0.3h-19.6c0.8,4.4,4.3,7.7,9.3,7.7c3.8,0,8-1.8,10.9-4.7l0.3,0.3L227.7,39.2
		L227.7,39.2z M221.8,25c-0.3-3.2-3.2-5.9-6.5-5.9c-4.1,0-7.1,2.7-7.9,5.9H221.8z"/>
	<path id="XMLID_111_" d="M239.2,14.4l0.3,0.3v0.9c2.1-1.2,4.7-2.1,7.4-2.1c8.9,0,13.3,5,13.3,13v15.3l-0.3,0.3h-5.3l-0.3-0.3V26.8
		c0-4.7-2.4-7.7-7.4-7.7c-3,0-5.9,1.2-7.4,3v19.8l-0.3,0.3h-5.3l-0.3-0.3V14.7l0.3-0.3C233.9,14.4,239.2,14.4,239.2,14.4z"/>
	<path id="XMLID_109_" d="M274.4,7.3l0.3,0.3v6.7h10.6l0.3,0.3V20l-0.3,0.3h-10.6v10.6c0,4.7,2.1,6.5,4.4,6.5c1.6,0,3.9-0.4,6.2-2.1
		l0.3,0.3v5.6c-1.6,0.9-4.6,1.8-6.5,1.8c-6.5,0-10.3-4.1-10.3-11.8V20.3h-4.7l-0.3-0.3v-5.3l0.3-0.3h4.7V7.6l0.3-0.3
		C269.1,7.3,274.4,7.3,274.4,7.3z"/>
	<path id="XMLID_106_" d="M15.4,63.8c12.7,0,21.8,9.2,21.8,20.7c0,11.5-9.2,20.6-21.8,20.6H1.6l-0.3-0.3V64.1l0.3-0.3H15.4z
		 M7.2,99.2h8.3c8.8,0,15.1-6.5,15.1-14.8s-6.2-14.8-15-14.8H7.2C7.2,69.7,7.2,99.2,7.2,99.2z"/>
	<path id="XMLID_103_" d="M68.2,102.2c-2.7,1.8-6.8,3.8-11.2,3.8c-8.6,0-15.3-6.8-15.3-15c0-8,5.6-14.5,14.2-14.5
		c7.4,0,12.4,6.5,12.4,14.5c0,0.3,0,0.8-0.3,1.5l-0.6,0.3H47.7c0.8,4.4,4.3,7.7,9.3,7.7c3.8,0,8-1.8,10.9-4.7l0.3,0.3L68.2,102.2
		L68.2,102.2z M62.3,88c-0.3-3.2-3.2-5.9-6.5-5.9c-4.1,0-7.1,2.7-7.9,5.9H62.3z"/>
	<path id="XMLID_101_" d="M77,77.4l0.3,0.3l7.7,19.5l7.7-19.5l0.3-0.3h5.9l0.3,0.3l-11.2,27.1l-0.3,0.3h-5.3l-0.3-0.3L70.8,77.7
		l0.3-0.3H77z"/>
	<path id="XMLID_98_" d="M127.1,102.2c-2.7,1.8-6.8,3.8-11.2,3.8c-8.6,0-15.3-6.8-15.3-15c0-8,5.6-14.5,14.2-14.5
		c7.4,0,12.4,6.5,12.4,14.5c0,0.3,0,0.8-0.3,1.5l-0.6,0.3h-19.6c0.8,4.4,4.3,7.7,9.3,7.7c3.8,0,8-1.8,10.9-4.7l0.3,0.3V102.2z
		 M121.2,88c-0.3-3.2-3.2-5.9-6.5-5.9c-4.1,0-7.1,2.7-7.9,5.9H121.2z"/>
	<path id="XMLID_96_" d="M138.8,63.8l0.3,0.3v31c0,3.8,1.5,5.3,3.8,5.3c1.8,0,3.5-0.6,5.3-2.4l0.3,0.3v5.9c-1.5,0.9-3.5,1.8-5.6,1.8
		c-6.2,0-9.7-3.8-9.7-10.6V64.1l0.3-0.3C133.5,63.8,138.8,63.8,138.8,63.8z"/>
	<path id="XMLID_93_" d="M180.1,91.2c0,8.3-6.5,14.8-14.8,14.8s-14.8-6.5-14.8-14.8s6.5-14.8,14.8-14.8
		C173.6,76.5,180.1,83,180.1,91.2z M156.8,91.2c0,5.3,3.5,9.1,8.6,9.1s8.6-3.8,8.6-9.1s-3.5-9.2-8.6-9.2
		C160.3,82.1,156.8,85.9,156.8,91.2z"/>
	<path id="XMLID_90_" d="M190.6,77.4l0.3,0.3v0.9c1.8-1.2,4.4-2.1,7.1-2.1c8.3,0,14.8,6.5,14.8,14.8S206.2,106,198,106
		c-2.7,0-5.3-0.9-7.1-2.1v14.5l-0.3,0.3h-5.3l-0.3-0.3V77.7l0.3-0.3C185.3,77.4,190.6,77.4,190.6,77.4z M190.9,97.4
		c2.1,2.1,4.4,2.9,7.1,2.9c5,0,8.6-3.8,8.6-9.1s-3.5-9.2-8.6-9.2c-2.7,0-5,1.2-7.1,2.9V97.4z"/>
	<path id="XMLID_88_" d="M223.3,77.4l0.3,0.3v0.9c2.1-1.2,4.1-2.1,6.8-2.1c4.7,0,8,1.5,10,3.8c2.7-2.4,6.2-3.8,9.4-3.8
		c8.9,0,12.7,5,12.7,13v15.3l-0.3,0.3h-5.3l-0.3-0.3V89.7c0-4.7-1.8-7.7-6.8-7.7c-2.7,0-5,1.2-6.8,2.9v19.8l-0.3,0.3h-5.3l-0.3-0.3
		V89.7c0-4.7-1.8-7.7-6.8-7.7c-2.7,0-5,1.2-6.8,2.9v19.8l-0.3,0.3H218l-0.3-0.3V77.6l0.3-0.3L223.3,77.4L223.3,77.4z"/>
	<path id="XMLID_85_" d="M293.4,102.2c-2.7,1.8-6.8,3.8-11.2,3.8c-8.6,0-15.3-6.8-15.3-15c0-8,5.6-14.5,14.2-14.5
		c7.4,0,12.4,6.5,12.4,14.5c0,0.3,0,0.8-0.3,1.5l-0.6,0.3h-19.6c0.8,4.4,4.3,7.7,9.3,7.7c3.8,0,8-1.8,10.9-4.7l0.3,0.3L293.4,102.2
		L293.4,102.2z M287.5,88c-0.3-3.2-3.2-5.9-6.5-5.9c-4.1,0-7.1,2.7-7.9,5.9H287.5z"/>
	<path id="XMLID_83_" d="M304.6,77.4l0.3,0.3v0.9c2.1-1.2,4.7-2.1,7.4-2.1c8.9,0,13.3,5,13.3,13v15.3l-0.3,0.3H320l-0.3-0.3V89.7
		c0-4.7-2.4-7.7-7.4-7.7c-3,0-5.9,1.2-7.4,2.9v19.8l-0.3,0.3h-5.3l-0.3-0.3V77.6l0.3-0.3L304.6,77.4L304.6,77.4z"/>
	<path id="XMLID_81_" d="M339.4,70.3l0.3,0.3v6.7h10.6l0.3,0.3V83l-0.3,0.3h-10.6v10.6c0,4.7,2.1,6.5,4.4,6.5c1.6,0,3.9-0.4,6.2-2.1
		l0.3,0.3v5.6c-1.6,0.9-4.6,1.8-6.5,1.8c-6.5,0-10.3-4.1-10.3-11.8V83.3H329l-0.3-0.3v-5.3l0.3-0.3h4.7v-6.8l0.3-0.3
		C334,70.3,339.4,70.3,339.4,70.3z"/>
	<path id="XMLID_79_" d="M373.5,85c-3-2.1-5.9-2.9-8.9-2.9c-2.7,0-4.1,1.2-4.1,2.7c0,5,16.2,0.9,16.2,12.4c0,5-4.4,8.9-11.5,8.9
		c-3.5,0-8-0.9-10.6-2.7v-5.9l0.3-0.3c3.2,2.1,7.1,3.2,10.3,3.2c4.1,0,5.3-1.2,5.3-3.2c0-5.6-16.2-1.5-16.2-12.4
		c0-4.7,4.1-8.3,10.3-8.3c3.5,0,6.8,0.9,9.1,2.4v5.9L373.5,85z"/>
</g>
<g>
	<path d="M362.4,20.3c-1.5,3.2-4.1,8-7.1,12.4c2.6,2.7,6.2,5.9,9.4,9.1l-0.3,0.3h-8.5c-1.5-1.2-3.2-2.9-4.7-4.4
		c-2.9,3.2-6.8,5.3-11.2,5.3c-7.1,0-12.4-5.7-12.4-12.8c0-4.3,2.4-8.1,6.8-10.8c-2.4-2.7-3.5-5.2-3.5-8.8c0-5.8,4.3-10.6,10.3-10.6
		s10.3,4.8,10.3,10.6c0,4.1-3.2,8-7.4,10c2.1,2.7,4.7,5.3,6.8,7.7c2.1-2.7,3.8-5.9,5-8.2h6.2L362.4,20.3z M333.8,30.2
		c0,3.7,2.8,6.9,6.2,6.9c2.4,0,5-1.5,6.8-3.8c-2.9-2.9-5.9-6.2-8.8-9.4C335.6,25.3,333.8,27.4,333.8,30.2z M345.3,10.6
		c0-2.7-1.8-4.7-4.1-4.7c-2.3,0-4.2,2.1-4.2,4.7s1.8,5,3.2,6.5C342.6,15.6,345.3,13.4,345.3,10.6z"/>
</g>
<path id="XMLID_76_" d="M308.5,22c-3-2.1-5.9-3-8.9-3c-2.7,0-4.1,1.2-4.1,2.7c0,5,16.2,0.9,16.2,12.4c0,5-4.4,8.8-11.5,8.8
	c-3.5,0-8-0.9-10.6-2.7v-5.9l0.3-0.3c3.2,2.1,7.1,3.2,10.3,3.2c4.1,0,5.3-1.2,5.3-3.2c0-5.6-16.2-1.5-16.2-12.4
	c0-4.7,4.1-8.3,10.3-8.3c3.5,0,6.8,0.9,9.1,2.4v5.9L308.5,22z"/>
</svg>
