<?xml version="1.0" encoding="utf-8"?>
<!-- Generator: Adobe Illustrator 24.0.1, SVG Export Plug-In . SVG Version: 6.00 Build 0)  -->
<svg version="1.1" id="Layer_1" xmlns="http://www.w3.org/2000/svg" xmlns:xlink="http://www.w3.org/1999/xlink" x="0px" y="0px"
	 viewBox="0 0 460.93 200.53" style="enable-background:new 0 0 460.93 200.53;" xml:space="preserve">
<path id="XMLID_139_" d="M94.67,96.23l-0.29-0.29v-5.31l0.29-0.29h259.7l0.3,0.29v5.31l-0.3,0.29H94.67z"/>
<path id="XMLID_137_" d="M41.62,96.23l-0.29-0.29v-5.31l0.29-0.29h38.71l0.3,0.29v5.31l-0.3,0.29H41.62z"/>
<path id="XMLID_135_" d="M369.2,96.23l-0.29-0.29v-5.31l0.29-0.29h36.54l0.3,0.29v5.31l-0.3,0.29H369.2z"/>
<path id="XMLID_133_" d="M41.62,159.23l-0.29-0.29v-5.31l0.29-0.29h180.49l0.3,0.29v5.31l-0.3,0.29H41.62z"/>
<path id="XMLID_131_" d="M236.45,159.23l-0.29-0.29v-5.31l0.29-0.29h182.86l0.3,0.29v5.31l-0.3,0.29H236.45z"/>
<g id="XMLID_78_">
	<path id="XMLID_128_" d="M63.96,41.35l0.29,0.3l16.52,40.71l-0.29,0.29h-5.9l-0.29-0.29l-3.84-9.44H52.16l-3.84,9.44l-0.29,0.29
		h-5.9l-0.3-0.29l16.52-40.71l0.29-0.3H63.96z M54.52,67.02h13.57l-6.79-17.41L54.52,67.02z"/>
	<path id="XMLID_125_" d="M90.16,54.92l0.29,0.3v0.88c1.77-1.18,4.43-2.06,7.08-2.06c8.26,0,14.75,6.49,14.75,14.75
		c0,8.26-6.49,14.75-14.75,14.75c-2.66,0-5.31-0.89-7.08-2.07v14.46l-0.29,0.29h-5.31l-0.3-0.29V55.22l0.3-0.3H90.16z M90.45,74.99
		c2.07,2.07,4.43,2.95,7.08,2.95c5.02,0,8.56-3.83,8.56-9.15c0-5.31-3.54-9.15-8.56-9.15c-2.66,0-5.02,1.18-7.08,2.95V74.99z"/>
	<path id="XMLID_122_" d="M120.07,55.81c1.77-0.89,4.13-1.77,7.38-1.77c6.49,0,10.92,3.84,10.92,11.8v16.52l-0.29,0.29h-5.31
		l-0.29-0.29v-0.89c-2.07,1.48-4.96,2.07-6.79,2.07c-5.02,0-9.74-2.36-9.74-7.97c0-8.26,8.56-10.33,16.52-10.92
		c0-3.25-2.07-5.02-5.31-5.02c-3.25,0-5.9,0.89-9.44,3.25l-0.29-0.29L120.07,55.81z M132.46,69.67c-6.2,0.3-10.33,2.36-10.33,5.31
		c0,2.07,1.48,2.95,4.13,2.95c2.07,0,4.13-0.59,6.2-1.77V69.67z"/>
	<path id="XMLID_120_" d="M149.87,54.92l0.29,0.3v0.88c2.06-1.18,4.72-2.06,7.38-2.06c1.77,0,3.54,0.29,5.31,1.18l0.3,5.9l-0.3,0.29
		c-1.77-1.48-3.84-1.77-5.31-1.77c-2.95,0-5.9,1.18-7.38,2.95v19.77l-0.29,0.29h-5.31l-0.29-0.29V55.22l0.29-0.3H149.87z"/>
	<path id="XMLID_118_" d="M176.36,47.84l0.29,0.35v6.73h10.62l0.29,0.3v5.31l-0.29,0.29h-10.62v10.62c0,4.72,2.06,6.49,4.43,6.49
		c1.65,0,3.89-0.41,6.2-2.07l0.29,0.29v5.61c-1.59,0.94-4.6,1.77-6.49,1.77c-6.49,0-10.33-4.13-10.33-11.8V60.82h-4.72l-0.29-0.29
		v-5.31l0.29-0.3h4.72v-6.79l0.29-0.29H176.36z"/>
	<path id="XMLID_116_" d="M198.48,54.92l0.29,0.3v0.88c2.06-1.18,4.13-2.06,6.79-2.06c4.72,0,7.97,1.48,10.03,3.84
		c2.66-2.36,6.2-3.84,9.44-3.84c8.85,0,12.69,5.02,12.69,12.98v15.34l-0.29,0.29h-5.31l-0.3-0.29V67.31c0-4.72-1.77-7.67-6.79-7.67
		c-2.66,0-5.02,1.18-6.79,2.95v19.77l-0.29,0.29h-5.31l-0.29-0.29V67.31c0-4.72-1.77-7.67-6.79-7.67c-2.66,0-5.02,1.18-6.79,2.95
		v19.77l-0.29,0.29h-5.31l-0.29-0.29V55.22l0.29-0.3H198.48z"/>
	<path id="XMLID_113_" d="M268.99,79.71c-2.66,1.77-6.79,3.84-11.21,3.84c-8.56,0-15.34-6.79-15.34-14.99
		c0-8.02,5.61-14.52,14.16-14.52c7.38,0,12.39,6.49,12.39,14.46c0,0.29,0,0.83-0.29,1.48l-0.59,0.29h-19.65
		c0.77,4.43,4.31,7.67,9.32,7.67c3.83,0,7.96-1.77,10.92-4.72l0.29,0.29V79.71z M263.09,65.54c-0.3-3.25-3.25-5.9-6.49-5.9
		c-4.13,0-7.08,2.66-7.91,5.9H263.09z"/>
	<path id="XMLID_111_" d="M280.49,54.92l0.29,0.3v0.88c2.06-1.18,4.72-2.06,7.38-2.06c8.85,0,13.28,5.02,13.28,12.98v15.34
		l-0.3,0.29h-5.31l-0.29-0.29V67.31c0-4.72-2.36-7.67-7.38-7.67c-2.95,0-5.9,1.18-7.38,2.95v19.77l-0.29,0.29h-5.31l-0.29-0.29
		V55.22l0.29-0.3H280.49z"/>
	<path id="XMLID_109_" d="M315.71,47.84l0.29,0.35v6.73h10.62l0.3,0.3v5.31l-0.3,0.29h-10.62v10.62c0,4.72,2.07,6.49,4.42,6.49
		c1.65,0,3.89-0.41,6.2-2.07l0.3,0.29v5.61c-1.59,0.94-4.6,1.77-6.49,1.77c-6.49,0-10.33-4.13-10.33-11.8V60.82h-4.72l-0.29-0.29
		v-5.31l0.29-0.3h4.72v-6.79l0.29-0.29H315.71z"/>
	<path id="XMLID_106_" d="M56.77,104.35c12.69,0,21.83,9.15,21.83,20.65c0,11.51-9.15,20.65-21.83,20.65H42.9l-0.29-0.29v-40.71
		l0.29-0.3H56.77z M48.51,139.76h8.26c8.85,0,15.05-6.49,15.05-14.75c0-8.26-6.2-14.75-15.05-14.75h-8.26V139.76z"/>
	<path id="XMLID_103_" d="M109.52,142.71c-2.66,1.77-6.79,3.83-11.21,3.83c-8.56,0-15.34-6.79-15.34-14.99
		c0-8.02,5.61-14.52,14.16-14.52c7.38,0,12.39,6.49,12.39,14.46c0,0.29,0,0.83-0.29,1.47l-0.59,0.29H88.98
		c0.77,4.43,4.31,7.67,9.32,7.67c3.83,0,7.97-1.77,10.92-4.72l0.29,0.3V142.71z M103.61,128.54c-0.29-3.25-3.25-5.9-6.49-5.9
		c-4.13,0-7.08,2.66-7.91,5.9H103.61z"/>
	<path id="XMLID_101_" d="M118.3,117.92l0.29,0.3l7.67,19.47l7.67-19.47l0.29-0.3h5.9l0.29,0.3l-11.21,27.14l-0.29,0.29h-5.31
		l-0.29-0.29l-11.21-27.14l0.3-0.3H118.3z"/>
	<path id="XMLID_98_" d="M168.4,142.71c-2.66,1.77-6.79,3.83-11.21,3.83c-8.56,0-15.34-6.79-15.34-14.99
		c0-8.02,5.61-14.52,14.16-14.52c7.38,0,12.39,6.49,12.39,14.46c0,0.29,0,0.83-0.29,1.47l-0.59,0.29h-19.65
		c0.77,4.43,4.31,7.67,9.32,7.67c3.83,0,7.97-1.77,10.92-4.72l0.29,0.3V142.71z M162.5,128.54c-0.3-3.25-3.25-5.9-6.49-5.9
		c-4.13,0-7.08,2.66-7.91,5.9H162.5z"/>
	<path id="XMLID_96_" d="M180.14,104.35l0.29,0.3v30.98c0,3.84,1.48,5.31,3.84,5.31c1.77,0,3.54-0.59,5.31-2.36l0.29,0.29v5.9
		c-1.48,0.88-3.54,1.77-5.61,1.77c-6.2,0-9.74-3.83-9.74-10.62v-31.27l0.29-0.3H180.14z"/>
	<path id="XMLID_93_" d="M221.38,131.79c0,8.26-6.49,14.75-14.75,14.75c-8.26,0-14.75-6.49-14.75-14.75
		c0-8.26,6.49-14.75,14.75-14.75C214.89,117.04,221.38,123.53,221.38,131.79z M198.07,131.79c0,5.31,3.54,9.15,8.56,9.15
		c5.02,0,8.56-3.84,8.56-9.15c0-5.31-3.54-9.15-8.56-9.15C201.61,122.64,198.07,126.48,198.07,131.79z"/>
	<path id="XMLID_90_" d="M231.94,117.92l0.29,0.3v0.88c1.77-1.18,4.43-2.07,7.08-2.07c8.26,0,14.75,6.49,14.75,14.75
		c0,8.26-6.49,14.75-14.75,14.75c-2.66,0-5.31-0.88-7.08-2.06v14.46l-0.29,0.29h-5.31l-0.29-0.29v-40.71l0.29-0.3H231.94z
		 M232.23,137.99c2.07,2.07,4.43,2.95,7.08,2.95c5.02,0,8.56-3.84,8.56-9.15c0-5.31-3.54-9.15-8.56-9.15
		c-2.66,0-5.02,1.18-7.08,2.95V137.99z"/>
	<path id="XMLID_88_" d="M264.62,117.92l0.29,0.3v0.88c2.06-1.18,4.13-2.07,6.79-2.07c4.72,0,7.97,1.48,10.03,3.84
		c2.66-2.36,6.2-3.84,9.44-3.84c8.85,0,12.69,5.02,12.69,12.98v15.34l-0.29,0.29h-5.31l-0.3-0.29v-15.05c0-4.72-1.77-7.67-6.79-7.67
		c-2.66,0-5.01,1.18-6.79,2.95v19.77l-0.3,0.29h-5.31l-0.29-0.29v-15.05c0-4.72-1.77-7.67-6.79-7.67c-2.66,0-5.02,1.18-6.79,2.95
		v19.77l-0.29,0.29h-5.31l-0.29-0.29v-27.14l0.29-0.3H264.62z"/>
	<path id="XMLID_85_" d="M334.77,142.71c-2.66,1.77-6.79,3.83-11.21,3.83c-8.56,0-15.34-6.79-15.34-14.99
		c0-8.02,5.61-14.52,14.16-14.52c7.38,0,12.39,6.49,12.39,14.46c0,0.29,0,0.83-0.29,1.47l-0.59,0.29h-19.65
		c0.77,4.43,4.31,7.67,9.32,7.67c3.83,0,7.97-1.77,10.92-4.72l0.29,0.3V142.71z M328.87,128.54c-0.29-3.25-3.25-5.9-6.49-5.9
		c-4.13,0-7.08,2.66-7.91,5.9H328.87z"/>
	<path id="XMLID_83_" d="M345.92,117.92l0.3,0.3v0.88c2.06-1.18,4.72-2.07,7.38-2.07c8.85,0,13.28,5.02,13.28,12.98v15.34
		l-0.29,0.29h-5.31l-0.3-0.29v-15.05c0-4.72-2.36-7.67-7.38-7.67c-2.95,0-5.9,1.18-7.38,2.95v19.77l-0.3,0.29h-5.31l-0.29-0.29
		v-27.14l0.29-0.3H345.92z"/>
	<path id="XMLID_81_" d="M380.67,110.84l0.3,0.35v6.73h10.62l0.29,0.3v5.31l-0.29,0.29h-10.62v10.62c0,4.72,2.07,6.49,4.43,6.49
		c1.65,0,3.89-0.41,6.2-2.07l0.29,0.3v5.61c-1.59,0.94-4.6,1.77-6.49,1.77c-6.49,0-10.33-4.13-10.33-11.8v-10.92h-4.72l-0.3-0.29
		v-5.31l0.3-0.3h4.72v-6.79l0.29-0.29H380.67z"/>
	<path id="XMLID_79_" d="M414.84,125.59c-2.95-2.06-5.9-2.95-8.85-2.95c-2.66,0-4.13,1.18-4.13,2.66c0,5.02,16.23,0.89,16.23,12.39
		c0,5.02-4.43,8.85-11.51,8.85c-3.54,0-7.97-0.88-10.62-2.66v-5.9l0.3-0.29c3.25,2.07,7.08,3.25,10.33,3.25
		c4.13,0,5.31-1.18,5.31-3.25c0-5.61-16.23-1.48-16.23-12.39c0-4.72,4.13-8.26,10.33-8.26c3.54,0,6.79,0.88,9.15,2.36v5.9
		L414.84,125.59z"/>
</g>
<g>
	<path d="M403.68,60.87c-1.47,3.24-4.12,7.95-7.06,12.36c2.65,2.65,6.18,5.89,9.42,9.07l-0.29,0.35h-8.54
		c-1.47-1.18-3.24-2.94-4.71-4.42c-2.94,3.24-6.77,5.3-11.19,5.3c-7.12,0-12.36-5.71-12.36-12.77c0-4.3,2.35-8.12,6.77-10.77
		c-2.41-2.65-3.53-5.18-3.53-8.83c0-5.83,4.3-10.6,10.3-10.6s10.3,4.77,10.3,10.6c0,4.12-3.24,7.95-7.36,10.01
		c2.06,2.65,4.71,5.3,6.77,7.65c2.06-2.65,3.83-5.89,5-8.24h6.24L403.68,60.87z M375.13,70.76c0,3.65,2.77,6.89,6.18,6.89
		c2.36,0,5-1.47,6.77-3.83c-2.94-2.94-5.89-6.18-8.83-9.42C376.89,65.88,375.13,67.94,375.13,70.76z M386.61,51.16
		c0-2.65-1.83-4.71-4.06-4.71c-2.3,0-4.18,2.06-4.18,4.71s1.77,5,3.24,6.48C383.96,56.17,386.61,53.99,386.61,51.16z"/>
</g>
<path id="XMLID_76_" d="M349.87,62.59c-2.95-2.06-5.9-2.95-8.85-2.95c-2.66,0-4.13,1.18-4.13,2.66c0,5.02,16.23,0.89,16.23,12.39
	c0,5.02-4.43,8.85-11.51,8.85c-3.54,0-7.97-0.88-10.62-2.66v-5.9l0.3-0.29c3.25,2.07,7.08,3.25,10.33,3.25
	c4.13,0,5.31-1.18,5.31-3.25c0-5.61-16.23-1.48-16.23-12.39c0-4.72,4.13-8.26,10.33-8.26c3.54,0,6.79,0.88,9.15,2.36v5.9
	L349.87,62.59z"/>
</svg>
