<?xml version="1.0" encoding="UTF-8"?><svg id="Colour_Box_White_Type" xmlns="http://www.w3.org/2000/svg" viewBox="0 0 226 148"><defs><style>.cls-1{fill:#dc7928;}.cls-1,.cls-2{stroke-width:0px;}.cls-2{fill:#fff;}</style></defs><rect class="cls-1" width="226" height="148"/><path class="cls-2" d="m46.63,64.11l-2.35,4.58c-.52,1.07-2.44.32-1.91-.84l8.76-17.26c.17-.38.58-.55.96-.55s.72.17.93.55l8.73,17.17c.75,1.25-1.39,1.97-1.94.84l-2.26-4.5h-10.91Zm5.45-10.96l-4.58,9.14h9.14l-4.55-9.14Z"/><path class="cls-2" d="m67.01,56.63c.93-1.94,2.67-2.46,4.32-2.46.67,0,1.1.35,1.1,1.01s-.43.99-1.1.99c-2.99,0-4.26,2.38-4.26,5.31v6.56c0,.61-.49,1.01-1.04,1.01-.64,0-1.07-.41-1.07-1.01v-12.85c0-1.28,2.06-1.39,2.06,0v1.45Z"/><path class="cls-2" d="m81.98,54.05c1.94,0,3.83.81,4.7,2.35v-5.77c0-1.33,2.12-1.33,2.12,0v17.52c0,.64-.41,1.01-1.07,1.01s-.99-.38-.99-1.01v-1.36c-.99,1.8-3.02,2.55-4.76,2.55-.9,0-1.89-.17-2.79-.55l.03.03c-3.16-1.31-4.76-4.18-4.67-7.54.12-4.12,3.07-7.22,7.43-7.22Zm4.7,8.76v-2.29c0-2.55-1.97-4.35-4.61-4.47-2.06,0-4.12,1.1-4.96,3.1-.23.61-.41,1.39-.44,2.15-.03,1.88.58,3.63,2.15,4.93.84.67,1.89,1.02,2.99,1.1,2.64,0,4.87-1.68,4.87-4.53Z"/><path class="cls-2" d="m102.74,54.28c3.28.9,5.31,3.57,5.37,7.28v-.03c.06.64-.23,1.33-1.42,1.33h-11.46c.38,2.38,2.41,4.35,5.31,4.35,1.33,0,2.73-.35,3.86-1.22,1.01-.93,2.52.26,1.39,1.42-1.33,1.25-3.28,1.77-5.16,1.74-2.26,0-4.53-.87-5.89-2.58-3.13-4.12-1.77-10.79,3.63-12.3,1.36-.41,2.93-.38,4.35,0h.03Zm-7.6,6.82h10.94c-.2-2.47-1.71-4.35-3.97-4.93h.03c-.96-.26-2.15-.26-3.13.03-2.32.61-3.68,2.55-3.86,4.9Z"/><path class="cls-2" d="m124.49,60.46c0-2.67-2.15-4.52-4.5-4.52-2.81,0-5.45,2.32-5.45,5.48v6.73c0,.64-.38,1.01-1.04,1.01s-1.1-.38-1.1-1.01v-13c0-1.33,2.09-1.36,2.09.03v1.8c1.04-2.12,3.28-3.02,5.54-3.02,3.37,0,6.58,2.32,6.58,6.5v7.69c0,.64-.38,1.01-1.04,1.01s-1.07-.38-1.07-1.01v-7.69Z"/><path class="cls-2" d="m143.78,60.46c0-2.67-2.15-4.52-4.5-4.52-2.81,0-5.45,2.32-5.45,5.48v6.73c0,.64-.38,1.01-1.04,1.01s-1.1-.38-1.1-1.01v-13c0-1.33,2.09-1.36,2.09.03v1.8c1.04-2.12,3.28-3.02,5.54-3.02,3.37,0,6.58,2.32,6.58,6.5v7.69c0,.64-.38,1.01-1.04,1.01s-1.07-.38-1.07-1.01v-7.69Z"/><path class="cls-2" d="m159.84,54.28c3.28.9,5.31,3.57,5.37,7.28v-.03c.06.64-.23,1.33-1.42,1.33h-11.46c.38,2.38,2.41,4.35,5.31,4.35,1.33,0,2.73-.35,3.86-1.22,1.02-.93,2.52.26,1.39,1.42-1.33,1.25-3.28,1.77-5.16,1.74-2.26,0-4.52-.87-5.89-2.58-3.13-4.12-1.77-10.79,3.63-12.3,1.36-.41,2.93-.38,4.35,0h.03Zm-7.6,6.82h10.94c-.2-2.47-1.71-4.35-3.97-4.93h.03c-.96-.26-2.15-.26-3.13.03-2.32.61-3.68,2.55-3.86,4.9Z"/><path class="cls-2" d="m170.4,65.33c.29,1.31,2.55,1.97,4.67,1.97,1.42,0,4.47-.64,4.47-2.64,0-1.86-2.2-1.94-4.55-2.12-3.13-.29-6.5-.55-6.5-4.12,0-3.1,3.54-4.44,6.32-4.44,2.23,0,5.34.38,6.35,2.99.41,1.31-1.6,1.86-1.97.75-.64-1.68-3.07-1.8-4.38-1.8-1.68,0-4.21.72-4.21,2.52s2.15,1.83,4.47,2c3.19.29,6.58.58,6.58,4.21s-4.18,4.55-6.58,4.55-6.12-.61-6.7-3.51c-.35-1.22,1.77-1.83,2.03-.38Z"/><path class="cls-2" d="m25.14,98.47v-11.94h7.26v1.53h-5.61v3.67h5.09v1.55h-5.09v3.66h5.61v1.53h-7.26Z"/><path class="cls-2" d="m36.27,98.47v-11.94h4.18c3.03,0,5.68,2.07,5.68,6s-2.68,5.95-5.71,5.95h-4.14Zm4.09-1.47c2.21,0,4.06-1.48,4.06-4.48s-1.82-4.53-4.03-4.53h-2.48v9.01h2.44Z"/><path class="cls-2" d="m61.02,98.47v-9.3l-4.08,9.3h-1.52l-4.04-9.3v9.3h-1.63v-11.94h2.24l4.21,9.72,4.25-9.72h2.21v11.94h-1.63Z"/><path class="cls-2" d="m72.27,86.28c3,0,6,2.22,6,6.22s-3,6.23-6,6.23-6-2.24-6-6.23,3-6.22,6-6.22Zm0,10.93c2.22,0,4.31-1.6,4.31-4.72s-2.09-4.7-4.31-4.7-4.31,1.58-4.31,4.7,2.09,4.72,4.31,4.72Z"/><path class="cls-2" d="m90,98.47l-6.45-9.74v9.74h-1.65v-11.94h2.21l5.96,9.16v-9.16h1.65v11.94h-1.72Z"/><path class="cls-2" d="m96.1,98.47v-11.94h4.18c3.03,0,5.68,2.07,5.68,6s-2.68,5.95-5.71,5.95h-4.14Zm4.09-1.47c2.21,0,4.06-1.48,4.06-4.48s-1.82-4.53-4.03-4.53h-2.48v9.01h2.44Z"/><path class="cls-2" d="m115.62,89.76c-.13-.86-.86-2.04-2.53-2.04-1.35,0-2.31.88-2.31,1.99,0,.86.52,1.52,1.53,1.74l1.79.39c1.99.44,3.1,1.69,3.1,3.35,0,1.85-1.58,3.54-4.13,3.54-2.88,0-4.25-1.85-4.46-3.55l1.58-.51c.12,1.33,1.06,2.56,2.86,2.56,1.65,0,2.46-.86,2.46-1.9,0-.86-.59-1.6-1.79-1.85l-1.7-.37c-1.7-.37-2.92-1.48-2.92-3.27s1.74-3.55,3.94-3.55c2.7,0,3.77,1.67,4.04,2.96l-1.48.52Z"/><path class="cls-2" d="m125.98,86.28c3,0,6,2.22,6,6.22s-3,6.23-6,6.23-6-2.24-6-6.23,3-6.22,6-6.22Zm0,10.93c2.22,0,4.31-1.6,4.31-4.72s-2.09-4.7-4.31-4.7-4.31,1.58-4.31,4.7,2.09,4.72,4.31,4.72Z"/><path class="cls-2" d="m143.7,98.47l-6.45-9.74v9.74h-1.65v-11.94h2.21l5.96,9.16v-9.16h1.65v11.94h-1.72Z"/><path class="cls-2" d="m157.01,93.59v4.89h-1.65v-11.94h4.35c2.21,0,3.69,1.53,3.69,3.54s-1.48,3.52-3.69,3.52h-2.7Zm2.39-1.48c1.43,0,2.31-.79,2.31-2.02s-.88-2.07-2.31-2.07h-2.39v4.09h2.39Z"/><path class="cls-2" d="m172.73,95.14h-5.29l-1.26,3.33h-1.77l4.75-11.94h1.9l4.75,11.94h-1.79l-1.3-3.33Zm-4.7-1.53h4.11l-2.07-5.36-2.04,5.36Z"/><path class="cls-2" d="m182.3,93.59h-1.79v4.89h-1.67v-11.94h4.5c2.26,0,3.66,1.58,3.66,3.55,0,1.72-1.1,3.05-2.9,3.39l2.85,5h-1.92l-2.73-4.89Zm.74-1.48c1.35,0,2.26-.79,2.26-2.02s-.91-2.07-2.26-2.07h-2.53v4.09h2.53Z"/><path class="cls-2" d="m193.98,93.05l-1.7,1.82v3.6h-1.65v-11.94h1.65v6.15l5.59-6.15h2.17l-4.97,5.32,5.04,6.62h-2.09l-4.04-5.42Z"/></svg>