<?xml version="1.0" encoding="UTF-8"?><svg id="Colour_Box_White_Type" xmlns="http://www.w3.org/2000/svg" viewBox="0 0 226 148"><defs><style>.cls-1{fill:#92617c;}.cls-1,.cls-2{stroke-width:0px;}.cls-2{fill:#fff;}</style></defs><rect class="cls-1" width="226" height="148"/><path class="cls-2" d="m66.36,50.59c1.13-1.01,2.58.52,1.54,1.45l-7.69,6.82,8.24,8.59c1.1,1.28-.46,2.41-1.54,1.36l-8.18-8.64-3.07,2.7v5.31c0,1.31-2.12,1.36-2.12,0v-16.88c0-1.33,2.12-1.31,2.12,0v9.22l2.81-2.84,7.89-7.08Z"/><path class="cls-2" d="m73.99,52.04c0,1.31-2.18,1.33-2.18,0v-1.3c0-1.33,2.18-1.33,2.18,0v1.3Zm-2.15,3.13c0-1.25,2.12-1.28,2.12-.03v13.08c0,1.28-2.12,1.25-2.12,0v-13.05Z"/><path class="cls-2" d="m81.27,68.11c0,.55-.46.99-1.04.99-.64,0-1.07-.44-1.07-.99v-17.4c0-.55.44-.99,1.07-.99.58,0,1.04.44,1.04.99v17.4Z"/><path class="cls-2" d="m88.28,68.11c0,.55-.46.99-1.04.99-.64,0-1.07-.44-1.07-.99v-17.4c0-.55.44-.99,1.07-.99.58,0,1.04.44,1.04.99v17.4Z"/><path class="cls-2" d="m96.69,54.6c.96-.43,2-.58,3.1-.55,1.65.03,3.54.55,4.58,2.26v-1.1c0-.61.38-1.04,1.04-1.04s1.07.43,1.07,1.04v12.88c0,.64-.44,1.04-1.07,1.04s-1.04-.41-1.04-1.04v-1.39c-.84,1.68-2.99,2.64-4.7,2.64-1.39,0-2.96-.38-4.18-1.25-2.2-1.51-3.34-3.97-3.25-6.82.06-2.93,1.68-5.63,4.47-6.7l-.03.03Zm7.69,8.21v-2.29c0-2.87-2-4.35-4.61-4.47-2.06-.03-4.15,1.07-4.96,3.1-.26.61-.41,1.39-.44,2.15-.06,1.88.55,3.63,2.12,4.93.87.67,1.91,1.02,2.99,1.1,2.67,0,4.76-1.62,4.9-4.53Z"/><path class="cls-2" d="m113.57,56.63c.93-1.94,2.67-2.46,4.32-2.46.67,0,1.1.35,1.1,1.01s-.44.99-1.1.99c-2.99,0-4.26,2.38-4.26,5.31v6.56c0,.61-.49,1.01-1.04,1.01-.64,0-1.07-.41-1.07-1.01v-12.85c0-1.28,2.06-1.39,2.06,0v1.45Z"/><path class="cls-2" d="m134.34,60.46c0-2.67-2.15-4.52-4.5-4.52-2.81,0-5.45,2.32-5.45,5.48v6.73c0,.64-.38,1.01-1.04,1.01s-1.1-.38-1.1-1.01v-13c0-1.33,2.09-1.36,2.09.03v1.8c1.04-2.12,3.28-3.02,5.54-3.02,3.36,0,6.58,2.32,6.58,6.5v7.69c0,.64-.38,1.01-1.04,1.01s-1.07-.38-1.07-1.01v-7.69Z"/><path class="cls-2" d="m150.4,54.28c3.28.9,5.31,3.57,5.37,7.28v-.03c.06.64-.23,1.33-1.42,1.33h-11.46c.38,2.38,2.41,4.35,5.31,4.35,1.33,0,2.73-.35,3.86-1.22,1.02-.93,2.52.26,1.39,1.42-1.33,1.25-3.28,1.77-5.16,1.74-2.26,0-4.52-.87-5.89-2.58-3.13-4.12-1.77-10.79,3.63-12.3,1.36-.41,2.93-.38,4.35,0h.03Zm-7.6,6.82h10.94c-.2-2.47-1.71-4.35-3.97-4.93h.03c-.96-.26-2.15-.26-3.13.03-2.32.61-3.68,2.55-3.86,4.9Z"/><path class="cls-2" d="m158.06,55.47c-.52-1.16,1.39-2.15,1.97-.84l5.6,11.2,5.54-11.23c.52-1.13,2.44-.43,1.97.78l-9.31,18.51c-.7,1.36-2.52.64-1.97-.73l2.55-5.19-6.35-12.5Z"/><path class="cls-2" d="m73.64,86.53c2.27,0,3.6,1.35,3.6,3.23,0,1.28-.74,2.19-1.79,2.58,1.36.34,2.16,1.55,2.16,2.88,0,1.89-1.5,3.25-3.69,3.25h-4.18v-11.94h3.89Zm-.19,5.22c1.33,0,2.12-.79,2.12-1.9s-.83-1.87-2.19-1.87h-1.99v3.77h2.06Zm.24,5.27c1.33,0,2.24-.74,2.24-1.9s-.72-1.95-2.17-1.95h-2.36v3.86h2.29Z"/><path class="cls-2" d="m87.15,86.28c3,0,6,2.22,6,6.22s-3,6.23-6,6.23-6-2.24-6-6.23,3-6.22,6-6.22Zm0,10.93c2.22,0,4.31-1.6,4.31-4.72s-2.09-4.7-4.31-4.7-4.31,1.58-4.31,4.7,2.09,4.72,4.31,4.72Z"/><path class="cls-2" d="m101.59,92.49l4.01,5.98h-1.97l-3.02-4.67-3.08,4.67h-1.94l4.08-5.98-4.04-5.96h1.99l3.02,4.68,3.07-4.68h1.95l-4.06,5.96Z"/><path class="cls-2" d="m123.33,98.47v-5.31h-6.1v5.31h-1.65v-11.94h1.65v5.1h6.1v-5.1h1.65v11.94h-1.65Z"/><path class="cls-2" d="m130.04,98.47v-11.94h1.68v11.94h-1.68Z"/><path class="cls-2" d="m136.78,98.47v-11.94h1.65v10.39h5.64v1.55h-7.29Z"/><path class="cls-2" d="m148.03,98.47v-11.94h1.65v10.39h5.64v1.55h-7.29Z"/></svg>