<?xml version="1.0" encoding="UTF-8"?><svg id="Colour_Box_White_Type" xmlns="http://www.w3.org/2000/svg" viewBox="0 0 226 148"><defs><style>.cls-1{fill:#5e6547;}.cls-1,.cls-2{stroke-width:0px;}.cls-2{fill:#fff;}</style></defs><rect class="cls-1" width="226" height="148"/><path class="cls-2" d="m68.48,50.97c.67-1.04,2-.7,2,.52v16.71c0,1.39-2.12,1.39-2.12,0v-13.2l-5.92,9.25c-.46.84-1.57.84-2,0l-5.92-9.22v13.17c0,1.39-2.12,1.39-2.12,0v-16.71c0-1.25,1.39-1.57,1.97-.52l7.08,11.02,7.02-11.02Z"/><path class="cls-2" d="m77.84,52.04c0,1.31-2.17,1.33-2.17,0v-1.3c0-1.33,2.17-1.33,2.17,0v1.3Zm-2.15,3.13c0-1.25,2.12-1.28,2.12-.03v13.08c0,1.28-2.12,1.25-2.12,0v-13.05Z"/><path class="cls-2" d="m84.34,56.63c.93-1.94,2.67-2.46,4.32-2.46.67,0,1.1.35,1.1,1.01s-.43.99-1.1.99c-2.99,0-4.26,2.38-4.26,5.31v6.56c0,.61-.49,1.01-1.04,1.01-.64,0-1.07-.41-1.07-1.01v-12.85c0-1.28,2.06-1.39,2.06,0v1.45Z"/><path class="cls-2" d="m94.69,56.63c.93-1.94,2.67-2.46,4.32-2.46.67,0,1.1.35,1.1,1.01s-.43.99-1.1.99c-2.99,0-4.26,2.38-4.26,5.31v6.56c0,.61-.49,1.01-1.04,1.01-.64,0-1.07-.41-1.07-1.01v-12.85c0-1.28,2.06-1.39,2.06,0v1.45Z"/><path class="cls-2" d="m106.61,54.6c.96-.43,2-.58,3.1-.55,1.65.03,3.54.55,4.58,2.26v-1.1c0-.61.38-1.04,1.04-1.04s1.07.43,1.07,1.04v12.88c0,.64-.43,1.04-1.07,1.04s-1.04-.41-1.04-1.04v-1.39c-.84,1.68-2.99,2.64-4.7,2.64-1.39,0-2.96-.38-4.18-1.25-2.2-1.51-3.34-3.97-3.25-6.82.06-2.93,1.68-5.63,4.47-6.7l-.03.03Zm7.69,8.21v-2.29c0-2.87-2-4.35-4.61-4.47-2.06-.03-4.15,1.07-4.96,3.1-.26.61-.41,1.39-.44,2.15-.06,1.88.55,3.63,2.12,4.93.87.67,1.92,1.02,2.99,1.1,2.67,0,4.76-1.62,4.9-4.53Z"/><path class="cls-2" d="m134.95,68.29c0,4.21-3.19,6.38-7.16,6.38-2.21,0-3.97-.52-5.54-2-1.16-1.13.44-2.46,1.42-1.51,1.45,1.1,2.49,1.45,4.12,1.45,2.64,0,5.1-1.33,5.1-4.32v-1.57c-1.01,1.83-2.9,2.52-4.64,2.55-1.1.03-2.15-.14-3.13-.55-2.7-1.1-4.35-3.74-4.41-6.67-.09-3.37,1.48-6.24,4.64-7.54.9-.35,1.86-.49,2.73-.49,1.77,0,3.8.67,4.76,2.26v-1.1c0-.64.38-1.04,1.04-1.04s1.07.41,1.07,1.04v13.11Zm-10.01-11.2h.03c-1.6,1.3-2.2,3.05-2.15,4.93.03.75.17,1.54.44,2.15.81,2.03,2.9,3.13,4.96,3.1h-.03c2.61-.12,4.64-2,4.64-4.47v-2.29c0-1.83-.75-3.22-2.47-3.97-1.74-.78-3.83-.67-5.42.55Z"/><path class="cls-2" d="m143.56,54.6c.96-.43,2-.58,3.1-.55,1.65.03,3.54.55,4.58,2.26v-1.1c0-.61.38-1.04,1.04-1.04s1.07.43,1.07,1.04v12.88c0,.64-.43,1.04-1.07,1.04s-1.04-.41-1.04-1.04v-1.39c-.84,1.68-2.99,2.64-4.7,2.64-1.39,0-2.96-.38-4.18-1.25-2.21-1.51-3.34-3.97-3.25-6.82.06-2.93,1.68-5.63,4.47-6.7l-.03.03Zm7.69,8.21v-2.29c0-2.87-2-4.35-4.61-4.47-2.06-.03-4.15,1.07-4.96,3.1-.26.61-.41,1.39-.43,2.15-.06,1.88.55,3.63,2.12,4.93.87.67,1.91,1.02,2.99,1.1,2.67,0,4.76-1.62,4.9-4.53Z"/><path class="cls-2" d="m170.56,60.46c0-2.67-2.15-4.52-4.5-4.52-2.81,0-5.45,2.32-5.45,5.48v6.73c0,.64-.38,1.01-1.04,1.01s-1.1-.38-1.1-1.01v-13c0-1.33,2.09-1.36,2.09.03v1.8c1.04-2.12,3.28-3.02,5.54-3.02,3.37,0,6.58,2.32,6.58,6.5v7.69c0,.64-.38,1.01-1.04,1.01s-1.07-.38-1.07-1.01v-7.69Z"/><path class="cls-2" d="m62.2,89.76c-.13-.86-.86-2.04-2.53-2.04-1.35,0-2.31.88-2.31,1.99,0,.86.52,1.52,1.53,1.74l1.79.39c1.99.44,3.1,1.69,3.1,3.35,0,1.85-1.58,3.54-4.13,3.54-2.88,0-4.25-1.85-4.46-3.55l1.58-.51c.12,1.33,1.06,2.56,2.86,2.56,1.65,0,2.46-.86,2.46-1.9,0-.86-.59-1.6-1.79-1.85l-1.7-.37c-1.7-.37-2.91-1.48-2.91-3.27s1.73-3.55,3.94-3.55c2.7,0,3.77,1.67,4.04,2.96l-1.48.52Z"/><path class="cls-2" d="m68.08,98.47v-11.94h1.68v11.94h-1.68Z"/><path class="cls-2" d="m74.82,98.47v-11.94h1.65v10.39h5.64v1.55h-7.29Z"/><path class="cls-2" d="m92.71,86.53h1.73l-4.6,11.94h-1.63l-4.5-11.94h1.75l3.61,9.82,3.64-9.82Z"/><path class="cls-2" d="m98.15,98.47v-11.94h7.26v1.53h-5.61v3.67h5.09v1.55h-5.09v3.66h5.61v1.53h-7.26Z"/><path class="cls-2" d="m113.41,93.59h-1.79v4.89h-1.67v-11.94h4.5c2.26,0,3.66,1.58,3.66,3.55,0,1.72-1.09,3.05-2.9,3.39l2.85,5h-1.92l-2.73-4.89Zm.74-1.48c1.35,0,2.26-.79,2.26-2.02s-.91-2.07-2.26-2.07h-2.53v4.09h2.53Z"/><path class="cls-2" d="m122.41,98.47v-11.94h4.18c3.03,0,5.68,2.07,5.68,6s-2.68,5.95-5.71,5.95h-4.14Zm4.09-1.47c2.21,0,4.06-1.48,4.06-4.48s-1.82-4.53-4.03-4.53h-2.48v9.01h2.44Z"/><path class="cls-2" d="m143.11,95.14h-5.29l-1.26,3.33h-1.77l4.75-11.94h1.9l4.75,11.94h-1.79l-1.3-3.33Zm-4.7-1.53h4.11l-2.07-5.36-2.04,5.36Z"/><path class="cls-2" d="m149.91,98.47v-11.94h1.65v10.39h5.64v1.55h-7.29Z"/><path class="cls-2" d="m161.16,98.47v-11.94h7.26v1.53h-5.61v3.67h5.09v1.55h-5.09v3.66h5.61v1.53h-7.26Z"/></svg>