<?xml version="1.0" encoding="utf-8"?>
<!-- Generator: Adobe Illustrator 25.3.1, SVG Export Plug-In . SVG Version: 6.00 Build 0)  -->
<svg version="1.1" id="Colour_Box_White_Type" xmlns="http://www.w3.org/2000/svg" xmlns:xlink="http://www.w3.org/1999/xlink"
	 x="0px" y="0px" viewBox="0 0 226 148" style="enable-background:new 0 0 226 148;" xml:space="preserve">
<style type="text/css">
	.st0{fill:#D36C26;}
	.st1{fill:#FFFFFF;}
</style>
<g>
	<rect y="0" class="st0" width="226" height="148"/>
	<g>
		<path class="st1" d="M78.1,50.5c0.5,0,1.1,0.3,1.1,0.9v16.3c0,0.8-0.7,1.2-1.3,1.2c-0.5,0-1-0.2-1.3-0.7L65.7,53.9l0.2,4v10
			c0,0.7-0.6,1.1-1.1,1.1c-0.6,0-1.1-0.3-1.1-1.1V51.8c0-0.8,0.6-1.3,1.2-1.3c0.4,0,0.9,0.2,1.2,0.7l11.2,14.7l-0.3-4.4v-10
			C76.9,50.9,77.5,50.5,78.1,50.5z"/>
		<path class="st1" d="M95.6,56.3v-1c0-0.6,0.4-1,1-1c0.6,0,1.1,0.4,1.1,1v12.6c0,0.6-0.4,1-1.1,1c-0.7,0-1-0.4-1-1v-1.2
			c-0.8,1.7-3,2.6-4.7,2.6c-4.2,0-7.4-2.9-7.4-7.7c0-5,3.4-7.5,7.5-7.5C92.6,54,94.5,54.6,95.6,56.3z M95.6,62.8v-2.3
			c0-2.9-2-4.4-4.6-4.5c-3.5-0.1-5.4,2.6-5.4,5.5c0,4.2,3.5,5.7,5.3,5.7C93.4,67.2,95.6,65.6,95.6,62.8z"/>
		<path class="st1" d="M112.8,54.3c0.8,0,1.5,1,0.6,1.8l-5.1,4.7l5.8,6.4c0.7,0.8,0,1.7-0.8,1.7c-0.3,0-0.6-0.1-0.9-0.5l-5.8-6.5
			l-1.7,1.5V68c0,0.7-0.6,1-1.1,1c-0.5,0-1-0.3-1-1V50.5c0-1.2,2.1-1.2,2.1,0v10.7l2-2l4.9-4.6C112.2,54.4,112.5,54.3,112.8,54.3z"
			/>
		<path class="st1" d="M124.5,67.3c2.8,0,5.5-2.3,5.5-5.5V55c0-0.6,0.4-1,1-1s1.1,0.4,1.1,1V68c0,0.7-0.5,1-1,1c-0.5,0-1-0.3-1-1
			v-1.7c-1,2.1-3.3,3-5.5,3c-3.4,0-6.6-2.3-6.6-6.5V55c0-0.6,0.4-1,1-1c0.6,0,1.1,0.4,1.1,1v7.7C120,65.4,122.2,67.3,124.5,67.3z"/>
		<path class="st1" d="M143.6,54c0.7,0,1.1,0.3,1.1,1c0,0.6-0.4,1-1.1,1c-3,0-4.3,2.4-4.3,5.3V68c0,0.6-0.5,1-1,1
			c-0.6,0-1.1-0.4-1.1-1V55.3c0-0.6,0.6-1,1.1-1c0.5,0,1,0.3,1,1v1.2C140.2,54.5,141.9,54,143.6,54z"/>
		<path class="st1" d="M154.3,67.3c2.8,0,5.5-2.3,5.5-5.5V55c0-0.6,0.4-1,1-1s1.1,0.4,1.1,1V68c0,0.7-0.5,1-1,1c-0.5,0-1-0.3-1-1
			v-1.7c-1,2.1-3.3,3-5.5,3c-3.4,0-6.6-2.3-6.6-6.5V55c0-0.6,0.4-1,1-1c0.6,0,1.1,0.4,1.1,1v7.7C149.9,65.4,152,67.3,154.3,67.3z"/>
	</g>
	<g>
		<path class="st1" d="M62.2,89.8c-0.1-0.9-0.9-2-2.5-2c-1.3,0-2.3,0.9-2.3,2c0,0.9,0.5,1.5,1.5,1.7l1.8,0.4c2,0.4,3.1,1.7,3.1,3.4
			c0,1.9-1.6,3.5-4.1,3.5c-2.9,0-4.2-1.9-4.5-3.6l1.6-0.5c0.1,1.3,1.1,2.6,2.9,2.6c1.7,0,2.5-0.9,2.5-1.9c0-0.9-0.6-1.6-1.8-1.9
			l-1.7-0.4c-1.7-0.4-2.9-1.5-2.9-3.3c0-1.9,1.7-3.6,3.9-3.6c2.7,0,3.8,1.7,4,3L62.2,89.8z"/>
		<path class="st1" d="M68.1,98.5V86.5h1.7v11.9H68.1z"/>
		<path class="st1" d="M74.8,98.5V86.5h1.7v10.4h5.6v1.5H74.8z"/>
		<path class="st1" d="M92.7,86.5h1.7l-4.6,11.9h-1.6l-4.5-11.9h1.8l3.6,9.8L92.7,86.5z"/>
		<path class="st1" d="M98.1,98.5V86.5h7.3v1.5h-5.6v3.7h5.1v1.5h-5.1v3.7h5.6v1.5H98.1z"/>
		<path class="st1" d="M113.4,93.6h-1.8v4.9h-1.7V86.5h4.5c2.3,0,3.7,1.6,3.7,3.6c0,1.7-1.1,3-2.9,3.4l2.8,5h-1.9L113.4,93.6z
			 M114.1,92.1c1.3,0,2.3-0.8,2.3-2c0-1.3-0.9-2.1-2.3-2.1h-2.5v4.1H114.1z"/>
		<path class="st1" d="M122.4,98.5V86.5h4.2c3,0,5.7,2.1,5.7,6c0,3.9-2.7,5.9-5.7,5.9H122.4z M126.5,97c2.2,0,4.1-1.5,4.1-4.5
			c0-3-1.8-4.5-4-4.5H124v9H126.5z"/>
		<path class="st1" d="M143.1,95.1h-5.3l-1.3,3.3h-1.8l4.8-11.9h1.9l4.8,11.9h-1.8L143.1,95.1z M138.4,93.6h4.1l-2.1-5.4L138.4,93.6
			z"/>
		<path class="st1" d="M149.9,98.5V86.5h1.7v10.4h5.6v1.5H149.9z"/>
		<path class="st1" d="M161.1,98.5V86.5h7.3v1.5h-5.6v3.7h5.1v1.5h-5.1v3.7h5.6v1.5H161.1z"/>
	</g>
</g>
</svg>
