<?xml version="1.0" encoding="UTF-8"?><svg id="Colour_Box_White_Type" xmlns="http://www.w3.org/2000/svg" viewBox="0 0 226 148"><defs><style>.cls-1{fill:#85aa3f;}.cls-1,.cls-2{stroke-width:0px;}.cls-2{fill:#fff;}</style></defs><rect class="cls-1" width="226" height="148"/><path class="cls-2" d="m25.48,62.52v5.63c0,1.33-2.12,1.33-2.12.03v-16.65c0-.61.44-1.02,1.07-1.02h6.87c5.02,0,7.57,2.84,7.57,6.24,0,2.93-1.6,5.05-5.16,5.66l4.7,5.08c1.1,1.1-.49,2.38-1.45,1.39l-5.86-6.35h-5.63Zm0-1.83h5.86c3.8,0,5.45-1.77,5.4-3.95-.03-2.38-2.03-4.29-5.4-4.29h-5.86v8.24Z"/><path class="cls-2" d="m45.61,54.6c.96-.43,2-.58,3.1-.55,1.65.03,3.54.55,4.58,2.26v-1.1c0-.61.38-1.04,1.04-1.04s1.07.43,1.07,1.04v12.88c0,.64-.44,1.04-1.07,1.04s-1.04-.41-1.04-1.04v-1.39c-.84,1.68-2.99,2.64-4.7,2.64-1.39,0-2.96-.38-4.18-1.25-2.2-1.51-3.34-3.97-3.25-6.82.06-2.93,1.68-5.63,4.47-6.7l-.03.03Zm7.69,8.21v-2.29c0-2.87-2-4.35-4.61-4.47-2.06-.03-4.15,1.07-4.96,3.1-.26.61-.41,1.39-.44,2.15-.06,1.88.55,3.63,2.12,4.93.87.67,1.91,1.02,2.99,1.1,2.67,0,4.76-1.62,4.9-4.53Z"/><path class="cls-2" d="m58.05,55.41c-.44-1.22,1.48-1.91,2-.78,2,4,3.65,7.28,5.69,11.31l5.74-11.37c.44-1.07,2.41-.46,1.89.72l-6.7,13.31c-.38.75-1.36.99-1.91.03l-6.7-13.23Z"/><path class="cls-2" d="m84.41,54.28c3.28.9,5.31,3.57,5.37,7.28v-.03c.06.64-.23,1.33-1.42,1.33h-11.46c.38,2.38,2.41,4.35,5.31,4.35,1.33,0,2.73-.35,3.86-1.22,1.02-.93,2.52.26,1.39,1.42-1.33,1.25-3.28,1.77-5.16,1.74-2.26,0-4.53-.87-5.89-2.58-3.13-4.12-1.77-10.79,3.63-12.3,1.36-.41,2.93-.38,4.35,0h.03Zm-7.6,6.82h10.94c-.2-2.47-1.71-4.35-3.97-4.93h.03c-.96-.26-2.15-.26-3.13.03-2.32.61-3.68,2.55-3.86,4.9Z"/><path class="cls-2" d="m105.5,60.46c0-2.67-2.15-4.52-4.5-4.52-2.81,0-5.45,2.32-5.45,5.48v6.73c0,.64-.38,1.01-1.04,1.01s-1.1-.38-1.1-1.01v-13c0-1.33,2.09-1.36,2.09.03v1.8c1.04-2.12,3.28-3.02,5.54-3.02,3.36,0,6.58,2.32,6.58,6.5v7.69c0,.64-.38,1.01-1.04,1.01s-1.07-.38-1.07-1.01v-7.69Z"/><path class="cls-2" d="m112.92,65.33c.29,1.31,2.55,1.97,4.67,1.97,1.42,0,4.47-.64,4.47-2.64,0-1.86-2.2-1.94-4.55-2.12-3.13-.29-6.5-.55-6.5-4.12,0-3.1,3.54-4.44,6.32-4.44,2.23,0,5.34.38,6.35,2.99.41,1.31-1.6,1.86-1.97.75-.64-1.68-3.07-1.8-4.38-1.8-1.68,0-4.21.72-4.21,2.52s2.15,1.83,4.47,2c3.19.29,6.58.58,6.58,4.21s-4.18,4.55-6.58,4.55-6.12-.61-6.7-3.51c-.35-1.22,1.77-1.83,2.03-.38Z"/><path class="cls-2" d="m126.14,55.18c-.46-1.25,1.6-1.74,2-.81l4.96,11.34,4.58-9.51c.41-.96,1.57-.96,2,0l4.64,9.54,4.84-11.25c.41-1.07,2.47-.55,1.94.7l-5.77,13.49c-.32.78-1.6.73-1.94,0l-4.64-9.75-4.79,9.75c-.35.7-1.6.9-1.97,0l-5.86-13.49Z"/><path class="cls-2" d="m153.98,66.63c-1.31-1.54-1.86-3.39-1.77-5.57.29-3.22,2.18-5.92,5.37-6.82.7-.2,1.48-.26,2.2-.26s1.39.06,2.15.26c3.16.9,5.13,3.57,5.4,6.82.12,2.18-.46,4.03-1.74,5.57-1.42,1.71-3.51,2.61-5.8,2.61s-4.38-.9-5.8-2.61Zm5.77-10.67c-.55,0-1.1.09-1.54.2-2.44.64-3.86,2.9-3.86,5.51,0,1.3.41,2.67,1.28,3.68,1.02,1.22,2.55,1.92,4.15,1.92s3.16-.75,4.18-1.92c.81-.99,1.28-2.38,1.28-3.63,0-2.64-1.42-4.93-3.89-5.57-.46-.12-1.04-.2-1.6-.2Z"/><path class="cls-2" d="m171.56,66.63c-1.31-1.54-1.86-3.39-1.77-5.57.29-3.22,2.18-5.92,5.37-6.82.7-.2,1.48-.26,2.2-.26s1.39.06,2.15.26c3.16.9,5.13,3.57,5.4,6.82.12,2.18-.46,4.03-1.74,5.57-1.42,1.71-3.51,2.61-5.8,2.61s-4.38-.9-5.8-2.61Zm5.77-10.67c-.55,0-1.1.09-1.54.2-2.44.64-3.86,2.9-3.86,5.51,0,1.3.41,2.67,1.28,3.68,1.02,1.22,2.55,1.92,4.15,1.92s3.16-.75,4.18-1.92c.81-.99,1.28-2.38,1.28-3.63,0-2.64-1.42-4.93-3.89-5.57-.46-.12-1.04-.2-1.6-.2Z"/><path class="cls-2" d="m194.84,54.05c1.94,0,3.83.81,4.7,2.35v-5.77c0-1.33,2.12-1.33,2.12,0v17.52c0,.64-.41,1.01-1.07,1.01s-.99-.38-.99-1.01v-1.36c-.99,1.8-3.02,2.55-4.76,2.55-.9,0-1.89-.17-2.78-.55l.03.03c-3.16-1.31-4.76-4.18-4.67-7.54.12-4.12,3.07-7.22,7.43-7.22Zm4.7,8.76v-2.29c0-2.55-1.97-4.35-4.61-4.47-2.06,0-4.12,1.1-4.96,3.1-.23.61-.41,1.39-.44,2.15-.03,1.88.58,3.63,2.15,4.93.84.67,1.89,1.02,2.99,1.1,2.64,0,4.87-1.68,4.87-4.53Z"/><path class="cls-2" d="m63.54,88.06v10.41h-1.65v-10.41h-3.99v-1.53h9.64v1.53h-3.99Z"/><path class="cls-2" d="m71.07,94.39v-7.87h1.63v7.82c0,1.82.99,2.85,2.66,2.85s2.64-1.03,2.64-2.85v-7.82h1.65v7.87c0,2.81-1.87,4.33-4.3,4.33s-4.3-1.52-4.3-4.33Z"/><path class="cls-2" d="m84.55,98.47v-11.94h1.65v10.39h5.64v1.55h-7.29Z"/><path class="cls-2" d="m95.8,98.47v-11.94h1.65v10.39h5.64v1.55h-7.29Z"/><path class="cls-2" d="m107.05,98.47v-11.94h1.68v11.94h-1.68Z"/><path class="cls-2" d="m125.06,98.47v-9.3l-4.08,9.3h-1.52l-4.04-9.3v9.3h-1.63v-11.94h2.24l4.21,9.72,4.25-9.72h2.21v11.94h-1.63Z"/><path class="cls-2" d="m135.64,86.53c2.27,0,3.6,1.35,3.6,3.23,0,1.28-.74,2.19-1.79,2.58,1.36.34,2.16,1.55,2.16,2.88,0,1.89-1.5,3.25-3.69,3.25h-4.18v-11.94h3.89Zm-.19,5.22c1.33,0,2.12-.79,2.12-1.9s-.83-1.87-2.19-1.87h-1.99v3.77h2.06Zm.24,5.27c1.33,0,2.24-.74,2.24-1.9s-.72-1.95-2.17-1.95h-2.36v3.86h2.29Z"/><path class="cls-2" d="m150.55,95.14h-5.29l-1.26,3.33h-1.77l4.75-11.94h1.9l4.75,11.94h-1.79l-1.3-3.33Zm-4.7-1.53h4.11l-2.07-5.36-2.04,5.36Z"/><path class="cls-2" d="m160.79,93.59h-1.79v4.89h-1.67v-11.94h4.5c2.26,0,3.66,1.58,3.66,3.55,0,1.72-1.1,3.05-2.9,3.39l2.85,5h-1.92l-2.73-4.89Zm.74-1.48c1.35,0,2.26-.79,2.26-2.02s-.91-2.07-2.26-2.07h-2.53v4.09h2.53Z"/></svg>