<?xml version="1.0" encoding="UTF-8"?><svg id="Colour_Box_White_Type" xmlns="http://www.w3.org/2000/svg" viewBox="0 0 226 148"><defs><style>.cls-1{fill:#cd272b;}.cls-1,.cls-2{stroke-width:0px;}.cls-2{fill:#fff;}</style></defs><rect class="cls-1" width="226" height="148"/><path class="cls-2" d="m23.22,62.52v5.63c0,1.33-2.12,1.33-2.12.03v-16.65c0-.61.44-1.02,1.07-1.02h6.87c5.02,0,7.57,2.84,7.57,6.24,0,2.93-1.6,5.05-5.16,5.66l4.7,5.08c1.1,1.1-.49,2.38-1.45,1.39l-5.86-6.35h-5.63Zm0-1.83h5.86c3.8,0,5.45-1.77,5.4-3.95-.03-2.38-2.03-4.29-5.4-4.29h-5.86v8.24Z"/><path class="cls-2" d="m48.77,54.28c3.28.9,5.31,3.57,5.37,7.28v-.03c.06.64-.23,1.33-1.42,1.33h-11.46c.38,2.38,2.41,4.35,5.31,4.35,1.33,0,2.73-.35,3.86-1.22,1.02-.93,2.52.26,1.39,1.42-1.33,1.25-3.28,1.77-5.16,1.74-2.26,0-4.52-.87-5.89-2.58-3.13-4.12-1.77-10.79,3.63-12.3,1.36-.41,2.93-.38,4.35,0h.03Zm-7.6,6.82h10.94c-.2-2.47-1.71-4.35-3.97-4.93h.03c-.96-.26-2.15-.26-3.13.03-2.32.61-3.68,2.55-3.86,4.9Z"/><path class="cls-2" d="m64.43,54.05c1.94,0,3.83.81,4.7,2.35v-5.77c0-1.33,2.12-1.33,2.12,0v17.52c0,.64-.41,1.01-1.07,1.01s-.99-.38-.99-1.01v-1.36c-.99,1.8-3.02,2.55-4.76,2.55-.9,0-1.89-.17-2.78-.55l.03.03c-3.16-1.31-4.76-4.18-4.67-7.54.12-4.12,3.07-7.22,7.43-7.22Zm4.7,8.76v-2.29c0-2.55-1.97-4.35-4.61-4.47-2.06,0-4.12,1.1-4.96,3.1-.23.61-.41,1.39-.44,2.15-.03,1.88.58,3.63,2.15,4.93.84.67,1.89,1.02,2.99,1.1,2.64,0,4.87-1.68,4.87-4.53Z"/><path class="cls-2" d="m89.17,68.29c0,4.21-3.19,6.38-7.16,6.38-2.2,0-3.97-.52-5.54-2-1.16-1.13.44-2.46,1.42-1.51,1.45,1.1,2.49,1.45,4.12,1.45,2.64,0,5.1-1.33,5.1-4.32v-1.57c-1.02,1.83-2.9,2.52-4.64,2.55-1.1.03-2.15-.14-3.13-.55-2.7-1.1-4.35-3.74-4.41-6.67-.09-3.37,1.48-6.24,4.64-7.54.9-.35,1.86-.49,2.73-.49,1.77,0,3.8.67,4.76,2.26v-1.1c0-.64.38-1.04,1.04-1.04s1.07.41,1.07,1.04v13.11Zm-10.01-11.2h.03c-1.6,1.3-2.2,3.05-2.15,4.93.03.75.17,1.54.44,2.15.81,2.03,2.9,3.13,4.96,3.1h-.03c2.61-.12,4.64-2,4.64-4.47v-2.29c0-1.83-.75-3.22-2.47-3.97-1.74-.78-3.83-.67-5.42.55Z"/><path class="cls-2" d="m95.72,62.78c0,2.67,2.15,4.52,4.5,4.52,2.81,0,5.45-2.32,5.45-5.48v-6.73c0-.64.38-1.01,1.04-1.01s1.1.38,1.1,1.01v13c0,1.33-2.09,1.36-2.09-.03v-1.83c-1.04,2.12-3.28,3.05-5.54,3.05-3.37,0-6.58-2.32-6.58-6.5v-7.69c0-.64.38-1.01,1.04-1.01s1.07.38,1.07,1.01v7.69Z"/><path class="cls-2" d="m136.68,60.46c-.06-2.49-2.06-4.29-4.5-4.29-3.05,0-5.45,2.26-5.45,5.6v6.38c0,.64-.44,1.01-1.07,1.01s-1.07-.38-1.07-1.01v-7.19c0-1.65-.67-3.25-2-4.09-.75-.46-1.6-.67-2.49-.67-2.84,0-5.42,2.18-5.42,5.42v6.53c0,1.33-2.12,1.3-2.12,0v-12.97c0-.55.46-1.01,1.04-1.01.64,0,1.02.46,1.02,1.01v2c1.16-2.09,3.22-3.02,5.45-3.02,2.52,0,5.02,1.25,5.89,3.83,1.04-2.58,3.57-3.83,6.15-3.83,3.34,0,6.7,2.23,6.7,6.21v7.77c0,.64-.44,1.01-1.07,1.01s-1.04-.38-1.04-1.01v-7.69Z"/><path class="cls-2" d="m151.81,62.52v5.63c0,1.33-2.12,1.33-2.12.03v-16.65c0-.61.44-1.02,1.07-1.02h6.87c5.02,0,7.57,2.84,7.57,6.24,0,2.93-1.6,5.05-5.16,5.66l4.7,5.08c1.1,1.1-.49,2.38-1.45,1.39l-5.86-6.35h-5.63Zm0-1.83h5.86c3.8,0,5.45-1.77,5.4-3.95-.03-2.38-2.03-4.29-5.4-4.29h-5.86v8.24Z"/><path class="cls-2" d="m170.4,52.04c0,1.31-2.18,1.33-2.18,0v-1.3c0-1.33,2.18-1.33,2.18,0v1.3Zm-2.15,3.13c0-1.25,2.12-1.28,2.12-.03v13.08c0,1.28-2.12,1.25-2.12,0v-13.05Z"/><path class="cls-2" d="m175.85,65.33c.29,1.31,2.55,1.97,4.67,1.97,1.42,0,4.47-.64,4.47-2.64,0-1.86-2.2-1.94-4.55-2.12-3.13-.29-6.5-.55-6.5-4.12,0-3.1,3.54-4.44,6.32-4.44,2.23,0,5.34.38,6.35,2.99.41,1.31-1.6,1.86-1.97.75-.64-1.68-3.07-1.8-4.38-1.8-1.68,0-4.21.72-4.21,2.52s2.15,1.83,4.47,2c3.19.29,6.58.58,6.58,4.21s-4.18,4.55-6.58,4.55-6.12-.61-6.7-3.51c-.35-1.22,1.77-1.83,2.03-.38Z"/><path class="cls-2" d="m199.34,54.28c3.28.9,5.31,3.57,5.37,7.28v-.03c.06.64-.23,1.33-1.42,1.33h-11.46c.38,2.38,2.41,4.35,5.31,4.35,1.33,0,2.73-.35,3.86-1.22,1.02-.93,2.52.26,1.39,1.42-1.33,1.25-3.28,1.77-5.16,1.74-2.26,0-4.52-.87-5.89-2.58-3.13-4.12-1.77-10.79,3.63-12.3,1.36-.41,2.93-.38,4.35,0h.03Zm-7.6,6.82h10.94c-.2-2.47-1.71-4.35-3.97-4.93h.03c-.96-.26-2.15-.26-3.13.03-2.32.61-3.68,2.55-3.86,4.9Z"/><path class="cls-2" d="m71.73,86.28c3,0,6,2.22,6,6.22s-3,6.23-6,6.23-6-2.24-6-6.23,3-6.22,6-6.22Zm0,10.93c2.22,0,4.31-1.6,4.31-4.72s-2.09-4.7-4.31-4.7-4.31,1.58-4.31,4.7,2.09,4.72,4.31,4.72Z"/><path class="cls-2" d="m88.58,95.14h-5.29l-1.26,3.33h-1.77l4.75-11.94h1.9l4.75,11.94h-1.79l-1.3-3.33Zm-4.7-1.53h4.11l-2.07-5.36-2.04,5.36Z"/><path class="cls-2" d="m98.72,93.05l-1.7,1.82v3.6h-1.65v-11.94h1.65v6.15l5.59-6.15h2.17l-4.97,5.32,5.04,6.62h-2.09l-4.04-5.42Z"/><path class="cls-2" d="m116.04,86.53h1.73l-4.6,11.94h-1.63l-4.5-11.94h1.75l3.6,9.82,3.64-9.82Z"/><path class="cls-2" d="m121.48,98.47v-11.94h1.68v11.94h-1.68Z"/><path class="cls-2" d="m128.22,98.47v-11.94h1.65v10.39h5.64v1.55h-7.29Z"/><path class="cls-2" d="m139.47,98.47v-11.94h1.65v10.39h5.64v1.55h-7.29Z"/><path class="cls-2" d="m150.73,98.47v-11.94h7.26v1.53h-5.61v3.67h5.09v1.55h-5.09v3.66h5.61v1.53h-7.26Z"/></svg>