<?xml version="1.0" encoding="UTF-8"?><svg id="Colour_Box_White_Type" xmlns="http://www.w3.org/2000/svg" viewBox="0 0 226 148"><defs><style>.cls-1{fill:#3176b5;}.cls-1,.cls-2{stroke-width:0px;}.cls-2{fill:#fff;}</style></defs><rect class="cls-1" width="226" height="148"/><path class="cls-2" d="m16.73,64.4c.75,2.41,3.97,2.93,6.29,2.93,2.47,0,6.29-.75,6.29-3.68,0-2.52-3.05-2.73-6.24-2.99-4-.32-8.3-.7-8.3-5.02,0-3.83,4.41-5.54,7.95-5.54,3.05,0,6.85.73,8.06,4.03.44,1.16-1.54,1.68-1.97.7-.87-2.21-3.97-2.58-6.06-2.58-1.94,0-5.71.78-5.71,3.42s2.9,2.79,6.27,3.05c3.97.35,8.24.55,8.24,4.9s-4.96,5.8-8.53,5.8c-2.96,0-7.48-1.02-8.44-4.5-.35-1.28,1.91-1.71,2.15-.52Z"/><path class="cls-2" d="m35.05,66.63c-1.31-1.54-1.86-3.39-1.77-5.57.29-3.22,2.18-5.92,5.37-6.82.7-.2,1.48-.26,2.2-.26s1.39.06,2.15.26c3.16.9,5.13,3.57,5.4,6.82.12,2.18-.46,4.03-1.74,5.57-1.42,1.71-3.51,2.61-5.8,2.61s-4.38-.9-5.8-2.61Zm5.77-10.67c-.55,0-1.1.09-1.54.2-2.44.64-3.86,2.9-3.86,5.51,0,1.3.41,2.67,1.28,3.68,1.02,1.22,2.55,1.92,4.15,1.92s3.16-.75,4.18-1.92c.81-.99,1.28-2.38,1.28-3.63,0-2.64-1.42-4.93-3.89-5.57-.46-.12-1.04-.2-1.6-.2Z"/><path class="cls-2" d="m58.23,69.3c-1.94,0-3.83-.78-4.7-2.32v6.24c0,1.33-2.12,1.33-2.12,0v-18.01c0-.64.41-1.02,1.07-1.02s.99.38.99,1.02v1.36c.99-1.8,3.02-2.55,4.76-2.55.9,0,1.89.17,2.78.55l-.03-.03c3.16,1.3,4.76,4.18,4.67,7.54-.12,4.12-3.07,7.22-7.43,7.22Zm-4.7-8.76v2.29c0,2.55,1.97,4.35,4.61,4.47,2.06,0,4.12-1.1,4.96-3.1.23-.61.41-1.39.44-2.15.03-1.89-.58-3.63-2.15-4.93-.84-.67-1.89-1.01-2.99-1.1-2.64,0-4.87,1.68-4.87,4.52Z"/><path class="cls-2" d="m80.47,60.46c0-2.67-2.15-4.52-4.5-4.52-2.81,0-5.45,1.97-5.45,4.96v7.22c0,.64-.38,1.04-1.04,1.04s-1.1-.41-1.1-1.04v-17.38c0-1.25,2.15-1.22,2.15,0v6.09c1.04-2.03,3.31-2.87,5.48-2.87,3.36,0,6.58,2.32,6.58,6.5v7.66c0,.64-.38,1.04-1.04,1.04s-1.07-.41-1.07-1.04v-7.66Z"/><path class="cls-2" d="m87.98,52.04c0,1.31-2.18,1.33-2.18,0v-1.3c0-1.33,2.18-1.33,2.18,0v1.3Zm-2.15,3.13c0-1.25,2.12-1.28,2.12-.03v13.08c0,1.28-2.12,1.25-2.12,0v-13.05Z"/><path class="cls-2" d="m95.32,54.6c.96-.43,2-.58,3.1-.55,1.65.03,3.54.55,4.58,2.26v-1.1c0-.61.38-1.04,1.04-1.04s1.07.43,1.07,1.04v12.88c0,.64-.44,1.04-1.07,1.04s-1.04-.41-1.04-1.04v-1.39c-.84,1.68-2.99,2.64-4.7,2.64-1.39,0-2.96-.38-4.18-1.25-2.2-1.51-3.34-3.97-3.25-6.82.06-2.93,1.68-5.63,4.47-6.7l-.03.03Zm7.69,8.21v-2.29c0-2.87-2-4.35-4.61-4.47-2.06-.03-4.15,1.07-4.96,3.1-.26.61-.41,1.39-.44,2.15-.06,1.88.55,3.63,2.12,4.93.87.67,1.91,1.02,2.99,1.1,2.67,0,4.76-1.62,4.9-4.53Z"/><path class="cls-2" d="m119.85,65.79l6.29-12.91c.32-.84,1.57-.84,2.03-.03l6.32,12.94,6.47-14.97c.46-1.22,2.55-.73,2.12.81l-7.6,17.08c-.41.87-1.54.93-1.97.03l-6.35-13.11-6.38,13.11c-.35.73-1.65.9-2.03-.03l-7.54-17.08c-.46-1.31,1.65-2.06,2.15-.81l6.5,14.97Z"/><path class="cls-2" d="m146.96,54.6c.96-.43,2-.58,3.1-.55,1.65.03,3.54.55,4.58,2.26v-1.1c0-.61.38-1.04,1.04-1.04s1.07.43,1.07,1.04v12.88c0,.64-.44,1.04-1.07,1.04s-1.04-.41-1.04-1.04v-1.39c-.84,1.68-2.99,2.64-4.7,2.64-1.39,0-2.96-.38-4.18-1.25-2.2-1.51-3.34-3.97-3.25-6.82.06-2.93,1.68-5.63,4.47-6.7l-.03.03Zm7.69,8.21v-2.29c0-2.87-2-4.35-4.61-4.47-2.06-.03-4.15,1.07-4.96,3.1-.26.61-.41,1.39-.44,2.15-.06,1.88.55,3.63,2.12,4.93.87.67,1.91,1.02,2.99,1.1,2.67,0,4.76-1.62,4.9-4.53Z"/><path class="cls-2" d="m167.24,54.22c1.31,0,1.31,1.83,0,1.83h-3.16v7.83c0,1.65.26,3.39,2.23,3.39.44,0,1.07-.15,1.36-.32,1.22-.7,2.18,1.01.87,1.74-.73.41-1.45.49-2.23.49-3.48,0-4.32-2.55-4.32-5.31v-7.83h-1.91c-1.36,0-1.28-1.83,0-1.83h1.91v-3.36c0-1.39,2.09-1.36,2.09,0v3.36h3.16Z"/><path class="cls-2" d="m179.85,54.28c3.28.9,5.31,3.57,5.37,7.28v-.03c.06.64-.23,1.33-1.42,1.33h-11.46c.38,2.38,2.41,4.35,5.31,4.35,1.33,0,2.73-.35,3.86-1.22,1.02-.93,2.52.26,1.39,1.42-1.33,1.25-3.28,1.77-5.16,1.74-2.26,0-4.53-.87-5.89-2.58-3.13-4.12-1.77-10.79,3.63-12.3,1.36-.41,2.93-.38,4.35,0h.03Zm-7.6,6.82h10.94c-.2-2.47-1.71-4.35-3.97-4.93h.03c-.96-.26-2.15-.26-3.13.03-2.32.61-3.68,2.55-3.86,4.9Z"/><path class="cls-2" d="m190.46,56.63c.93-1.94,2.67-2.46,4.32-2.46.67,0,1.1.35,1.1,1.01s-.44.99-1.1.99c-2.99,0-4.26,2.38-4.26,5.31v6.56c0,.61-.49,1.01-1.04,1.01-.64,0-1.07-.41-1.07-1.01v-12.85c0-1.28,2.06-1.39,2.06,0v1.45Z"/><path class="cls-2" d="m198.76,65.33c.29,1.31,2.55,1.97,4.67,1.97,1.42,0,4.47-.64,4.47-2.64,0-1.86-2.2-1.94-4.55-2.12-3.13-.29-6.5-.55-6.5-4.12,0-3.1,3.54-4.44,6.32-4.44,2.23,0,5.34.38,6.35,2.99.41,1.31-1.6,1.86-1.97.75-.64-1.68-3.07-1.8-4.38-1.8-1.68,0-4.21.72-4.21,2.52s2.15,1.83,4.47,2c3.19.29,6.58.58,6.58,4.21s-4.18,4.55-6.58,4.55-6.12-.61-6.7-3.51c-.35-1.22,1.77-1.83,2.03-.38Z"/><path class="cls-2" d="m60.23,92.49c0-3.99,2.96-6.22,5.93-6.22,2.73,0,4.65,1.48,5.26,3.79l-1.53.54c-.45-1.8-1.77-2.81-3.72-2.81-2.17,0-4.25,1.58-4.25,4.7s2.07,4.72,4.25,4.72c2.04,0,3.32-1.23,3.81-2.86l1.47.54c-.64,2.24-2.53,3.84-5.27,3.84-3.08,0-5.93-2.24-5.93-6.23Z"/><path class="cls-2" d="m83.39,98.47v-5.31h-6.1v5.31h-1.65v-11.94h1.65v5.1h6.1v-5.1h1.65v11.94h-1.65Z"/><path class="cls-2" d="m90.1,98.47v-11.94h1.68v11.94h-1.68Z"/><path class="cls-2" d="m102.97,89.76c-.13-.86-.86-2.04-2.53-2.04-1.35,0-2.31.88-2.31,1.99,0,.86.52,1.52,1.53,1.74l1.79.39c1.99.44,3.1,1.69,3.1,3.35,0,1.85-1.58,3.54-4.13,3.54-2.88,0-4.25-1.85-4.46-3.55l1.58-.51c.12,1.33,1.06,2.56,2.86,2.56,1.65,0,2.46-.86,2.46-1.9,0-.86-.59-1.6-1.79-1.85l-1.7-.37c-1.7-.37-2.91-1.48-2.91-3.27s1.73-3.55,3.94-3.55c2.7,0,3.77,1.67,4.04,2.96l-1.48.52Z"/><path class="cls-2" d="m116.6,98.47v-5.31h-6.1v5.31h-1.65v-11.94h1.65v5.1h6.1v-5.1h1.65v11.94h-1.65Z"/><path class="cls-2" d="m128.54,86.28c3,0,6,2.22,6,6.22s-3,6.23-6,6.23-6-2.24-6-6.23,3-6.22,6-6.22Zm0,10.93c2.22,0,4.31-1.6,4.31-4.72s-2.09-4.7-4.31-4.7-4.31,1.58-4.31,4.7,2.09,4.72,4.31,4.72Z"/><path class="cls-2" d="m138.83,98.47v-11.94h1.65v10.39h5.64v1.55h-7.29Z"/><path class="cls-2" d="m161.36,98.47v-9.3l-4.08,9.3h-1.52l-4.04-9.3v9.3h-1.63v-11.94h2.24l4.21,9.72,4.25-9.72h2.21v11.94h-1.63Z"/></svg>