<?xml version="1.0" encoding="UTF-8"?><svg id="Colour_Box_White_Type" xmlns="http://www.w3.org/2000/svg" viewBox="0 0 226 148"><defs><style>.cls-1{fill:#b96f54;}.cls-1,.cls-2{stroke-width:0px;}.cls-2{fill:#fff;}</style></defs><rect class="cls-1" width="226" height="148"/><path class="cls-2" d="m46.7,50.51c1.42,0,1.42,2,0,2h-6.47c0,5.22.03,10.53.03,15.75,0,.73-.61,1.07-1.1,1.07s-1.04-.35-1.04-1.07v-15.75h-6.44c-1.36,0-1.36-2,0-2h15.03Z"/><path class="cls-2" d="m62.68,60.46c0-2.67-2.15-4.52-4.5-4.52-2.81,0-5.45,1.97-5.45,4.96v7.22c0,.64-.38,1.04-1.04,1.04s-1.1-.41-1.1-1.04v-17.38c0-1.25,2.15-1.22,2.15,0v6.09c1.04-2.03,3.31-2.87,5.48-2.87,3.36,0,6.58,2.32,6.58,6.5v7.66c0,.64-.38,1.04-1.04,1.04s-1.07-.41-1.07-1.04v-7.66Z"/><path class="cls-2" d="m78.74,54.28c3.28.9,5.31,3.57,5.37,7.28v-.03c.06.64-.23,1.33-1.42,1.33h-11.46c.38,2.38,2.41,4.35,5.31,4.35,1.33,0,2.73-.35,3.86-1.22,1.01-.93,2.52.26,1.39,1.42-1.33,1.25-3.28,1.77-5.16,1.74-2.26,0-4.53-.87-5.89-2.58-3.13-4.12-1.77-10.79,3.62-12.3,1.36-.41,2.93-.38,4.35,0h.03Zm-7.6,6.82h10.94c-.2-2.47-1.71-4.35-3.97-4.93h.03c-.96-.26-2.15-.26-3.13.03-2.32.61-3.68,2.55-3.86,4.9Z"/><path class="cls-2" d="m112.53,65.76c-1.71,2.26-4.58,3.51-7.4,3.48-4.99-.03-9.28-4.18-9.17-9.66,0-4.41,3.31-8.44,7.75-9.28.43-.06.99-.09,1.51-.09,2.52,0,5.22.87,6.82,2.73.87,1.02-.61,2.41-1.51,1.36-1.62-1.88-4.32-2.55-6.5-2-3.19.75-5.98,3.57-5.98,7.37.06,4.09,3.37,7.51,7.11,7.6,2.15.03,4.38-.9,5.66-2.61v-3.86h-5.22c-1.36,0-1.22-1.92,0-1.92h6.15c.84,0,1.1.44,1.1,1.07v4.84c0,.32-.06.7-.32.96Z"/><path class="cls-2" d="m119.89,56.63c.93-1.94,2.67-2.46,4.32-2.46.67,0,1.1.35,1.1,1.01s-.43.99-1.1.99c-2.99,0-4.26,2.38-4.26,5.31v6.56c0,.61-.49,1.01-1.04,1.01-.64,0-1.07-.41-1.07-1.01v-12.85c0-1.28,2.06-1.39,2.06,0v1.45Z"/><path class="cls-2" d="m128.85,66.63c-1.31-1.54-1.86-3.39-1.77-5.57.29-3.22,2.18-5.92,5.37-6.82.7-.2,1.48-.26,2.2-.26s1.39.06,2.15.26c3.16.9,5.13,3.57,5.4,6.82.12,2.18-.46,4.03-1.74,5.57-1.42,1.71-3.51,2.61-5.8,2.61s-4.38-.9-5.8-2.61Zm5.77-10.67c-.55,0-1.1.09-1.54.2-2.44.64-3.86,2.9-3.86,5.51,0,1.3.41,2.67,1.28,3.68,1.01,1.22,2.55,1.92,4.15,1.92s3.16-.75,4.18-1.92c.81-.99,1.28-2.38,1.28-3.63,0-2.64-1.42-4.93-3.89-5.57-.46-.12-1.04-.2-1.6-.2Z"/><path class="cls-2" d="m144.14,55.41c-.43-1.22,1.48-1.91,2-.78,2,4,3.65,7.28,5.69,11.31l5.74-11.37c.43-1.07,2.41-.46,1.89.72l-6.7,13.31c-.38.75-1.36.99-1.91.03l-6.7-13.23Z"/><path class="cls-2" d="m171.17,54.28c3.28.9,5.31,3.57,5.37,7.28v-.03c.06.64-.23,1.33-1.42,1.33h-11.46c.38,2.38,2.41,4.35,5.31,4.35,1.33,0,2.73-.35,3.86-1.22,1.01-.93,2.52.26,1.39,1.42-1.33,1.25-3.28,1.77-5.16,1.74-2.26,0-4.53-.87-5.89-2.58-3.13-4.12-1.77-10.79,3.63-12.3,1.36-.41,2.93-.38,4.35,0h.03Zm-7.6,6.82h10.94c-.2-2.47-1.71-4.35-3.97-4.93h.03c-.96-.26-2.15-.26-3.13.03-2.32.61-3.68,2.55-3.86,4.9Z"/><path class="cls-2" d="m181.72,65.33c.29,1.31,2.55,1.97,4.67,1.97,1.42,0,4.47-.64,4.47-2.64,0-1.86-2.21-1.94-4.55-2.12-3.13-.29-6.5-.55-6.5-4.12,0-3.1,3.54-4.44,6.32-4.44,2.23,0,5.34.38,6.35,2.99.41,1.31-1.6,1.86-1.97.75-.64-1.68-3.08-1.8-4.38-1.8-1.68,0-4.21.72-4.21,2.52s2.15,1.83,4.47,2c3.19.29,6.58.58,6.58,4.21s-4.18,4.55-6.58,4.55-6.12-.61-6.7-3.51c-.35-1.22,1.77-1.83,2.03-.38Z"/><path class="cls-2" d="m77.43,95.14h-5.29l-1.26,3.33h-1.77l4.75-11.94h1.9l4.75,11.94h-1.79l-1.3-3.33Zm-4.7-1.53h4.11l-2.07-5.36-2.04,5.36Z"/><path class="cls-2" d="m83.8,94.39v-7.87h1.63v7.82c0,1.82.99,2.85,2.66,2.85s2.64-1.03,2.64-2.85v-7.82h1.65v7.87c0,2.81-1.87,4.33-4.3,4.33s-4.29-1.52-4.29-4.33Z"/><path class="cls-2" d="m103.41,89.76c-.13-.86-.86-2.04-2.53-2.04-1.35,0-2.31.88-2.31,1.99,0,.86.52,1.52,1.53,1.74l1.79.39c1.99.44,3.1,1.69,3.1,3.35,0,1.85-1.58,3.54-4.13,3.54-2.88,0-4.25-1.85-4.46-3.55l1.58-.51c.12,1.33,1.06,2.56,2.86,2.56,1.65,0,2.46-.86,2.46-1.9,0-.86-.59-1.6-1.79-1.85l-1.7-.37c-1.7-.37-2.91-1.48-2.91-3.27s1.74-3.55,3.94-3.55c2.7,0,3.77,1.67,4.04,2.96l-1.48.52Z"/><path class="cls-2" d="m113.5,88.06v10.41h-1.65v-10.41h-3.99v-1.53h9.64v1.53h-3.99Z"/><path class="cls-2" d="m124.65,93.59h-1.79v4.89h-1.67v-11.94h4.5c2.26,0,3.66,1.58,3.66,3.55,0,1.72-1.09,3.05-2.9,3.39l2.85,5h-1.92l-2.73-4.89Zm.74-1.48c1.35,0,2.26-.79,2.26-2.02s-.91-2.07-2.26-2.07h-2.53v4.09h2.53Z"/><path class="cls-2" d="m140.54,95.14h-5.29l-1.26,3.33h-1.77l4.75-11.94h1.9l4.75,11.94h-1.79l-1.3-3.33Zm-4.7-1.53h4.11l-2.07-5.36-2.04,5.36Z"/><path class="cls-2" d="m147.33,98.47v-11.94h1.65v10.39h5.64v1.55h-7.29Z"/></svg>