<svg width="211" height="90" viewBox="0 0 211 90" fill="none" xmlns="http://www.w3.org/2000/svg">
    <rect width="211" height="90" fill="#FFCB05"/>
    <path fill-rule="evenodd" clip-rule="evenodd" d="M48.8307 32.5772C47.4046 29.8597 44.4814 28 41.1091 28C37.7604 28 34.853 29.8369 33.419 32.524L19 60.8371H28.8727L41.1091 36.9721L54.0389 60.8371H64.3291L48.8307 32.5772Z" fill="black" stroke="black" stroke-width="0.1708"/>
    <path fill-rule="evenodd" clip-rule="evenodd" d="M83.7989 52.4269H71.98V28.4253H62.3438V53.6641C62.3438 57.6265 65.6767 60.8449 69.7896 60.8449H83.7989V52.4269Z" fill="black" stroke="black" stroke-width="0.1708"/>
    <path fill-rule="evenodd" clip-rule="evenodd" d="M130.592 32.5772C129.166 29.8597 126.243 28 122.87 28C119.522 28 116.614 29.8369 115.18 32.524L105.047 52.4267H94.7808V28.4251H85.1445V53.6639C85.1445 57.6262 88.4774 60.8447 92.5904 60.8447H100.761H110.634L122.87 36.9797L135.8 60.8447H146.09L130.592 32.5772Z" fill="black" stroke="black" stroke-width="0.1708"/>
    <path fill-rule="evenodd" clip-rule="evenodd" d="M112.582 60.8374H133.297L122.872 40.8589L112.582 60.8374Z" fill="#ED1C24"/>
    <path fill-rule="evenodd" clip-rule="evenodd" d="M30.9844 60.8374H51.7067L41.2746 40.8589L30.9844 60.8374Z" fill="#ED1C24"/>
    <path fill-rule="evenodd" clip-rule="evenodd" d="M162.434 32.5774C161.04 30.0117 158.243 28.2583 155.028 28.2583C150.411 28.2583 146.66 31.8714 146.66 36.3195V60.8373H155.966V39.5835L165.287 58.3931C165.948 59.9416 167.532 61.0346 169.384 61.0346C171.22 61.0346 172.788 59.9643 173.465 58.4386L183.432 39.5152V60.8373H192.178V36.3195C192.178 31.8638 188.436 28.2583 183.811 28.2583C180.564 28.2583 177.744 30.0421 176.357 32.6609L169.376 47.5689L162.426 32.3496" fill="black"/>
    <path d="M162.434 32.5774C161.04 30.0117 158.243 28.2583 155.028 28.2583C150.411 28.2583 146.66 31.8714 146.66 36.3195V60.8373H155.966V39.5835L165.287 58.3931C165.948 59.9416 167.532 61.0346 169.384 61.0346C171.22 61.0346 172.788 59.9643 173.465 58.4386L183.432 39.5152V60.8373H192.178V36.3195C192.178 31.8638 188.436 28.2583 183.811 28.2583C180.564 28.2583 177.744 30.0421 176.357 32.6609L169.376 47.5689L162.426 32.3496" stroke="black" stroke-width="0.1708"/>
    </svg>
    