<svg width="209" height="56" viewBox="0 0 209 56" fill="none" xmlns="http://www.w3.org/2000/svg">
<path fill-rule="evenodd" clip-rule="evenodd" d="M36.0431 6.1272C34.3351 2.8727 30.8342 0.645399 26.7953 0.645399C22.7848 0.645399 19.3027 2.8454 17.5853 6.0636L0.316406 39.9727H12.1404L26.7953 11.3908L42.281 39.9727H54.605L36.0431 6.1272Z" fill="black" stroke="black" stroke-width="0.1708"/>
<path fill-rule="evenodd" clip-rule="evenodd" d="M77.922 29.9001H63.767V1.1547H52.227V31.3819C52.227 36.1274 56.218 39.9819 61.144 39.9819H77.922V29.9001Z" fill="black" stroke="black" stroke-width="0.1708"/>
<path fill-rule="evenodd" clip-rule="evenodd" d="M133.965 6.1272C132.257 2.8727 128.756 0.645399 124.717 0.645399C120.707 0.645399 117.225 2.8454 115.507 6.0636L103.372 29.8999H91.076V1.1545H79.535V31.3818C79.535 36.1272 83.527 39.9818 88.453 39.9818H98.238H110.062L124.717 11.3999L140.203 39.9818H152.527L133.965 6.1272Z" fill="black" stroke="black" stroke-width="0.1708"/>
<path fill-rule="evenodd" clip-rule="evenodd" d="M112.394 39.9728H137.202L124.718 16.0455L112.394 39.9728Z" fill="#ED1C24"/>
<path fill-rule="evenodd" clip-rule="evenodd" d="M14.668 39.9728H39.4861L26.9921 16.0455L14.668 39.9728Z" fill="#ED1C24"/>
<path fill-rule="evenodd" clip-rule="evenodd" d="M172.099 6.1272C170.429 3.0545 167.079 0.9545 163.229 0.9545C157.699 0.9545 153.207 5.2817 153.207 10.609V39.9726H164.352V14.5181L175.515 37.0454C176.308 38.8999 178.204 40.209 180.422 40.209C182.621 40.209 184.499 38.9272 185.31 37.0999L197.247 14.4363V39.9726H207.722V10.609C207.722 5.2726 203.24 0.9545 197.7 0.9545C193.812 0.9545 190.434 3.0908 188.773 6.2272L180.413 24.0817L172.09 5.8545" fill="black"/>
<path d="M172.099 6.1272C170.429 3.0545 167.079 0.9545 163.229 0.9545C157.699 0.9545 153.207 5.2817 153.207 10.609V39.9726H164.352V14.5181L175.515 37.0454C176.308 38.8999 178.204 40.209 180.422 40.209C182.621 40.209 184.499 38.9272 185.31 37.0999L197.247 14.4363V39.9726H207.722V10.609C207.722 5.2726 203.24 0.9545 197.7 0.9545C193.812 0.9545 190.434 3.0908 188.773 6.2272L180.413 24.0817L172.09 5.8545" stroke="black" stroke-width="0.1708"/>
<path d="M1.49609 45.6364H4.61009C6.06339 45.6364 7.28069 45.7273 8.12049 46.7C8.64899 47.3182 8.73389 48.0182 8.73389 48.5182C8.73389 49.6545 8.24319 50.6091 7.45049 51.1091C6.70509 51.5636 5.68589 51.5636 5.15749 51.5636H3.68539V55.3454H1.49609V45.6364ZM3.63819 50.0182H4.50629C5.20459 50.0182 6.50689 50.0182 6.50689 48.5363C6.50689 47.2182 5.3462 47.2182 4.7328 47.2182H3.63819V50.0182Z" fill="black"/>
<path d="M15.707 45.6092H19.5854C20.7084 45.6001 21.8408 45.6001 22.6523 46.2729C23.2846 46.8001 23.5299 47.5092 23.5299 48.1456C23.5299 49.9638 21.9068 50.391 21.4161 50.5274C22.9449 50.6638 23.0487 51.5001 23.2374 52.7638C23.3884 53.9092 23.4733 54.3819 23.5488 54.6456C23.662 55.0728 23.747 55.1819 23.8602 55.3456H21.4728C21.3784 54.8092 21.067 52.3456 20.9254 51.9638C20.7273 51.4092 20.1988 51.4092 19.8308 51.4092H17.9152V55.3456H15.707V45.6092ZM17.8397 49.8638H19.5854C19.8402 49.8638 20.3404 49.8638 20.6895 49.591C20.8405 49.4819 21.2463 49.1456 21.2463 48.4638C21.2463 47.8001 20.9066 47.491 20.7178 47.3729C20.3781 47.1456 19.9723 47.1456 19.2929 47.1456H17.8397V49.8638Z" fill="black"/>
<path d="M35.7885 45.4091C36.8643 45.4091 38.3458 45.6545 39.3367 46.7272C40.412 47.9091 40.62 49.4363 40.62 50.3909C40.62 51.8091 40.177 53.3182 39.3461 54.2C38.2232 55.4091 36.5906 55.5909 35.7508 55.5909C34.4202 55.5909 33.0897 55.1909 32.1743 54.2545C31.0703 53.1272 30.9287 51.5091 30.9287 50.6182C30.9381 48.0363 32.146 45.4091 35.7885 45.4091ZM33.9578 53.2727C34.2693 53.6818 34.7788 54.0545 35.7885 54.0545C36.6661 54.0545 37.2701 53.7545 37.6758 53.1545C38.0156 52.6727 38.3647 51.9182 38.3647 50.3636C38.3647 49.8909 38.327 49.2181 38.1099 48.6272C37.6947 47.4272 36.836 46.9 35.8074 46.9C34.9959 46.9 34.3542 47.2272 33.9484 47.7181C33.3728 48.3909 33.2029 49.4454 33.2029 50.5454C33.2029 51.4818 33.3539 52.5182 33.9578 53.2727Z" fill="black"/>
<path d="M48.424 45.6364H51.538C52.991 45.6364 54.208 45.7273 55.048 46.7C55.576 47.3182 55.661 48.0182 55.661 48.5182C55.661 49.6545 55.171 50.6091 54.378 51.1091C53.632 51.5636 52.613 51.5636 52.085 51.5636H50.613V55.3454H48.414V45.6364H48.424ZM50.566 50.0182H51.434C52.132 50.0182 53.434 50.0182 53.434 48.5363C53.434 47.2182 52.274 47.2182 51.66 47.2182H50.566V50.0182Z" fill="black"/>
<path d="M63.381 45.6091H70.147V47.2H65.541V49.5182H69.845V51.1091H65.541V53.7364H70.298V55.3546H63.371V45.6091H63.381Z" fill="black"/>
<path d="M78.026 45.6092H81.905C83.028 45.6001 84.16 45.6001 84.972 46.2729C85.604 46.8001 85.849 47.5092 85.849 48.1456C85.849 49.9638 84.226 50.391 83.735 50.5274C85.264 50.6638 85.368 51.5001 85.557 52.7638C85.708 53.9092 85.793 54.3819 85.868 54.6456C85.981 55.0728 86.066 55.1819 86.18 55.3456H83.792C83.698 54.8092 83.386 52.3456 83.245 51.9638C83.047 51.4092 82.518 51.4092 82.15 51.4092H80.244V55.3456H78.036V45.6092H78.026ZM80.159 49.8638H81.905C82.16 49.8638 82.66 49.8638 83.009 49.591C83.16 49.4819 83.566 49.1456 83.566 48.4638C83.566 47.8001 83.226 47.491 83.037 47.3729C82.697 47.1456 82.292 47.1456 81.612 47.1456H80.159V49.8638Z" fill="black"/>
<path d="M95.73 47.2273H92.72V45.6091H100.911V47.2273H97.9V55.3546H95.721V47.2273H95.73Z" fill="black"/>
<path d="M109.837 45.6545L111.923 50.0909L114.046 45.6545H116.273L112.857 51.8091V55.3545H110.715V51.7818L107.299 45.6545H109.837Z" fill="black"/>
<path d="M140.628 48.6C140.61 48.3455 140.6 47.9909 140.345 47.6182C139.93 46.9727 139.128 46.8636 138.656 46.8636C136.193 46.8636 135.703 49.0727 135.703 50.5636C135.703 51.2273 135.797 52.4091 136.542 53.1818C137.043 53.7182 137.722 54.0182 138.92 54.0182C139.968 54.0182 140.336 53.9 140.572 53.8273V51.7818H138.618V50.1636H142.742V55.0273C142.11 55.2273 141.081 55.5636 139.053 55.5636C136.741 55.5636 135.552 55.0273 134.759 54.2727C133.627 53.2091 133.419 51.6545 133.419 50.6364C133.419 47.1909 135.655 45.3455 138.722 45.3455C140.025 45.3455 141.364 45.7 142.167 46.5727C142.837 47.3182 142.884 48.0818 142.893 48.6091H140.628V48.6Z" fill="black"/>
<path d="M150.886 45.6092H154.765C155.888 45.6001 157.02 45.6001 157.822 46.2729C158.454 46.8001 158.7 47.5092 158.7 48.1456C158.7 49.9638 157.077 50.391 156.586 50.5274C158.115 50.6638 158.219 51.5001 158.398 52.7638C158.549 53.9092 158.634 54.3819 158.709 54.6456C158.823 55.0728 158.907 55.1819 159.021 55.3456H156.633C156.539 54.8092 156.227 52.3456 156.086 51.9638C155.888 51.4092 155.359 51.4092 154.991 51.4092H153.085V55.3456H150.877V45.6092H150.886ZM153.028 49.8638H154.774C155.029 49.8638 155.529 49.8638 155.878 49.591C156.029 49.4819 156.435 49.1456 156.435 48.4638C156.435 47.8001 156.105 47.491 155.907 47.3729C155.567 47.1456 155.161 47.1456 154.482 47.1456H153.028V49.8638Z" fill="black"/>
<path d="M170.967 45.4091C172.042 45.4091 173.524 45.6545 174.524 46.7272C175.6 47.9091 175.807 49.4363 175.807 50.3909C175.807 51.8091 175.364 53.3182 174.534 54.2C173.411 55.4091 171.778 55.5909 170.938 55.5909C169.608 55.5909 168.277 55.1909 167.362 54.2545C166.258 53.1272 166.116 51.5091 166.116 50.6182C166.116 48.0363 167.334 45.4091 170.967 45.4091ZM169.136 53.2727C169.438 53.6818 169.957 54.0545 170.967 54.0545C171.854 54.0545 172.448 53.7545 172.854 53.1545C173.194 52.6727 173.543 51.9182 173.543 50.3636C173.543 49.8909 173.505 49.2181 173.288 48.6272C172.873 47.4272 172.014 46.9 170.976 46.9C170.164 46.9 169.523 47.2272 169.117 47.7181C168.541 48.3909 168.372 49.4454 168.372 50.5454C168.381 51.4818 168.541 52.5182 169.136 53.2727Z" fill="black"/>
<path d="M185.876 45.6364V51.5636C185.876 52.6273 185.961 53.9636 188.075 53.9636C188.424 53.9636 189.472 53.9545 190.029 53.1182C190.236 52.8182 190.349 52.4454 190.349 51.4636V45.6454H192.463V51.7182C192.463 54.6182 190.076 55.5454 188.028 55.5454C187.018 55.5454 185.178 55.3273 184.225 53.8636C183.734 53.1182 183.706 52.3727 183.706 51.4636V45.6454H185.876V45.6364Z" fill="black"/>
<path d="M200.777 45.6364H203.891C205.344 45.6364 206.562 45.7273 207.401 46.7C207.93 47.3182 208.015 48.0182 208.015 48.5182C208.015 49.6545 207.524 50.6091 206.731 51.1091C205.986 51.5636 204.967 51.5636 204.438 51.5636H202.966V55.3454H200.768V45.6364H200.777ZM202.919 50.0182H203.787C204.486 50.0182 205.788 50.0182 205.788 48.5363C205.788 47.2182 204.627 47.2182 204.014 47.2182H202.919V50.0182Z" fill="black"/>
</svg>
