<?xml version="1.0" encoding="UTF-8"?>
<svg xmlns="http://www.w3.org/2000/svg" width="56" height="56" viewBox="0 0 56 56" fill="none">
  <path d="M22.5 7C23.5 6.83333 25.6 6.5 26 6.5V35.5H22.5L11.5 41.5L9 42H7C7.16667 41.5 7.6 40.5 8 40.5C8.4 40.5 7.16667 39.5 6.5 39L1.5 28V24.5C2 24.1667 3 23.4 3 23C3 22.6 7.66667 21.1667 10 20.5L11.5 18L12.5 15.5L17 10L20 11.5L21.5 11L22.5 7Z" fill="#FFCB05"></path>
  <mask id="path-2-outside-1_4361_69160" maskUnits="userSpaceOnUse" x="0" y="3" width="56" height="51" fill="black">
    <rect fill="white" y="3" width="56" height="51"></rect>
    <path fill-rule="evenodd" clip-rule="evenodd" d="M44.4245 12.3072C44.8087 13.8536 45.1977 15.4191 45.5181 15.7753C45.5851 15.8498 45.8032 16.0397 46.1303 16.3239C48.2408 18.1582 54.8897 23.9368 54.7928 28.2161C54.8256 32.8585 53.1071 35.9037 51.6764 38.4391C50.6764 40.211 49.8169 41.734 49.7942 43.3791C49.7587 44.2981 49.1833 44.3847 48.2398 44.5267C47.7009 44.6078 47.0419 44.7069 46.2949 44.9896C45.9617 45.1008 45.6839 45.1562 45.4619 45.1562C44.8572 45.1562 44.4829 44.8434 44.1419 44.5583C43.8566 44.3198 43.5946 44.1008 43.2404 44.1008C43.1292 44.1008 43.0184 44.1008 42.9072 44.1562C42.6103 44.2751 42.3205 44.4786 42.0175 44.6913C41.4705 45.0753 40.8809 45.4893 40.1301 45.4893C39.5192 45.4893 38.7974 45.2115 37.9086 44.4339C34.1774 41.2526 34.1402 39.9875 34.1241 39.4409C34.1175 39.2145 34.1144 39.1113 33.8541 39.0463H33.6321C33.2987 39.0463 33.0209 39.2546 32.7431 39.4629C32.4654 39.6711 32.1877 39.8793 31.8546 39.8793C31.8269 39.8793 31.7852 39.8655 31.7436 39.8516C31.7019 39.8378 31.6603 39.8239 31.6326 39.8239C31.2774 39.7291 30.6194 39.1298 29.8609 38.4388C28.84 37.5089 27.637 36.413 26.7448 36.158C26.6579 36.1291 26.571 36.0992 26.4835 36.0691C25.8996 35.8683 25.2886 35.6582 24.4674 35.6582C23.1902 35.6582 21.3572 36.2138 18.0803 38.2134C16.9436 38.9254 15.9473 39.5728 15.0612 40.1486C12.0071 42.1333 10.2613 43.2678 8.58235 43.2678C8.30686 43.2678 8.03098 43.2128 7.75509 43.1578L7.74937 43.1566C6.33497 42.8673 6.4463 42.1499 6.57557 41.3169C6.66963 40.7108 6.77319 40.0435 6.30537 39.4353C5.19462 37.9912 -0.470787 28.8824 1.36211 23.9945C2.00435 22.3569 4.20608 21.7033 6.23918 21.0997C7.72259 20.6593 9.11624 20.2456 9.74889 19.4957C11.266 17.6941 11.6601 16.7727 12.0711 15.8118C12.6232 14.5212 13.2057 13.1594 16.5805 9.49811C16.7471 9.33151 16.9137 9.27611 17.0803 9.27611C17.5752 9.27611 18.2229 9.70351 18.8391 10.1102C19.3984 10.4793 19.9318 10.8313 20.3017 10.8313C20.4129 10.8313 20.5237 10.7759 20.6349 10.6647C21.0425 10.1211 21.3671 9.14126 21.6593 8.2588C21.8449 7.69845 22.0175 7.17736 22.1901 6.83218C22.4678 6.27699 25.5224 5.9992 28.0775 5.9992C29.4661 5.9992 30.7438 6.1104 31.2436 6.27699C31.9099 6.49936 31.1878 8.66551 30.1882 10.3872C28.9662 12.4976 35.298 13.8307 36.9644 13.8307C37.07 13.8307 37.1534 13.8085 37.2144 13.7922C37.2496 13.7828 37.2773 13.7753 37.2976 13.7753C38.539 13.3026 38.8682 10.5655 39.1639 8.10742C39.424 5.94578 39.658 4 40.4637 4H40.6303C42.1044 4.4067 43.0666 7.5573 43.6451 9.45153C43.6988 9.62731 43.7492 9.79227 43.7964 9.94322C43.9956 10.5813 44.2093 11.4413 44.4245 12.3072ZM48.4918 43.4932C48.6029 43.4784 48.7068 43.4646 48.795 43.4353C48.795 41.4915 49.7944 39.7693 50.8502 37.9917L50.9125 37.8795C52.2865 35.4071 53.8492 32.5949 53.8492 28.3273C53.8492 25.7724 51.0167 21.9954 45.4625 17.1633C45.0181 16.8301 44.8515 16.6635 44.7403 16.5523C44.2959 15.9967 44.0182 14.9967 43.4072 12.6086C43.3037 12.2202 43.2001 11.8196 43.1021 11.4408C42.9899 11.0071 42.8851 10.6019 42.7962 10.2758L42.685 9.83143C41.9632 7.49866 41.3522 5.99894 40.7967 5.38795C40.6301 6.1098 40.4635 7.33174 40.3523 8.22051C40.338 8.32625 40.3239 8.43213 40.3097 8.53804C39.9368 11.3253 39.561 14.1344 37.7418 14.8301C37.5194 14.8859 37.2974 14.9413 37.0196 14.9413C35.9089 14.9413 30.5213 14.2191 29.2439 11.9976C28.8549 11.3309 28.8549 10.5533 29.2439 9.88689C29.8549 8.83158 30.2435 7.83198 30.3546 7.2764C29.8549 7.22061 29.0773 7.16521 28.1332 7.16521C25.6339 7.16521 23.7455 7.38759 23.1345 7.60959C23.117 7.65346 23.0981 7.7001 23.0782 7.74906C22.9721 8.01015 22.8392 8.33743 22.7456 8.665C22.7256 8.72484 22.7056 8.78488 22.6856 8.84503C22.3715 9.78988 22.0489 10.7602 21.579 11.3867C21.3012 11.7757 20.8568 11.9977 20.357 11.9977C19.7387 11.9977 19.1203 11.615 18.4573 11.2048C18.4059 11.1729 18.3541 11.1409 18.3021 11.1089C18.2323 11.0671 18.1486 11.0148 18.058 10.9581C17.7874 10.789 17.4547 10.5812 17.2467 10.4979C14.1364 13.886 13.5808 15.1634 13.081 16.3299C12.692 17.3299 12.2476 18.3295 10.6371 20.2736C9.82718 21.2458 8.33486 21.6929 6.72131 22.1762C6.67516 22.1901 6.6289 22.2039 6.58256 22.2178C4.80501 22.7176 2.86128 23.3286 2.41689 24.4393C0.91755 28.4949 5.80497 36.8814 7.35976 38.8813C8.13734 39.8255 7.97074 40.8808 7.85955 41.5472C7.85955 41.6389 7.84277 41.7474 7.82768 41.8449C7.81535 41.9246 7.80415 41.997 7.80415 42.047C7.83201 42.047 7.87369 42.0609 7.9361 42.0818C7.99864 42.1026 8.08201 42.1305 8.19313 42.1582C8.35973 42.2136 8.58212 42.2136 8.74871 42.2136C9.97223 42.2136 11.5015 41.2453 14.02 39.6507C14.1308 39.5805 14.2436 39.5091 14.3584 39.4365C14.82 39.1545 15.2934 38.8488 15.7949 38.5248C16.38 38.147 17.0034 37.7444 17.6911 37.3258C20.6903 35.4371 22.9118 34.6041 24.6893 34.6041C25.5696 34.6041 26.2083 34.7974 26.741 34.9586C26.7797 34.9703 26.8179 34.9818 26.8555 34.9931C26.9113 35.0211 26.9809 35.035 27.0506 35.049C27.1198 35.0628 27.189 35.0767 27.2445 35.1043C28.4111 35.4379 29.6884 36.604 30.7992 37.6594C31.1881 38.048 31.7433 38.5482 32.0211 38.7702L32.1877 38.6036C32.521 38.3262 33.0207 37.9372 33.7429 37.9372C33.9095 37.9372 34.0761 37.9372 34.2427 37.9926C34.7424 38.1035 35.3534 38.4924 35.3534 39.4366C35.3534 40.325 36.52 41.7135 38.7415 43.6577C39.3525 44.1575 39.8523 44.4353 40.2412 44.4353C40.6302 44.4353 41.0188 44.2129 41.4632 43.8797C41.7968 43.6023 42.1854 43.3799 42.6298 43.2133C42.8521 43.1575 43.1299 43.1021 43.3519 43.1021C44.0118 43.1021 44.4314 43.4222 44.7811 43.6888C44.8434 43.7364 44.9036 43.7822 44.9625 43.8243C45.2402 44.0463 45.4068 44.1575 45.5734 44.1575C45.6835 44.1575 45.8478 44.1028 46.0126 44.048L46.0178 44.0463C46.8509 43.7131 47.6284 43.6019 48.184 43.5465C48.2885 43.5202 48.393 43.5063 48.4918 43.4932Z"></path>
    <path fill-rule="evenodd" clip-rule="evenodd" d="M46.4061 47.4332C46.6281 47.4332 46.9059 47.4886 47.0725 47.5998C48.2386 48.4331 48.1279 51.8212 44.9067 52.7099C44.6843 52.7654 44.5177 52.7654 44.3512 52.7654C41.6852 52.7654 40.352 47.2666 42.0184 47.2666C42.1284 47.2666 42.2927 47.3212 42.4575 47.376L42.4628 47.3778C43.0179 47.6556 43.5735 47.711 44.0733 47.711C44.5592 47.711 45.0284 47.6279 45.4538 47.5527C45.8065 47.4902 46.1291 47.4332 46.4061 47.4332ZM44.6285 51.5435C46.1283 51.1549 46.5169 50.2107 46.6281 49.6551C46.7393 49.0996 46.5728 48.6551 46.517 48.5439H46.4616C46.2415 48.5439 45.9666 48.5988 45.6913 48.6537L45.684 48.6551C45.5642 48.6701 45.4405 48.689 45.3116 48.7088C44.9622 48.7624 44.5752 48.8217 44.1288 48.8217C43.5732 48.8217 43.018 48.7105 42.4624 48.5439C42.4624 49.0437 42.6848 49.9325 43.1846 50.7101C43.407 51.0433 43.851 51.5989 44.4065 51.5989C44.4295 51.5989 44.4524 51.5894 44.4793 51.5783C44.5174 51.5625 44.5634 51.5435 44.6285 51.5435Z"></path>
  </mask>
  <path fill-rule="evenodd" clip-rule="evenodd" d="M44.4245 12.3072C44.8087 13.8536 45.1977 15.4191 45.5181 15.7753C45.5851 15.8498 45.8032 16.0397 46.1303 16.3239C48.2408 18.1582 54.8897 23.9368 54.7928 28.2161C54.8256 32.8585 53.1071 35.9037 51.6764 38.4391C50.6764 40.211 49.8169 41.734 49.7942 43.3791C49.7587 44.2981 49.1833 44.3847 48.2398 44.5267C47.7009 44.6078 47.0419 44.7069 46.2949 44.9896C45.9617 45.1008 45.6839 45.1562 45.4619 45.1562C44.8572 45.1562 44.4829 44.8434 44.1419 44.5583C43.8566 44.3198 43.5946 44.1008 43.2404 44.1008C43.1292 44.1008 43.0184 44.1008 42.9072 44.1562C42.6103 44.2751 42.3205 44.4786 42.0175 44.6913C41.4705 45.0753 40.8809 45.4893 40.1301 45.4893C39.5192 45.4893 38.7974 45.2115 37.9086 44.4339C34.1774 41.2526 34.1402 39.9875 34.1241 39.4409C34.1175 39.2145 34.1144 39.1113 33.8541 39.0463H33.6321C33.2987 39.0463 33.0209 39.2546 32.7431 39.4629C32.4654 39.6711 32.1877 39.8793 31.8546 39.8793C31.8269 39.8793 31.7852 39.8655 31.7436 39.8516C31.7019 39.8378 31.6603 39.8239 31.6326 39.8239C31.2774 39.7291 30.6194 39.1298 29.8609 38.4388C28.84 37.5089 27.637 36.413 26.7448 36.158C26.6579 36.1291 26.571 36.0992 26.4835 36.0691C25.8996 35.8683 25.2886 35.6582 24.4674 35.6582C23.1902 35.6582 21.3572 36.2138 18.0803 38.2134C16.9436 38.9254 15.9473 39.5728 15.0612 40.1486C12.0071 42.1333 10.2613 43.2678 8.58235 43.2678C8.30686 43.2678 8.03098 43.2128 7.75509 43.1578L7.74937 43.1566C6.33497 42.8673 6.4463 42.1499 6.57557 41.3169C6.66963 40.7108 6.77319 40.0435 6.30537 39.4353C5.19462 37.9912 -0.470787 28.8824 1.36211 23.9945C2.00435 22.3569 4.20608 21.7033 6.23918 21.0997C7.72259 20.6593 9.11624 20.2456 9.74889 19.4957C11.266 17.6941 11.6601 16.7727 12.0711 15.8118C12.6232 14.5212 13.2057 13.1594 16.5805 9.49811C16.7471 9.33151 16.9137 9.27611 17.0803 9.27611C17.5752 9.27611 18.2229 9.70351 18.8391 10.1102C19.3984 10.4793 19.9318 10.8313 20.3017 10.8313C20.4129 10.8313 20.5237 10.7759 20.6349 10.6647C21.0425 10.1211 21.3671 9.14126 21.6593 8.2588C21.8449 7.69845 22.0175 7.17736 22.1901 6.83218C22.4678 6.27699 25.5224 5.9992 28.0775 5.9992C29.4661 5.9992 30.7438 6.1104 31.2436 6.27699C31.9099 6.49936 31.1878 8.66551 30.1882 10.3872C28.9662 12.4976 35.298 13.8307 36.9644 13.8307C37.07 13.8307 37.1534 13.8085 37.2144 13.7922C37.2496 13.7828 37.2773 13.7753 37.2976 13.7753C38.539 13.3026 38.8682 10.5655 39.1639 8.10742C39.424 5.94578 39.658 4 40.4637 4H40.6303C42.1044 4.4067 43.0666 7.5573 43.6451 9.45153C43.6988 9.62731 43.7492 9.79227 43.7964 9.94322C43.9956 10.5813 44.2093 11.4413 44.4245 12.3072ZM48.4918 43.4932C48.6029 43.4784 48.7068 43.4646 48.795 43.4353C48.795 41.4915 49.7944 39.7693 50.8502 37.9917L50.9125 37.8795C52.2865 35.4071 53.8492 32.5949 53.8492 28.3273C53.8492 25.7724 51.0167 21.9954 45.4625 17.1633C45.0181 16.8301 44.8515 16.6635 44.7403 16.5523C44.2959 15.9967 44.0182 14.9967 43.4072 12.6086C43.3037 12.2202 43.2001 11.8196 43.1021 11.4408C42.9899 11.0071 42.8851 10.6019 42.7962 10.2758L42.685 9.83143C41.9632 7.49866 41.3522 5.99894 40.7967 5.38795C40.6301 6.1098 40.4635 7.33174 40.3523 8.22051C40.338 8.32625 40.3239 8.43213 40.3097 8.53804C39.9368 11.3253 39.561 14.1344 37.7418 14.8301C37.5194 14.8859 37.2974 14.9413 37.0196 14.9413C35.9089 14.9413 30.5213 14.2191 29.2439 11.9976C28.8549 11.3309 28.8549 10.5533 29.2439 9.88689C29.8549 8.83158 30.2435 7.83198 30.3546 7.2764C29.8549 7.22061 29.0773 7.16521 28.1332 7.16521C25.6339 7.16521 23.7455 7.38759 23.1345 7.60959C23.117 7.65346 23.0981 7.7001 23.0782 7.74906C22.9721 8.01015 22.8392 8.33743 22.7456 8.665C22.7256 8.72484 22.7056 8.78488 22.6856 8.84503C22.3715 9.78988 22.0489 10.7602 21.579 11.3867C21.3012 11.7757 20.8568 11.9977 20.357 11.9977C19.7387 11.9977 19.1203 11.615 18.4573 11.2048C18.4059 11.1729 18.3541 11.1409 18.3021 11.1089C18.2323 11.0671 18.1486 11.0148 18.058 10.9581C17.7874 10.789 17.4547 10.5812 17.2467 10.4979C14.1364 13.886 13.5808 15.1634 13.081 16.3299C12.692 17.3299 12.2476 18.3295 10.6371 20.2736C9.82718 21.2458 8.33486 21.6929 6.72131 22.1762C6.67516 22.1901 6.6289 22.2039 6.58256 22.2178C4.80501 22.7176 2.86128 23.3286 2.41689 24.4393C0.91755 28.4949 5.80497 36.8814 7.35976 38.8813C8.13734 39.8255 7.97074 40.8808 7.85955 41.5472C7.85955 41.6389 7.84277 41.7474 7.82768 41.8449C7.81535 41.9246 7.80415 41.997 7.80415 42.047C7.83201 42.047 7.87369 42.0609 7.9361 42.0818C7.99864 42.1026 8.08201 42.1305 8.19313 42.1582C8.35973 42.2136 8.58212 42.2136 8.74871 42.2136C9.97223 42.2136 11.5015 41.2453 14.02 39.6507C14.1308 39.5805 14.2436 39.5091 14.3584 39.4365C14.82 39.1545 15.2934 38.8488 15.7949 38.5248C16.38 38.147 17.0034 37.7444 17.6911 37.3258C20.6903 35.4371 22.9118 34.6041 24.6893 34.6041C25.5696 34.6041 26.2083 34.7974 26.741 34.9586C26.7797 34.9703 26.8179 34.9818 26.8555 34.9931C26.9113 35.0211 26.9809 35.035 27.0506 35.049C27.1198 35.0628 27.189 35.0767 27.2445 35.1043C28.4111 35.4379 29.6884 36.604 30.7992 37.6594C31.1881 38.048 31.7433 38.5482 32.0211 38.7702L32.1877 38.6036C32.521 38.3262 33.0207 37.9372 33.7429 37.9372C33.9095 37.9372 34.0761 37.9372 34.2427 37.9926C34.7424 38.1035 35.3534 38.4924 35.3534 39.4366C35.3534 40.325 36.52 41.7135 38.7415 43.6577C39.3525 44.1575 39.8523 44.4353 40.2412 44.4353C40.6302 44.4353 41.0188 44.2129 41.4632 43.8797C41.7968 43.6023 42.1854 43.3799 42.6298 43.2133C42.8521 43.1575 43.1299 43.1021 43.3519 43.1021C44.0118 43.1021 44.4314 43.4222 44.7811 43.6888C44.8434 43.7364 44.9036 43.7822 44.9625 43.8243C45.2402 44.0463 45.4068 44.1575 45.5734 44.1575C45.6835 44.1575 45.8478 44.1028 46.0126 44.048L46.0178 44.0463C46.8509 43.7131 47.6284 43.6019 48.184 43.5465C48.2885 43.5202 48.393 43.5063 48.4918 43.4932Z" fill="black"></path>
  <path fill-rule="evenodd" clip-rule="evenodd" d="M46.4061 47.4332C46.6281 47.4332 46.9059 47.4886 47.0725 47.5998C48.2386 48.4331 48.1279 51.8212 44.9067 52.7099C44.6843 52.7654 44.5177 52.7654 44.3512 52.7654C41.6852 52.7654 40.352 47.2666 42.0184 47.2666C42.1284 47.2666 42.2927 47.3212 42.4575 47.376L42.4628 47.3778C43.0179 47.6556 43.5735 47.711 44.0733 47.711C44.5592 47.711 45.0284 47.6279 45.4538 47.5527C45.8065 47.4902 46.1291 47.4332 46.4061 47.4332ZM44.6285 51.5435C46.1283 51.1549 46.5169 50.2107 46.6281 49.6551C46.7393 49.0996 46.5728 48.6551 46.517 48.5439H46.4616C46.2415 48.5439 45.9666 48.5988 45.6913 48.6537L45.684 48.6551C45.5642 48.6701 45.4405 48.689 45.3116 48.7088C44.9622 48.7624 44.5752 48.8217 44.1288 48.8217C43.5732 48.8217 43.018 48.7105 42.4624 48.5439C42.4624 49.0437 42.6848 49.9325 43.1846 50.7101C43.407 51.0433 43.851 51.5989 44.4065 51.5989C44.4295 51.5989 44.4524 51.5894 44.4793 51.5783C44.5174 51.5625 44.5634 51.5435 44.6285 51.5435Z" fill="black"></path>
  <path fill-rule="evenodd" clip-rule="evenodd" d="M44.4245 12.3072C44.8087 13.8536 45.1977 15.4191 45.5181 15.7753C45.5851 15.8498 45.8032 16.0397 46.1303 16.3239C48.2408 18.1582 54.8897 23.9368 54.7928 28.2161C54.8256 32.8585 53.1071 35.9037 51.6764 38.4391C50.6764 40.211 49.8169 41.734 49.7942 43.3791C49.7587 44.2981 49.1833 44.3847 48.2398 44.5267C47.7009 44.6078 47.0419 44.7069 46.2949 44.9896C45.9617 45.1008 45.6839 45.1562 45.4619 45.1562C44.8572 45.1562 44.4829 44.8434 44.1419 44.5583C43.8566 44.3198 43.5946 44.1008 43.2404 44.1008C43.1292 44.1008 43.0184 44.1008 42.9072 44.1562C42.6103 44.2751 42.3205 44.4786 42.0175 44.6913C41.4705 45.0753 40.8809 45.4893 40.1301 45.4893C39.5192 45.4893 38.7974 45.2115 37.9086 44.4339C34.1774 41.2526 34.1402 39.9875 34.1241 39.4409C34.1175 39.2145 34.1144 39.1113 33.8541 39.0463H33.6321C33.2987 39.0463 33.0209 39.2546 32.7431 39.4629C32.4654 39.6711 32.1877 39.8793 31.8546 39.8793C31.8269 39.8793 31.7852 39.8655 31.7436 39.8516C31.7019 39.8378 31.6603 39.8239 31.6326 39.8239C31.2774 39.7291 30.6194 39.1298 29.8609 38.4388C28.84 37.5089 27.637 36.413 26.7448 36.158C26.6579 36.1291 26.571 36.0992 26.4835 36.0691C25.8996 35.8683 25.2886 35.6582 24.4674 35.6582C23.1902 35.6582 21.3572 36.2138 18.0803 38.2134C16.9436 38.9254 15.9473 39.5728 15.0612 40.1486C12.0071 42.1333 10.2613 43.2678 8.58235 43.2678C8.30686 43.2678 8.03098 43.2128 7.75509 43.1578L7.74937 43.1566C6.33497 42.8673 6.4463 42.1499 6.57557 41.3169C6.66963 40.7108 6.77319 40.0435 6.30537 39.4353C5.19462 37.9912 -0.470787 28.8824 1.36211 23.9945C2.00435 22.3569 4.20608 21.7033 6.23918 21.0997C7.72259 20.6593 9.11624 20.2456 9.74889 19.4957C11.266 17.6941 11.6601 16.7727 12.0711 15.8118C12.6232 14.5212 13.2057 13.1594 16.5805 9.49811C16.7471 9.33151 16.9137 9.27611 17.0803 9.27611C17.5752 9.27611 18.2229 9.70351 18.8391 10.1102C19.3984 10.4793 19.9318 10.8313 20.3017 10.8313C20.4129 10.8313 20.5237 10.7759 20.6349 10.6647C21.0425 10.1211 21.3671 9.14126 21.6593 8.2588C21.8449 7.69845 22.0175 7.17736 22.1901 6.83218C22.4678 6.27699 25.5224 5.9992 28.0775 5.9992C29.4661 5.9992 30.7438 6.1104 31.2436 6.27699C31.9099 6.49936 31.1878 8.66551 30.1882 10.3872C28.9662 12.4976 35.298 13.8307 36.9644 13.8307C37.07 13.8307 37.1534 13.8085 37.2144 13.7922C37.2496 13.7828 37.2773 13.7753 37.2976 13.7753C38.539 13.3026 38.8682 10.5655 39.1639 8.10742C39.424 5.94578 39.658 4 40.4637 4H40.6303C42.1044 4.4067 43.0666 7.5573 43.6451 9.45153C43.6988 9.62731 43.7492 9.79227 43.7964 9.94322C43.9956 10.5813 44.2093 11.4413 44.4245 12.3072ZM48.4918 43.4932C48.6029 43.4784 48.7068 43.4646 48.795 43.4353C48.795 41.4915 49.7944 39.7693 50.8502 37.9917L50.9125 37.8795C52.2865 35.4071 53.8492 32.5949 53.8492 28.3273C53.8492 25.7724 51.0167 21.9954 45.4625 17.1633C45.0181 16.8301 44.8515 16.6635 44.7403 16.5523C44.2959 15.9967 44.0182 14.9967 43.4072 12.6086C43.3037 12.2202 43.2001 11.8196 43.1021 11.4408C42.9899 11.0071 42.8851 10.6019 42.7962 10.2758L42.685 9.83143C41.9632 7.49866 41.3522 5.99894 40.7967 5.38795C40.6301 6.1098 40.4635 7.33174 40.3523 8.22051C40.338 8.32625 40.3239 8.43213 40.3097 8.53804C39.9368 11.3253 39.561 14.1344 37.7418 14.8301C37.5194 14.8859 37.2974 14.9413 37.0196 14.9413C35.9089 14.9413 30.5213 14.2191 29.2439 11.9976C28.8549 11.3309 28.8549 10.5533 29.2439 9.88689C29.8549 8.83158 30.2435 7.83198 30.3546 7.2764C29.8549 7.22061 29.0773 7.16521 28.1332 7.16521C25.6339 7.16521 23.7455 7.38759 23.1345 7.60959C23.117 7.65346 23.0981 7.7001 23.0782 7.74906C22.9721 8.01015 22.8392 8.33743 22.7456 8.665C22.7256 8.72484 22.7056 8.78488 22.6856 8.84503C22.3715 9.78988 22.0489 10.7602 21.579 11.3867C21.3012 11.7757 20.8568 11.9977 20.357 11.9977C19.7387 11.9977 19.1203 11.615 18.4573 11.2048C18.4059 11.1729 18.3541 11.1409 18.3021 11.1089C18.2323 11.0671 18.1486 11.0148 18.058 10.9581C17.7874 10.789 17.4547 10.5812 17.2467 10.4979C14.1364 13.886 13.5808 15.1634 13.081 16.3299C12.692 17.3299 12.2476 18.3295 10.6371 20.2736C9.82718 21.2458 8.33486 21.6929 6.72131 22.1762C6.67516 22.1901 6.6289 22.2039 6.58256 22.2178C4.80501 22.7176 2.86128 23.3286 2.41689 24.4393C0.91755 28.4949 5.80497 36.8814 7.35976 38.8813C8.13734 39.8255 7.97074 40.8808 7.85955 41.5472C7.85955 41.6389 7.84277 41.7474 7.82768 41.8449C7.81535 41.9246 7.80415 41.997 7.80415 42.047C7.83201 42.047 7.87369 42.0609 7.9361 42.0818C7.99864 42.1026 8.08201 42.1305 8.19313 42.1582C8.35973 42.2136 8.58212 42.2136 8.74871 42.2136C9.97223 42.2136 11.5015 41.2453 14.02 39.6507C14.1308 39.5805 14.2436 39.5091 14.3584 39.4365C14.82 39.1545 15.2934 38.8488 15.7949 38.5248C16.38 38.147 17.0034 37.7444 17.6911 37.3258C20.6903 35.4371 22.9118 34.6041 24.6893 34.6041C25.5696 34.6041 26.2083 34.7974 26.741 34.9586C26.7797 34.9703 26.8179 34.9818 26.8555 34.9931C26.9113 35.0211 26.9809 35.035 27.0506 35.049C27.1198 35.0628 27.189 35.0767 27.2445 35.1043C28.4111 35.4379 29.6884 36.604 30.7992 37.6594C31.1881 38.048 31.7433 38.5482 32.0211 38.7702L32.1877 38.6036C32.521 38.3262 33.0207 37.9372 33.7429 37.9372C33.9095 37.9372 34.0761 37.9372 34.2427 37.9926C34.7424 38.1035 35.3534 38.4924 35.3534 39.4366C35.3534 40.325 36.52 41.7135 38.7415 43.6577C39.3525 44.1575 39.8523 44.4353 40.2412 44.4353C40.6302 44.4353 41.0188 44.2129 41.4632 43.8797C41.7968 43.6023 42.1854 43.3799 42.6298 43.2133C42.8521 43.1575 43.1299 43.1021 43.3519 43.1021C44.0118 43.1021 44.4314 43.4222 44.7811 43.6888C44.8434 43.7364 44.9036 43.7822 44.9625 43.8243C45.2402 44.0463 45.4068 44.1575 45.5734 44.1575C45.6835 44.1575 45.8478 44.1028 46.0126 44.048L46.0178 44.0463C46.8509 43.7131 47.6284 43.6019 48.184 43.5465C48.2885 43.5202 48.393 43.5063 48.4918 43.4932Z" stroke="black" mask="url(#path-2-outside-1_4361_69160)"></path>
  <path fill-rule="evenodd" clip-rule="evenodd" d="M46.4061 47.4332C46.6281 47.4332 46.9059 47.4886 47.0725 47.5998C48.2386 48.4331 48.1279 51.8212 44.9067 52.7099C44.6843 52.7654 44.5177 52.7654 44.3512 52.7654C41.6852 52.7654 40.352 47.2666 42.0184 47.2666C42.1284 47.2666 42.2927 47.3212 42.4575 47.376L42.4628 47.3778C43.0179 47.6556 43.5735 47.711 44.0733 47.711C44.5592 47.711 45.0284 47.6279 45.4538 47.5527C45.8065 47.4902 46.1291 47.4332 46.4061 47.4332ZM44.6285 51.5435C46.1283 51.1549 46.5169 50.2107 46.6281 49.6551C46.7393 49.0996 46.5728 48.6551 46.517 48.5439H46.4616C46.2415 48.5439 45.9666 48.5988 45.6913 48.6537L45.684 48.6551C45.5642 48.6701 45.4405 48.689 45.3116 48.7088C44.9622 48.7624 44.5752 48.8217 44.1288 48.8217C43.5732 48.8217 43.018 48.7105 42.4624 48.5439C42.4624 49.0437 42.6848 49.9325 43.1846 50.7101C43.407 51.0433 43.851 51.5989 44.4065 51.5989C44.4295 51.5989 44.4524 51.5894 44.4793 51.5783C44.5174 51.5625 44.5634 51.5435 44.6285 51.5435Z" stroke="black" mask="url(#path-2-outside-1_4361_69160)"></path>
  <path d="M15.5548 27.2326C16.0642 28.0543 16.5974 28.6124 17.1546 28.907C17.7276 29.186 18.3245 29.3256 18.9453 29.3256C19.6616 29.3256 20.2586 29.1473 20.7361 28.7907C21.2296 28.4186 21.4763 27.9147 21.4763 27.2791C21.4763 26.5659 21.1738 26.0233 20.569 25.6512C19.9641 25.2636 19.1125 25.062 18.0141 25.0465V22.6977C19.0647 22.6202 19.8606 22.3798 20.4018 21.9767C20.943 21.5736 21.2136 21.0388 21.2136 20.3721C21.2136 19.8605 21.0147 19.4574 20.6167 19.1628C20.2347 18.8527 19.6855 18.6977 18.9692 18.6977C18.4121 18.6977 17.8868 18.8527 17.3933 19.1628C16.9158 19.4574 16.4701 19.9767 16.0562 20.7209L13.5014 19.2791C14.154 18.1163 14.9897 17.2791 16.0085 16.7674C17.0431 16.2558 18.1733 16 19.399 16C20.0835 16 20.7281 16.1008 21.333 16.3023C21.9379 16.4884 22.4712 16.7597 22.9328 17.1163C23.3944 17.4729 23.7605 17.9147 24.0311 18.4419C24.3017 18.9535 24.437 19.5349 24.437 20.186C24.437 21.1783 24.246 21.9612 23.864 22.5349C23.4819 23.093 22.9885 23.4806 22.3836 23.6977C23.0044 23.9302 23.5456 24.3178 24.0072 24.8605C24.4688 25.4031 24.6997 26.1628 24.6997 27.1395C24.6997 27.9302 24.5405 28.6279 24.2221 29.2326C23.9038 29.8372 23.4819 30.3411 22.9566 30.7442C22.4314 31.1318 21.8185 31.4264 21.1181 31.6279C20.4337 31.8295 19.7174 31.9302 18.9692 31.9302C17.7754 31.9302 16.6611 31.6899 15.6265 31.2093C14.5918 30.7287 13.7163 29.8837 13 28.6744L15.5548 27.2326Z" fill="black"></path>
  <path d="M30.1656 31.2791C29.4015 30.7829 28.7887 30.155 28.327 29.3953C27.8654 28.6202 27.5311 27.7597 27.3242 26.814C27.1173 25.8682 27.0138 24.9302 27.0138 24C27.0138 23.0698 27.1173 22.1318 27.3242 21.186C27.5311 20.2403 27.8654 19.3876 28.327 18.6279C28.7887 17.8527 29.4015 17.2248 30.1656 16.7442C30.9296 16.2481 31.8767 16 33.0069 16C34.1212 16 35.0603 16.2481 35.8244 16.7442C36.6044 17.2248 37.2252 17.8527 37.6868 18.6279C38.1484 19.3876 38.4827 20.2403 38.6896 21.186C38.8965 22.1318 39 23.0698 39 24C39 24.9302 38.8965 25.8682 38.6896 26.814C38.4827 27.7597 38.1484 28.6202 37.6868 29.3953C37.2252 30.155 36.6044 30.7829 35.8244 31.2791C35.0603 31.7597 34.1212 32 33.0069 32C31.8767 32 30.9296 31.7597 30.1656 31.2791ZM30.9296 27.7674C31.1525 28.2481 31.431 28.6279 31.7653 28.907C32.1155 29.186 32.5294 29.3256 33.0069 29.3256C33.4844 29.3256 33.8904 29.186 34.2246 28.907C34.5748 28.6279 34.8613 28.2481 35.0842 27.7674C35.307 27.2713 35.4662 26.7054 35.5617 26.0698C35.6732 25.4186 35.7289 24.7209 35.7289 23.9767C35.7289 23.2326 35.6732 22.5426 35.5617 21.907C35.4662 21.2558 35.307 20.6977 35.0842 20.2326C34.8773 19.7519 34.5987 19.3721 34.2485 19.093C33.8983 18.814 33.4844 18.6744 33.0069 18.6744C32.5294 18.6744 32.1155 18.814 31.7653 19.093C31.4151 19.3721 31.1286 19.7519 30.9057 20.2326C30.6988 20.6977 30.5396 21.2558 30.4282 21.907C30.3327 22.5426 30.2849 23.2326 30.2849 23.9767C30.2849 24.7209 30.3327 25.4186 30.4282 26.0698C30.5396 26.7054 30.7068 27.2713 30.9296 27.7674Z" fill="black"></path>
  <path d="M36.5034 37.7914C36.6362 37.8518 36.7656 37.8954 36.8914 37.9223C37.0243 37.9492 37.1361 37.9626 37.227 37.9626C37.3109 37.9626 37.3948 37.9391 37.4787 37.8921C37.5626 37.8451 37.6395 37.7511 37.7095 37.6101L38.0975 36.7741L36 32.1209H37.4578L38.7792 35.4345L40.0377 32.1209H41.422L38.8001 38.1237C38.7232 38.2916 38.6323 38.4326 38.5275 38.5468C38.4226 38.6609 38.3072 38.7516 38.1814 38.8187C38.0555 38.8859 37.9192 38.9329 37.7724 38.9597C37.6325 38.9866 37.4927 39 37.3529 39C37.1711 39 36.9683 38.9765 36.7446 38.9295C36.5279 38.8892 36.3041 38.8221 36.0734 38.7281L36.5034 37.7914Z" fill="black"></path>
  <path d="M42.0995 36.9755V32.1209H43.3475L43.4104 32.5439C43.5992 32.3492 43.788 32.2149 43.9768 32.141C44.1725 32.0604 44.3753 32.0201 44.585 32.0201C44.7039 32.0201 44.8297 32.0336 44.9626 32.0604C45.0954 32.0873 45.2318 32.1242 45.3716 32.1712L45.1304 33.3094C44.9906 33.2556 44.8577 33.2153 44.7319 33.1885C44.613 33.1549 44.4941 33.1381 44.3753 33.1381C44.1795 33.1381 44.0012 33.1818 43.8404 33.2691C43.6866 33.3564 43.5643 33.4571 43.4734 33.5712V36.9755H42.0995Z" fill="black"></path>
  <path d="M46.5287 35.3439C46.6475 35.5588 46.8118 35.74 47.0216 35.8878C47.2383 36.0288 47.5075 36.0993 47.8291 36.0993C48.1088 36.0993 48.3255 36.059 48.4793 35.9784C48.6401 35.8911 48.7205 35.7736 48.7205 35.6259C48.7205 35.4849 48.6366 35.3607 48.4688 35.2532C48.301 35.1458 47.9899 35.0518 47.5354 34.9712C47.2698 34.9242 47.0251 34.8638 46.8013 34.7899C46.5846 34.7094 46.3993 34.6086 46.2455 34.4878C46.0917 34.3669 45.9728 34.2225 45.8889 34.0547C45.805 33.8868 45.7631 33.6854 45.7631 33.4504C45.7631 33.0206 45.9483 32.6715 46.3189 32.4029C46.6965 32.1343 47.2033 32 47.8396 32C48.4129 32 48.8674 32.0906 49.203 32.2719C49.5386 32.4465 49.7972 32.6614 49.979 32.9165L49.0142 33.5511C48.8883 33.3899 48.7275 33.2556 48.5318 33.1482C48.336 33.0408 48.1053 32.9871 47.8396 32.9871C47.5459 32.9871 47.3432 33.0307 47.2313 33.118C47.1194 33.1986 47.0635 33.306 47.0635 33.4403C47.0635 33.5947 47.1334 33.7055 47.2733 33.7727C47.4131 33.8398 47.6718 33.9103 48.0493 33.9842C48.357 34.0446 48.6296 34.1151 48.8674 34.1957C49.1121 34.2763 49.3183 34.3803 49.4861 34.5079C49.6539 34.6288 49.7798 34.7765 49.8637 34.9511C49.9546 35.1257 50 35.3305 50 35.5655C50 35.8273 49.9441 36.0556 49.8322 36.2504C49.7203 36.4384 49.5665 36.5962 49.3708 36.7237C49.175 36.8446 48.9443 36.9353 48.6786 36.9957C48.4129 37.0561 48.1297 37.0863 47.8291 37.0863C47.2278 37.0863 46.7384 36.9789 46.3609 36.764C45.9903 36.5424 45.7071 36.2671 45.5114 35.9381L46.5287 35.3439Z" fill="black"></path>
</svg>
