<?xml version="1.0" encoding="UTF-8"?>
<svg xmlns="http://www.w3.org/2000/svg" width="56" height="56" viewBox="0 0 56 56" fill="none">
  <g clip-path="url(#clip0_3049_55142)">
    <path d="M1.79492 13.8765V29.1095H34.9135V11.8594H2.18477L1.79492 13.8765Z" fill="#FFCB05"></path>
    <path d="M53.6629 27.9441L51.3197 26.3745L48.6011 20.698C48.0442 19.6596 47.238 18.7759 46.255 18.1261C45.272 17.4764 44.1429 17.081 42.9694 16.9756L36.328 16.9682V13.8C36.3267 12.7879 35.9241 11.8176 35.2084 11.102C34.4928 10.3863 33.5225 9.98369 32.5104 9.98242H3.79628C2.81628 9.98347 1.87671 10.3732 1.18369 11.0661C0.490674 11.759 0.100804 12.6986 0.0996094 13.6786V37.4129C0.10109 38.4245 0.503947 39.3941 1.21972 40.1089C1.93549 40.8237 2.90567 41.2252 3.91723 41.2252H7.4067C7.72059 42.5864 8.48662 43.8011 9.57975 44.6708C10.6729 45.5406 12.0286 46.0141 13.4255 46.0141C14.8224 46.0141 16.1781 45.5406 17.2712 44.6708C18.3643 43.8011 19.1304 42.5864 19.4443 41.2252H36.9201C37.234 42.5864 38 43.801 39.0931 44.6708C40.1863 45.5405 41.5419 46.0141 42.9389 46.0141C44.3358 46.0141 45.6914 45.5405 46.7846 44.6708C47.8777 43.801 48.6437 42.5864 48.9576 41.2252H52.2094C53.2202 41.2241 54.1891 40.822 54.9038 40.1073C55.6185 39.3926 56.0206 38.4237 56.0217 37.4129V32.8455C56.0503 31.8993 55.8509 30.96 55.4403 30.107C55.0298 29.254 54.4202 28.5121 53.6629 27.9441V27.9441ZM39.7081 38.747C39.8681 38.2454 40.1458 37.7893 40.5182 37.4169C40.8905 37.0446 41.3466 36.7668 41.8483 36.6069C42.2002 36.4963 42.5668 36.4397 42.9357 36.4391C43.6606 36.4368 44.367 36.6676 44.9507 37.0975C45.4544 37.4704 45.8451 37.9753 46.0797 38.5564C46.3143 39.1376 46.3836 39.7723 46.2799 40.3903C46.1762 41.0084 45.9036 41.5857 45.4922 42.0585C45.0808 42.5313 44.5466 42.881 43.9488 43.0691C43.351 43.2572 42.7129 43.2763 42.1049 43.1243C41.4969 42.9723 40.9428 42.655 40.5039 42.2077C40.065 41.7604 39.7584 41.2004 39.6179 40.5896C39.4775 39.9789 39.5087 39.3412 39.7081 38.747V38.747ZM11.4157 37.0964C11.9988 36.6669 12.7045 36.4363 13.4286 36.4385C13.7975 36.4395 14.1641 36.4962 14.5161 36.6068C15.0178 36.7667 15.474 37.0444 15.8465 37.4166C16.219 37.7889 16.497 38.2448 16.6573 38.7465C16.828 39.2591 16.8746 39.8048 16.7932 40.3389C16.7119 40.873 16.505 41.3802 16.1895 41.8188C15.8741 42.2574 15.459 42.6148 14.9785 42.8617C14.498 43.1087 13.9657 43.2381 13.4255 43.2392C12.7084 43.2395 12.0097 43.0131 11.4291 42.5924C10.8485 42.1717 10.4158 41.5781 10.1928 40.8967C9.96989 40.2152 9.9681 39.4807 10.1877 38.7981C10.4074 38.1156 10.8372 37.5199 11.4157 37.0964H11.4157ZM52.3766 34.1611H53.2475V37.4087C53.2473 37.5458 53.2201 37.6815 53.1674 37.8081C53.1148 37.9346 53.0377 38.0496 52.9407 38.1464C52.8436 38.2432 52.7284 38.3199 52.6017 38.3721C52.4749 38.4244 52.3391 38.4512 52.2021 38.4509H48.9576C48.6436 37.0898 47.8775 35.8754 46.7844 35.0057C45.6913 34.1361 44.3357 33.6626 42.9389 33.6626C41.542 33.6626 40.1864 34.1361 39.0933 35.0057C38.0002 35.8754 37.2341 37.0898 36.9201 38.4509H19.4443C19.1302 37.0898 18.3642 35.8754 17.2711 35.0057C16.1779 34.1361 14.8223 33.6626 13.4255 33.6626C12.0286 33.6626 10.673 34.1361 9.57991 35.0057C8.4868 35.8754 7.72072 37.0898 7.4067 38.4509H3.91723C3.64077 38.4508 3.37566 38.341 3.18007 38.1456C2.98449 37.9502 2.8744 37.6852 2.87396 37.4087V13.891C2.87423 13.5899 2.994 13.3012 3.20696 13.0883C3.41993 12.8755 3.70866 12.7558 4.00977 12.7557L32.5104 12.7573C32.7869 12.7575 33.0521 12.8674 33.2477 13.0629C33.4433 13.2584 33.5533 13.5235 33.5536 13.8V27.7196L16.6594 27.7096C16.2915 27.7096 15.9387 27.8557 15.6785 28.1159C15.4184 28.376 15.2722 28.7288 15.2722 29.0967C15.2722 29.4647 15.4184 29.8175 15.6785 30.0776C15.9387 30.3378 16.2915 30.4839 16.6594 30.4839L33.5536 30.4934V33.8688C33.5531 34.0512 33.5886 34.232 33.6581 34.4008C33.7276 34.5695 33.8297 34.7229 33.9586 34.8521C34.0874 34.9814 34.2405 35.0839 34.4091 35.1538C34.5776 35.2238 34.7583 35.2598 34.9408 35.2598C35.1233 35.2598 35.304 35.2238 35.4726 35.1538C35.6411 35.0839 35.7942 34.9814 35.9231 34.8521C36.0519 34.7229 36.154 34.5695 36.2235 34.4008C36.293 34.232 36.3285 34.0512 36.328 33.8688V19.742L42.7275 19.7394C43.6952 19.8306 44.6052 20.2406 45.3146 20.9052C45.6261 21.191 45.8902 21.5245 46.0971 21.8932L48.9808 27.9152C49.0881 28.1391 49.2538 28.33 49.4603 28.4678L52.1096 30.2426C52.4881 30.5437 52.782 30.938 52.9625 31.3868H52.3766C52.0087 31.3868 51.6559 31.5329 51.3958 31.7931C51.1356 32.0532 50.9895 32.4061 50.9895 32.774C50.9895 33.1419 51.1356 33.4947 51.3958 33.7548C51.6559 34.015 52.0087 34.1611 52.3766 34.1611H52.3766Z" fill="#171717"></path>
    <path d="M46.6178 27.8649H42.3879C42.1116 27.8647 41.8466 27.7548 41.6512 27.5594C41.4558 27.364 41.3459 27.0991 41.3457 26.8227V24.4675C41.3459 24.1911 41.4558 23.9261 41.6512 23.7307C41.8466 23.5353 42.1116 23.4255 42.3879 23.4253C42.7559 23.4253 43.1088 23.2791 43.369 23.0189C43.6292 22.7587 43.7753 22.4058 43.7753 22.0378C43.7753 21.6699 43.6292 21.317 43.369 21.0568C43.1088 20.7966 42.7559 20.6504 42.3879 20.6504C41.3759 20.6516 40.4057 21.0542 39.69 21.7697C38.9744 22.4853 38.5717 23.4554 38.5703 24.4675V26.8227C38.5717 27.8347 38.9744 28.8049 39.69 29.5204C40.4057 30.236 41.3759 30.6385 42.3879 30.6398H46.6178C46.9858 30.6398 47.3387 30.4936 47.5988 30.2334C47.859 29.9732 48.0052 29.6203 48.0052 29.2523C48.0052 28.8844 47.859 28.5315 47.5988 28.2713C47.3387 28.0111 46.9858 27.8649 46.6178 27.8649V27.8649Z" fill="#171717"></path>
    <path d="M11.3385 27.7227H10.2563C10.0741 27.7227 9.89377 27.7585 9.72547 27.8282C9.55717 27.898 9.40425 28.0001 9.27543 28.1289C9.14662 28.2578 9.04445 28.4107 8.97473 28.579C8.90502 28.7473 8.86914 28.9277 8.86914 29.1098C8.86914 29.292 8.90502 29.4724 8.97473 29.6407C9.04445 29.809 9.14662 29.9619 9.27543 30.0907C9.40425 30.2195 9.55717 30.3217 9.72547 30.3914C9.89377 30.4611 10.0741 30.497 10.2563 30.497H11.3385C11.5207 30.497 11.701 30.4611 11.8693 30.3914C12.0376 30.3217 12.1906 30.2195 12.3194 30.0907C12.4482 29.9619 12.5504 29.809 12.6201 29.6407C12.6898 29.4724 12.7257 29.292 12.7257 29.1098C12.7257 28.9277 12.6898 28.7473 12.6201 28.579C12.5504 28.4107 12.4482 28.2578 12.3194 28.1289C12.1906 28.0001 12.0376 27.898 11.8693 27.8282C11.701 27.7585 11.5207 27.7227 11.3385 27.7227V27.7227Z" fill="#171717"></path>
  </g>
  <defs>
    <clipPath id="clip0_3049_55142">
      <rect width="56" height="56" fill="white"></rect>
    </clipPath>
  </defs>
</svg>
