<?xml version="1.0" encoding="UTF-8"?>
<svg xmlns="http://www.w3.org/2000/svg" width="56" height="56" viewBox="0 0 56 56" fill="none">
  <path d="M30.5927 15.2094C28.6952 13.8631 26.3883 13.2191 24.0679 13.3877C21.7474 13.5563 19.5579 14.527 17.8748 16.1335C16.1918 17.7399 15.1202 19.8818 14.8438 22.1919C14.5673 24.5021 15.1033 26.8364 16.3598 28.7945L13.4435 32.1352C13.2721 32.3315 13.1614 32.5734 13.1249 32.8314C13.0884 33.0894 13.1277 33.3525 13.2379 33.5886L13.8047 34.806L13.1022 35.0279C12.7982 35.124 12.5383 35.325 12.3686 35.5949C12.1989 35.8648 12.1305 36.1862 12.1757 36.5018L12.3529 37.7449L10.9152 38.0683C10.5928 38.1409 10.3083 38.3295 10.116 38.5984C9.92375 38.8672 9.83708 39.1973 9.87254 39.5259L10.0114 40.8153L9.36878 40.7769C9.11927 40.7639 8.871 40.8198 8.65112 40.9384C8.43123 41.057 8.24819 41.2338 8.12201 41.4494L6.86309 43.6364C6.70374 43.9133 6.64801 44.2378 6.70586 44.5519L7.74386 50.1842C7.78101 50.3855 7.86355 50.5757 7.98523 50.7403C8.1069 50.9049 8.2645 51.0396 8.44604 51.1341C8.62759 51.2287 8.8283 51.2806 9.03292 51.2859C9.23754 51.2912 9.44068 51.2499 9.6269 51.1649L15.2377 48.6025C15.4819 48.4909 15.6872 48.3089 15.8271 48.0798L24.7917 33.4094H24.7985C26.494 33.4084 28.1616 32.9781 29.6458 32.1584C29.8449 32.0481 30.0128 31.8891 30.1339 31.6963C30.2549 31.5035 30.325 31.2831 30.3377 31.0559C30.3504 30.8286 30.3053 30.6018 30.2065 30.3967C30.1078 30.1916 29.9586 30.0148 29.773 29.8831C28.7592 29.1667 27.944 28.2043 27.4042 27.0865C26.8643 25.9686 26.6174 24.7319 26.6866 23.4924C26.7558 22.253 27.1389 21.0514 27.7999 20.0006C28.4609 18.9499 29.3782 18.0843 30.4655 17.4853C30.6646 17.3749 30.8326 17.2159 30.9536 17.0231C31.0746 16.8302 31.1448 16.6098 31.1575 16.3825C31.1702 16.1552 31.125 15.9283 31.0263 15.7232C30.9275 15.518 30.7783 15.3413 30.5927 15.2094L30.5927 15.2094Z" fill="#FFCB05"></path>
  <path d="M44.0348 23.9081C44.0343 21.4736 43.1433 19.1235 41.5299 17.3005C42.4623 15.5174 42.923 13.5254 42.8682 11.514C42.8133 9.50256 42.2446 7.53863 41.2163 5.80906C40.188 4.07948 38.7342 2.64179 36.9933 1.63279C35.2524 0.623778 33.2822 0.0770113 31.2703 0.0445077C29.2584 0.0120042 27.2716 0.494845 25.499 1.44709C23.7264 2.39934 22.227 3.78931 21.1433 5.48477C20.0597 7.18022 19.4279 9.12476 19.308 11.1334C19.1882 13.142 19.5843 15.1478 20.4587 16.9601L22.8829 15.7885C22.2847 14.5543 21.9757 13.2 21.9795 11.8284C21.9814 10.4743 22.2852 9.13756 22.8688 7.91557C23.4523 6.69358 24.3009 5.61702 25.3528 4.76422C26.4047 3.91142 27.6335 3.30382 28.9498 2.98562C30.266 2.66742 31.6367 2.64663 32.962 2.92474C34.2873 3.20286 35.5339 3.7729 36.6112 4.5934C37.6885 5.41389 38.5694 6.4642 39.1897 7.66793C39.8101 8.87166 40.1543 10.1985 40.1974 11.552C40.2404 12.9055 39.9813 14.2516 39.4387 15.4923C38.308 14.762 37.0418 14.267 35.7156 14.0369C34.3894 13.8068 33.0304 13.8463 31.7198 14.153C30.4092 14.4597 29.1738 15.0274 28.0875 15.8222C27.0011 16.6169 26.086 17.6224 25.3969 18.7786C24.7077 19.9349 24.2587 21.2181 24.0764 22.5517C23.8942 23.8854 23.9826 25.242 24.3363 26.5408C24.69 27.8395 25.3018 29.0536 26.1352 30.1106C26.9685 31.1677 28.0063 32.046 29.1866 32.693V37.7587C29.1866 37.9494 29.2271 38.1379 29.3055 38.3118C29.3838 38.4857 29.4981 38.6409 29.6409 38.7673L30.4413 39.4751L29.5778 40.3443C29.4532 40.4697 29.3544 40.6185 29.2873 40.7821C29.2202 40.9457 29.186 41.1209 29.1866 41.2977C29.1872 41.4746 29.2227 41.6496 29.291 41.8127C29.3593 41.9758 29.4591 42.1238 29.5847 42.2484L30.4807 43.1376L29.478 44.4033C29.2709 44.6643 29.168 44.9929 29.1893 45.3254C29.2105 45.6579 29.3544 45.9707 29.5931 46.2032L30.3298 46.921L29.5605 47.725C29.3206 47.9755 29.1866 48.3089 29.1866 48.6557V50.8779C29.1867 51.2349 29.3285 51.5773 29.581 51.8297L33.3376 55.5863C33.4625 55.7114 33.6109 55.8106 33.7742 55.8783C33.9375 55.946 34.1126 55.9808 34.2894 55.9807C34.3194 55.9807 34.3493 55.9796 34.3793 55.9775C34.5708 55.9648 34.7573 55.9113 34.9264 55.8205C35.0954 55.7297 35.2431 55.6038 35.3595 55.4512L38.5739 51.2392C38.7531 51.0047 38.8501 50.7177 38.85 50.4226V32.6818C40.4193 31.8159 41.7278 30.5454 42.6396 29.0024C43.5515 27.4594 44.0332 25.7003 44.0348 23.9081ZM36.1577 49.9677L34.1532 52.5943L31.8789 50.3205V49.1963L33.1972 47.8191C33.4427 47.5628 33.577 47.22 33.5709 46.8651C33.5648 46.5103 33.4188 46.1722 33.1646 45.9245L32.3427 45.1231L33.3386 43.8664C33.5444 43.6069 33.6473 43.2807 33.6276 42.9502C33.6079 42.6197 33.467 42.308 33.2319 42.0748L32.4368 41.2861L33.3565 40.3601C33.4858 40.23 33.5871 40.0749 33.6543 39.9043C33.7215 39.7337 33.7531 39.5511 33.7472 39.3678C33.7413 39.1846 33.698 39.0044 33.62 38.8385C33.5419 38.6726 33.4308 38.5243 33.2934 38.4029L31.8789 37.1519V33.7008C33.2883 34.013 34.749 34.0113 36.1577 33.696L36.1577 49.9677ZM34.0091 31.2414C32.9952 31.2413 31.9924 31.0296 31.065 30.6197L31.0512 30.6131C30.1237 30.2058 29.2907 29.6108 28.6047 28.8654C27.9188 28.12 27.3949 27.2405 27.066 26.2824C26.7371 25.3243 26.6104 24.3084 26.6938 23.2989C26.7773 22.2894 27.0692 21.3081 27.551 20.4171C28.0328 19.526 28.6942 18.7446 29.4932 18.122C30.2923 17.4994 31.2117 17.0492 32.1935 16.7999C33.1753 16.5506 34.1982 16.5075 35.1975 16.6734C36.1968 16.8393 37.1508 17.2105 37.9994 17.7637C37.6298 18.1869 37.2218 18.5748 36.7804 18.9226C36.0558 18.2503 35.1164 17.8566 34.129 17.8114C33.1416 17.7662 32.1701 18.0724 31.3871 18.6756C30.604 19.2788 30.0601 20.14 29.8519 21.1063C29.6437 22.0725 29.7846 23.0813 30.2497 23.9535C30.7149 24.8257 31.474 25.5048 32.3924 25.8702C33.3108 26.2357 34.329 26.2639 35.2662 25.9497C36.2034 25.6356 36.9989 24.9995 37.5115 24.1544C38.0241 23.3092 38.2206 22.3098 38.0661 21.3335C38.7524 20.8314 39.3822 20.2564 39.9446 19.6185C40.7387 20.7116 41.2148 22.0032 41.3202 23.3502C41.4256 24.6972 41.1561 26.0471 40.5416 27.2504C39.9271 28.4537 38.9916 29.4635 37.8386 30.1679C36.6857 30.8723 35.3602 31.2439 34.0091 31.2415V31.2414ZM35.421 21.8C35.421 22.0238 35.3546 22.2426 35.2303 22.4286C35.1059 22.6147 34.9292 22.7598 34.7224 22.8454C34.5156 22.9311 34.2881 22.9535 34.0686 22.9098C33.8491 22.8662 33.6474 22.7584 33.4892 22.6001C33.3309 22.4419 33.2232 22.2402 33.1795 22.0207C33.1358 21.8012 33.1582 21.5737 33.2439 21.3669C33.3295 21.1601 33.4746 20.9834 33.6607 20.8591C33.8468 20.7347 34.0655 20.6683 34.2894 20.6683C34.5894 20.6686 34.8771 20.7879 35.0892 21.0001C35.3014 21.2122 35.4207 21.4999 35.421 21.8H35.421Z" fill="#171717"></path>
</svg>
