<?xml version="1.0" encoding="UTF-8"?>
<svg xmlns="http://www.w3.org/2000/svg" width="56" height="56" viewBox="0 0 56 56" fill="none">
  <path d="M46.4319 49.6316C46.0315 48.5156 45.3162 47.5395 44.3726 46.8214C43.429 46.1034 42.2976 45.6742 41.1151 45.5858C39.5964 45.4207 38.0701 45.3349 36.5424 45.3285C36.7833 44.303 36.6846 43.2271 36.2614 42.2624C35.8382 41.2977 35.1133 40.4966 34.1956 39.9793L25.251 35.019C22.8006 31.8754 19.9676 29.0498 16.8176 26.6076C16.5845 26.4326 16.3009 26.3379 16.0094 26.3379H2.5515C2.50851 26.3379 2.47223 26.3584 2.4303 26.3623C2.38836 26.3584 2.35212 26.3379 2.30904 26.3379C2.13226 26.3379 1.95721 26.3727 1.79388 26.4404C1.63055 26.508 1.48215 26.6072 1.35714 26.7322C1.23214 26.8572 1.13298 27.0056 1.06533 27.1689C0.997689 27.3322 0.962878 27.5073 0.962891 27.6841V40.6287C0.962878 40.8055 0.997689 40.9805 1.06533 41.1439C1.13298 41.3072 1.23214 41.4556 1.35714 41.5806C1.48215 41.7056 1.63055 41.8048 1.79388 41.8724C1.95721 41.9401 2.13226 41.9749 2.30904 41.9749H3.97289C8.29847 51.3532 18.9704 55.9475 36.4915 55.9475C38.2488 55.9475 40.0763 55.9012 41.9739 55.8087C42.78 55.7872 43.5689 55.5707 44.2731 55.1776C44.9773 54.7846 45.5756 54.2267 46.017 53.5518C46.3773 52.9719 46.6017 52.3181 46.6735 51.6392C46.7454 50.9604 46.6628 50.2741 46.4319 49.6316ZM43.7297 52.132C43.5157 52.4342 43.233 52.6813 42.9049 52.853C42.5768 53.0246 42.2127 53.116 41.8424 53.1195C21.7752 54.0924 10.0821 49.8435 6.10089 40.1186C5.99966 39.8714 5.82715 39.6599 5.60532 39.511C5.38349 39.3621 5.12238 39.2826 4.85521 39.2826H3.6552V29.0302H15.555C18.446 31.3381 21.0511 33.9828 23.3149 36.9084C23.4245 37.0456 23.5599 37.1601 23.7135 37.2455L32.8899 42.334C33.3817 42.6097 33.7466 43.0663 33.907 43.6068C34.0674 44.1473 34.0105 44.729 33.7486 45.2282C33.6125 45.4846 33.4261 45.7108 33.2006 45.8935C32.975 46.0761 32.715 46.2114 32.436 46.2912C32.1569 46.371 31.8647 46.3938 31.5767 46.358C31.2887 46.3223 31.0108 46.2289 30.7597 46.0833L16.6214 37.8986C16.3124 37.7202 15.9452 37.6718 15.6006 37.764C15.2559 37.8561 14.9618 38.0813 14.7831 38.3901C14.6043 38.6989 14.5554 39.066 14.6471 39.4108C14.7388 39.7556 14.9636 40.0499 15.2721 40.2291L29.4104 48.4133C30.1454 48.8422 30.981 49.0686 31.8319 49.0696C32.2872 49.0691 32.7401 49.005 33.1776 48.8792C33.6422 48.7389 34.083 48.5295 34.4853 48.258C34.8944 48.0682 36.2657 47.8145 40.8512 48.2655C41.513 48.3088 42.1488 48.5395 42.6844 48.9308C43.2199 49.3221 43.6329 49.8577 43.8753 50.4751C43.9841 50.7431 44.0277 51.033 44.0024 51.3211C43.9771 51.6092 43.8836 51.8872 43.7297 52.132V52.132Z" fill="#171717"></path>
  <path d="M38.987 32.4604C47.5651 32.4604 54.5189 25.5065 54.5189 16.9284C54.5189 8.35037 47.5651 1.39648 38.987 1.39648C30.409 1.39648 23.4551 8.35037 23.4551 16.9284C23.4551 25.5065 30.409 32.4604 38.987 32.4604Z" fill="#FFCB05"></path>
  <path d="M38.9868 33.8066C35.6487 33.8065 32.3856 32.8166 29.6101 30.962C26.8346 29.1073 24.6714 26.4713 23.394 23.3873C22.1166 20.3032 21.7825 16.9096 22.4337 13.6357C23.085 10.3617 24.6926 7.35441 27.053 4.99404C29.4134 2.63367 32.4208 1.02625 35.6948 0.375056C38.9688 -0.276141 42.3623 0.0581278 45.4463 1.33559C48.5303 2.61306 51.1663 4.77634 53.0208 7.55189C54.8754 10.3274 55.8652 13.5906 55.8652 16.9287C55.8601 21.4035 54.0802 25.6936 50.916 28.8577C47.7517 32.0219 43.4616 33.8017 38.9868 33.8066V33.8066ZM38.9868 2.7431C36.1812 2.7432 33.4386 3.57525 31.1058 5.13405C28.7731 6.69285 26.955 8.90837 25.8814 11.5005C24.8078 14.0926 24.5269 16.9448 25.0743 19.6965C25.6217 22.4482 26.9728 24.9758 28.9567 26.9596C30.9407 28.9435 33.4683 30.2945 36.22 30.8418C38.9717 31.3891 41.824 31.1082 44.416 30.0345C47.0081 28.9608 49.2235 27.1426 50.7823 24.8098C52.341 22.477 53.1729 19.7343 53.1729 16.9287C53.1686 13.1677 51.6727 9.56192 49.0132 6.90252C46.3536 4.24311 42.7478 2.74724 38.9868 2.7431V2.7431Z" fill="#171717"></path>
  <path d="M39.5911 14.9616C37.8169 14.5373 36.5543 14.1155 36.4702 12.5759C36.4576 12.2441 36.5165 11.9136 36.6429 11.6066C36.7692 11.2996 36.96 11.0233 37.2024 10.7964C37.4447 10.5696 37.733 10.3974 38.0477 10.2916C38.3624 10.1858 38.6961 10.1489 39.0263 10.1833C41.0003 10.1833 41.8842 11.3607 41.8842 12.6264C41.8596 12.8476 41.8822 13.0715 41.9504 13.2834C42.0186 13.4953 42.1309 13.6904 42.28 13.8557C42.429 14.0211 42.6114 14.153 42.8151 14.2427C43.0188 14.3325 43.2392 14.3781 43.4618 14.3765C43.6844 14.375 43.9042 14.3263 44.1066 14.2336C44.309 14.141 44.4895 14.0065 44.6362 13.8391C44.7829 13.6717 44.8924 13.4751 44.9577 13.2622C45.0229 13.0494 45.0423 12.8251 45.0146 12.6043C44.9953 11.3693 44.5369 10.1816 43.7216 9.25387C42.9062 8.32615 41.7871 7.7191 40.5649 7.54147V6.92414C40.5406 6.52544 40.3651 6.15103 40.0742 5.87731C39.7833 5.60358 39.3989 5.45117 38.9995 5.45117C38.6 5.45117 38.2156 5.60358 37.9247 5.87731C37.6338 6.15103 37.4583 6.52544 37.434 6.92414V7.6335C36.2808 7.85405 35.2407 8.4702 34.4931 9.37566C33.7456 10.2811 33.3375 11.4191 33.3393 12.5932C33.4603 16.4881 37.2574 17.3368 38.7056 17.6608C40.3357 18.0378 42.0751 18.6052 42.0751 20.5834C42.0751 22.3003 40.9567 23.3251 39.0836 23.3251C38.1255 23.3251 35.897 23.0459 35.897 20.4603C35.8955 20.0461 35.7298 19.6493 35.4364 19.357C35.1429 19.0646 34.7456 18.9004 34.3313 18.9004C33.9171 18.9004 33.5197 19.0646 33.2263 19.357C32.9328 19.6493 32.7672 20.0461 32.7656 20.4603V20.8074C32.8518 22.0572 33.3612 23.2403 34.2098 24.1619C35.0584 25.0834 36.1956 25.6883 37.4341 25.877V26.9313C37.4584 27.33 37.6339 27.7044 37.9248 27.9782C38.2157 28.2519 38.6001 28.4043 38.9995 28.4043C39.399 28.4043 39.7833 28.2519 40.0743 27.9782C40.3652 27.7044 40.5407 27.33 40.5649 26.9313V25.8823C41.8398 25.6896 43.0053 25.0518 43.8548 24.0819C44.7044 23.1119 45.183 21.8725 45.206 20.5834C45.206 16.3072 40.9835 15.295 39.5911 14.9616Z" fill="#171717"></path>
</svg>
