<?xml version="1.0" encoding="UTF-8"?>
<svg xmlns="http://www.w3.org/2000/svg" width="56" height="56" viewBox="0 0 56 56" fill="none">
  <path d="M28.378 1.42578C28.5873 2.34434 29.0385 3.19019 29.6848 3.87569C30.3311 4.56118 31.1489 5.06137 32.0535 5.32441C32.9582 5.58746 33.9167 5.60378 34.8298 5.3717C35.7429 5.13962 36.5773 4.66757 37.2465 4.00448V4.00448C36.9685 4.90466 36.9363 5.86279 37.1533 6.77959C37.3702 7.69638 37.8284 8.53848 38.4803 9.21861C39.1323 9.89873 39.9542 10.3921 40.861 10.6477C41.7678 10.9032 42.7264 10.9116 43.6376 10.672V10.672C42.9468 11.3126 42.4398 12.1262 42.1693 13.0287C41.8988 13.9311 41.8745 14.8895 42.0991 15.8044C42.3236 16.7194 42.7887 17.5577 43.4462 18.2324C44.1038 18.9071 44.9298 19.3937 45.8386 19.6417C44.9201 19.8511 44.0742 20.3023 43.3887 20.9485C42.7032 21.5948 42.203 22.4127 41.94 23.3173C41.677 24.222 41.6606 25.1805 41.8927 26.0936C42.1248 27.0066 42.5969 27.841 43.2599 28.5103V28.5103C42.3598 28.2323 41.4016 28.2001 40.4849 28.4171C39.5681 28.634 38.726 29.0922 38.0458 29.7441C37.3657 30.396 36.8723 31.218 36.6168 32.1248C36.3612 33.0316 36.3528 33.9902 36.5925 34.9013C35.9519 34.2105 35.1382 33.7036 34.2358 33.4331C33.3333 33.1626 32.375 33.1383 31.46 33.3628C30.5451 33.5874 29.7068 34.0525 29.0321 34.71C28.3574 35.3675 27.8708 36.1935 27.6228 37.1024V37.1024C27.4134 36.1838 26.9622 35.338 26.3159 34.6525C25.6697 33.967 24.8518 33.4668 23.9472 33.2038C23.0425 32.9407 22.084 32.9244 21.1709 33.1565C20.2579 33.3886 19.4235 33.8606 18.7542 34.5237V34.5237C19.0322 33.6235 19.0644 32.6654 18.8474 31.7486C18.6305 30.8318 18.1723 29.9897 17.5204 29.3096C16.8685 28.6295 16.0465 28.1361 15.1397 27.8805C14.2329 27.625 13.2743 27.6166 12.3632 27.8562C13.054 27.2156 13.5609 26.4019 13.8314 25.4995C14.102 24.5971 14.1262 23.6387 13.9017 22.7237C13.6772 21.8088 13.212 20.9705 12.5545 20.2958C11.897 19.6211 11.071 19.1345 10.1621 18.8865C11.0807 18.6771 11.9265 18.2259 12.612 17.5796C13.2975 16.9334 13.7977 16.1155 14.0607 15.2109C14.3238 14.3062 14.3401 13.3477 14.108 12.4346C13.8759 11.5215 13.4039 10.6871 12.7408 10.0179V10.0179C13.641 10.2959 14.5991 10.3281 15.5159 10.1111C16.4327 9.89416 17.2748 9.43599 17.9549 8.78406C18.635 8.13214 19.1284 7.31019 19.384 6.4034C19.6395 5.49661 19.6479 4.53798 19.4083 3.62685V3.62685C20.0489 4.31765 20.8625 4.82458 21.765 5.09509C22.6674 5.36559 23.6258 5.38984 24.5407 5.16532C25.4557 4.9408 26.2939 4.47568 26.9686 3.81816C27.6433 3.16064 28.1299 2.33464 28.378 1.42578V1.42578Z" fill="#FFCB05"></path>
  <path d="M46.1926 18.3432C45.5153 18.1584 44.8997 17.7959 44.4097 17.2932C43.9197 16.7904 43.573 16.1658 43.4057 15.4839C43.2383 14.8021 43.2564 14.088 43.4579 13.4155C43.6595 12.743 44.0372 12.1366 44.552 11.6593C44.7722 11.4552 44.9179 11.1834 44.9659 10.887C45.0139 10.5906 44.9615 10.2867 44.8169 10.0236C44.6723 9.76046 44.4439 9.55323 44.1679 9.43485C43.892 9.31647 43.5845 9.29374 43.2941 9.37027C42.6152 9.5489 41.9008 9.54268 41.225 9.35226C40.5493 9.16183 39.9368 8.79412 39.451 8.28725C38.9652 7.78039 38.6238 7.15281 38.4623 6.46959C38.3007 5.78636 38.3248 5.07236 38.5321 4.40159C38.6205 4.11483 38.6105 3.80675 38.5038 3.52628C38.3971 3.24581 38.1998 3.00903 37.9432 2.85352C37.6865 2.69801 37.3853 2.6327 37.0873 2.66795C36.7893 2.70319 36.5116 2.83698 36.2983 3.04807C35.8026 3.54688 35.1808 3.90183 34.4993 4.07509C33.8177 4.24836 33.1019 4.23344 32.4281 4.03193C31.7516 3.84049 31.1397 3.46921 30.6575 2.95762C30.1752 2.44603 29.8407 1.81326 29.6895 1.12666C29.6227 0.834096 29.4601 0.572244 29.2274 0.382683C28.9948 0.193123 28.7055 0.0867231 28.4054 0.0803792C28.1054 0.0740352 27.8119 0.168111 27.5714 0.347668C27.331 0.527225 27.1574 0.781968 27.0783 1.07144C26.8983 1.75098 26.5375 2.369 26.0341 2.85968C25.5307 3.35036 24.9037 3.69534 24.2198 3.85787C23.538 4.03024 22.8222 4.01468 22.1485 3.81283C21.4749 3.61099 20.8685 3.23041 20.3938 2.71153C20.1897 2.49154 19.9179 2.34605 19.6217 2.2982C19.3254 2.25034 19.0217 2.30286 18.7587 2.44741C18.4957 2.59196 18.2886 2.82024 18.1702 3.096C18.0518 3.37175 18.029 3.67916 18.1053 3.96938C18.2839 4.64831 18.2777 5.36264 18.0873 6.03835C17.8969 6.71405 17.5292 7.32655 17.0224 7.81236C16.5157 8.29816 15.8882 8.6396 15.205 8.80129C14.5219 8.96298 13.8079 8.93903 13.1372 8.73193C12.8504 8.64331 12.5422 8.6531 12.2615 8.75974C11.9809 8.86637 11.744 9.06374 11.5885 9.32048C11.4329 9.57721 11.3676 9.87858 11.403 10.1767C11.4383 10.4748 11.5723 10.7525 11.7836 10.9657C12.2777 11.4644 12.6294 12.0861 12.8023 12.7665C12.9752 13.4468 12.963 14.161 12.767 14.8351C12.571 15.5091 12.1983 16.1185 11.6876 16.6001C11.1769 17.0817 10.5466 17.4179 9.86222 17.5739C9.56945 17.6405 9.30733 17.803 9.11753 18.0356C8.92774 18.2682 8.82117 18.5577 8.81476 18.8578C8.80835 19.158 8.90248 19.4517 9.08218 19.6922C9.26187 19.9327 9.51682 20.1063 9.80649 20.1852C10.4838 20.37 11.0993 20.7326 11.5894 21.2353C12.0794 21.7381 12.426 22.3627 12.5934 23.0445C12.7607 23.7263 12.7427 24.4405 12.5412 25.113C12.3396 25.7855 11.9619 26.3918 11.4471 26.8692C11.2269 27.0733 11.0811 27.3451 11.0331 27.6415C10.9851 27.9378 11.0376 28.2417 11.1822 28.5049C11.3268 28.768 11.5552 28.9752 11.8311 29.0936C12.1071 29.212 12.4146 29.2347 12.7049 29.1582C13.3807 28.9802 14.0917 28.9855 14.7648 29.1735C15.4379 29.3614 16.0487 29.7253 16.5345 30.2276C17.0204 30.7299 17.3636 31.3526 17.529 32.0316C17.6943 32.7106 17.6759 33.4213 17.4754 34.0908L10.5395 50.8576C10.4376 51.1044 10.4113 51.3759 10.4641 51.6377C10.5169 51.8995 10.6463 52.1396 10.8359 52.3277C11.0255 52.5157 11.2668 52.6431 11.529 52.6937C11.7912 52.7443 12.0625 52.7158 12.3084 52.6118L16.6224 50.7861L18.4482 55.0969C18.5503 55.3377 18.7204 55.5436 18.9376 55.6895C19.1547 55.8353 19.4097 55.9148 19.6713 55.9183C19.9305 55.9118 20.1831 55.8349 20.4019 55.6957C20.6207 55.5566 20.7975 55.3605 20.9133 55.1285L27.5294 40.5626L33.197 55.0622C33.2928 55.308 33.4589 55.5202 33.6746 55.6722C33.8902 55.8243 34.1458 55.9095 34.4096 55.9172C34.4232 55.9183 34.4369 55.9183 34.4506 55.9183C34.7075 55.9183 34.959 55.8448 35.1755 55.7066C35.3921 55.5683 35.5645 55.371 35.6726 55.138L37.8296 50.478L42.4581 52.1491C42.7018 52.2371 42.9658 52.253 43.2183 52.1946C43.4708 52.1363 43.7012 52.0064 43.8816 51.8204C44.0621 51.6343 44.185 51.4002 44.2356 51.146C44.2863 50.8919 44.2625 50.6285 44.1671 50.3875L37.8842 34.5096C37.7148 33.8328 37.7285 33.1231 37.9237 32.4534C38.119 31.7836 38.4889 31.1778 38.9955 30.6982C39.5021 30.2185 40.1272 29.8822 40.8066 29.7238C41.4861 29.5654 42.1954 29.5905 42.8619 29.7966C43.1487 29.8853 43.4569 29.8755 43.7375 29.7688C44.0181 29.6622 44.2551 29.4648 44.4106 29.2081C44.5662 28.9513 44.6315 28.65 44.5961 28.3519C44.5607 28.0538 44.4268 27.7761 44.2154 27.5629C43.7214 27.0642 43.3697 26.4424 43.1967 25.7621C43.0238 25.0817 43.036 24.3675 43.232 23.6934C43.428 23.0193 43.8007 22.4099 44.3114 21.9284C44.8222 21.4468 45.4524 21.1106 46.1369 20.9546C46.4296 20.888 46.6917 20.7255 46.8814 20.4928C47.0712 20.2602 47.1778 19.9708 47.1842 19.6706C47.1906 19.3705 47.0965 19.0768 46.9168 18.8363C46.7371 18.5958 46.4822 18.4222 46.1926 18.3432V18.3432ZM19.7312 51.2225L18.5775 48.4976C18.4383 48.1688 18.1742 47.9087 17.8433 47.7746C17.5123 47.6405 17.1417 47.6433 16.8128 47.7825L14.2825 48.8531L19.8784 35.3256C20.3624 34.8973 20.9448 34.5954 21.5737 34.4465C22.2026 34.2977 22.8586 34.3066 23.4832 34.4724C24.1079 34.6383 24.6818 34.9559 25.1541 35.3972C25.6263 35.8384 25.9822 36.3895 26.19 37.0014L19.7312 51.2225ZM40.5662 48.6038L37.5836 47.5269C37.2668 47.4118 36.9183 47.42 36.6073 47.5497C36.2962 47.6794 36.0452 47.9213 35.904 48.2273L34.5547 51.1425L29.0542 37.0694C29.2872 36.4641 29.6668 35.926 30.1589 35.5034C30.651 35.0809 31.2403 34.787 31.8739 34.6481C32.5075 34.5092 33.1656 34.5297 33.7894 34.7078C34.4131 34.8858 34.9829 35.2158 35.4477 35.6682L40.5662 48.6038ZM40.6471 22.9412C40.2534 24.266 40.2869 25.6812 40.7428 26.9859C39.3778 27.193 38.1102 27.8169 37.1135 28.7722C36.1168 29.7276 35.4398 30.9677 35.1752 32.3227C33.8894 31.8197 32.4795 31.7263 31.1385 32.0554C29.7975 32.3845 28.591 33.1199 27.6841 34.161C26.8274 33.0767 25.651 32.2896 24.3218 31.9115C23.709 31.7317 23.0738 31.64 22.4351 31.6391C21.7004 31.6386 20.9709 31.7635 20.2781 32.0083C20.0712 30.643 19.4472 29.3752 18.4918 28.3783C17.5363 27.3814 16.296 26.7043 14.9408 26.4396C15.4437 25.1538 15.537 23.744 15.208 22.4032C14.8789 21.0623 14.1435 19.8559 13.1025 18.949C14.181 18.0868 14.9667 16.9126 15.3522 15.5868C15.7378 14.261 15.7043 12.8485 15.2564 11.5425C16.6215 11.3355 17.8892 10.7115 18.8859 9.75608C19.8826 8.80063 20.5595 7.56041 20.824 6.20529C22.1086 6.71677 23.5217 6.81022 24.8624 6.47236C26.2057 6.15054 27.4137 5.41409 28.3151 4.36741C29.1716 5.452 30.348 6.23927 31.6772 6.61749C33.0019 7.01026 34.4166 6.97641 35.7209 6.52073C35.9203 7.88824 36.5456 9.15815 37.5078 10.1501C38.4582 11.1534 39.7005 11.8318 41.0583 12.0889C40.5554 13.3747 40.4621 14.7844 40.7912 16.1253C41.1202 17.4662 41.8556 18.6726 42.8966 19.5795C41.8122 20.4359 41.0251 21.6121 40.6471 22.9412H40.6471Z" fill="#171717"></path>
  <path d="M35.2839 13.127L24.6188 25.7393L20.1954 20.6424C20.0795 20.5088 19.9385 20.3994 19.7803 20.3203C19.6222 20.2413 19.45 20.1942 19.2736 20.1817C18.9174 20.1564 18.5658 20.2737 18.2961 20.5077C18.0264 20.7418 17.8606 21.0733 17.8354 21.4295C17.8102 21.7857 17.9274 22.1374 18.1615 22.4071L23.6155 28.6909C23.742 28.8364 23.8983 28.953 24.0737 29.0329C24.2491 29.1128 24.4397 29.1542 24.6325 29.1542H24.6409C24.8351 29.1532 25.0268 29.1101 25.2027 29.0279C25.3787 28.9456 25.5347 28.8262 25.66 28.6778L37.3389 14.8655C37.453 14.7305 37.5395 14.5744 37.5933 14.4061C37.6471 14.2377 37.6673 14.0604 37.6526 13.8843C37.6379 13.7082 37.5886 13.5367 37.5077 13.3796C37.4267 13.2225 37.3156 13.0829 37.1806 12.9687C37.0457 12.8546 36.8896 12.7681 36.7212 12.7143C36.5529 12.6605 36.3756 12.6404 36.1995 12.6551C36.0234 12.6697 35.8518 12.719 35.6948 12.8C35.5377 12.881 35.3981 12.9921 35.2839 13.127V13.127Z" fill="#171717"></path>
</svg>
