<?xml version="1.0" encoding="UTF-8"?>
<svg xmlns="http://www.w3.org/2000/svg" width="56" height="56" viewBox="0 0 56 56" fill="none">
  <path d="M53.8097 47.1546C53.8097 52.0392 42.2546 55.9989 28.0006 55.9989C13.7466 55.9989 2.19141 52.0392 2.19141 47.1546C2.19141 43.0602 10.3108 39.6155 21.3331 38.6083C23.46 38.414 27.9478 48.1989 28.4985 48.2279C29.6248 48.2872 32.5411 38.414 34.668 38.6083C45.6903 39.6155 53.8097 43.0602 53.8097 47.1546Z" fill="#FFCB05"></path>
  <path d="M37.7565 2.89798C34.8072 1.1164 31.4415 0.141343 27.9966 0.0705558C24.5518 -0.000231098 21.1488 0.835736 18.1289 2.49466C12.7022 5.58819 9.79853 11.0212 9.95314 17.8214C10.087 21.2509 11.1367 24.5821 12.993 27.469L27.0451 48.9638C27.1829 49.1739 27.3765 49.3414 27.6043 49.4475C27.8321 49.5536 28.0849 49.594 28.3344 49.5643C28.3882 49.5706 28.4423 49.5738 28.4964 49.5738C28.7284 49.5741 28.9564 49.5144 29.1585 49.4005C29.3606 49.2866 29.5297 49.1224 29.6496 48.9238L43.3104 26.3053C44.6196 24.1583 45.3921 21.7274 45.5626 19.2185C46.0022 12.1039 43.2294 6.30754 37.7565 2.89798ZM42.8755 19.0524C42.732 21.1278 42.0908 23.1381 41.0062 24.9134L28.2961 45.957L15.2683 26.0298C13.6711 23.5461 12.765 20.6814 12.6433 17.7309C12.5135 11.995 14.9349 7.41444 19.4624 4.83361C21.9404 3.44939 24.7347 2.73088 27.573 2.74812C30.6622 2.73076 33.6953 3.57379 36.3325 5.1828C40.9273 8.04545 43.251 12.971 42.8755 19.0524Z" fill="#171717"></path>
  <path d="M27.9996 9.75195C26.4147 9.752 24.8654 10.222 23.5476 11.1026C22.2298 11.9832 21.2027 13.2348 20.5962 14.6991C19.9897 16.1634 19.8311 17.7747 20.1404 19.3291C20.4496 20.8836 21.2129 22.3115 22.3336 23.4322C23.4544 24.5528 24.8823 25.316 26.4368 25.6252C27.9913 25.9343 29.6025 25.7756 31.0668 25.169C32.5311 24.5624 33.7826 23.5353 34.6631 22.2174C35.5436 20.8995 36.0135 19.3502 36.0135 17.7653C36.011 15.6407 35.1659 13.6038 33.6635 12.1016C32.1611 10.5993 30.1242 9.7543 27.9996 9.75195ZM27.9996 23.0868C26.9472 23.0867 25.9184 22.7746 25.0434 22.1899C24.1684 21.6051 23.4864 20.7741 23.0836 19.8018C22.6809 18.8294 22.5756 17.7595 22.7809 16.7273C22.9862 15.6951 23.493 14.747 24.2372 14.0028C24.9814 13.2586 25.9295 12.7518 26.9617 12.5465C27.9939 12.3412 29.0638 12.4465 30.0361 12.8493C31.0085 13.252 31.8395 13.934 32.4243 14.809C33.009 15.6841 33.3211 16.7128 33.3212 17.7653C33.3195 19.1761 32.7583 20.5287 31.7607 21.5263C30.7631 22.524 29.4105 23.0851 27.9996 23.0868V23.0868Z" fill="#171717"></path>
</svg>
