<?xml version="1.0" encoding="UTF-8"?>
<svg xmlns="http://www.w3.org/2000/svg" width="56" height="56" viewBox="0 0 56 56" fill="none">
  <path d="M36.5253 37.531C46.4987 37.531 54.5838 29.446 54.5838 19.4726C54.5838 9.49913 46.4987 1.41406 36.5253 1.41406C26.5519 1.41406 18.4668 9.49913 18.4668 19.4726C18.4668 29.446 26.5519 37.531 36.5253 37.531Z" fill="#FFCB05"></path>
  <path d="M36.5272 9.29297L28.6797 15.7297L28.9015 27.8731H44.8185L44.3112 15.0642L36.5272 9.29297Z" fill="white"></path>
  <path d="M36.5253 0.0664256C32.8084 0.0611764 29.1685 1.12502 26.0395 3.13111C22.9105 5.1372 20.4245 8.00088 18.8779 11.3807C17.3313 14.7605 16.7893 18.5138 17.3167 22.193C17.8441 25.8723 19.4185 29.3222 21.8522 32.1315L19.921 34.0624C19.3091 33.7575 18.617 33.6521 17.9421 33.761C17.2672 33.8698 16.6433 34.1876 16.1584 34.6694L1.05304 49.7758C0.748429 50.0797 0.506734 50.4407 0.341791 50.8381C0.176849 51.2355 0.091897 51.6616 0.091797 52.0919C0.0916969 52.5222 0.176451 52.9483 0.341209 53.3458C0.505966 53.7433 0.747493 54.1044 1.05197 54.4084L1.58727 54.9443C2.20203 55.5578 3.03508 55.9024 3.9036 55.9024C4.77212 55.9024 5.60517 55.5578 6.21993 54.9443L21.3274 39.8374C21.8284 39.3326 22.1513 38.6784 22.2472 37.9736C22.343 37.2689 22.2066 36.5522 21.8585 35.932L23.7505 34.0402C26.1083 36.1079 28.9323 37.5729 31.9806 38.3097C35.0288 39.0464 38.2102 39.033 41.2521 38.2705C44.294 37.508 47.1056 36.0192 49.4458 33.9317C51.7861 31.8443 53.5852 29.2204 54.689 26.285C55.7927 23.3497 56.1681 20.1905 55.7831 17.0782C55.398 13.966 54.2639 10.9935 52.4781 8.41568C50.6922 5.83786 48.3079 3.73158 45.5294 2.27741C42.7509 0.823238 39.6613 0.0645639 36.5253 0.0664256V0.0664256ZM19.4596 37.9706L4.35221 53.0775C4.23299 53.196 4.07174 53.2625 3.90367 53.2625C3.7356 53.2625 3.57435 53.196 3.45513 53.0775L2.91877 52.5407C2.85968 52.4818 2.81282 52.4118 2.78087 52.3347C2.74893 52.2577 2.73253 52.175 2.73263 52.0916C2.73273 52.0082 2.74933 51.9256 2.78145 51.8486C2.81358 51.7717 2.86062 51.7018 2.91985 51.643L18.0261 36.5361C18.1454 36.4173 18.3069 36.3505 18.4752 36.3505C18.6436 36.3505 18.8051 36.4173 18.9243 36.5361L19.4596 37.072C19.5186 37.131 19.5654 37.201 19.5974 37.2781C19.6293 37.3552 19.6457 37.4379 19.6457 37.5213C19.6457 37.6048 19.6293 37.6874 19.5974 37.7645C19.5654 37.8416 19.5186 37.9116 19.4596 37.9706V37.9706ZM36.5253 36.1833C32.5308 36.1836 28.6697 34.7457 25.6484 32.1328C25.8908 31.8806 26.0248 31.5435 26.0218 31.1937C26.0188 30.8439 25.8791 30.5092 25.6324 30.2612C25.3857 30.0132 25.0518 29.8715 24.702 29.8667C24.3522 29.8618 24.0144 29.994 23.7609 30.235C21.313 27.3254 19.9314 23.6676 19.8445 19.8662C19.7577 16.0649 20.9707 12.3477 23.2831 9.32937C25.5954 6.31099 28.8687 4.17216 32.5616 3.26652C36.2545 2.36089 40.1459 2.74267 43.5923 4.34876C47.0388 5.95485 49.8339 8.68906 51.5156 12.0993C53.1973 15.5095 53.6647 19.3916 52.8407 23.1035C52.0167 26.8155 49.9505 30.1351 46.9838 32.5134C44.0171 34.8918 40.3276 36.1864 36.5253 36.1833V36.1833Z" fill="#171717"></path>
  <path d="M49.6343 16.8991L37.4727 7.29351C37.2368 7.1072 36.9453 7.00525 36.6447 7.00392C36.3441 7.00258 36.0517 7.10194 35.8142 7.28614L23.4296 16.8917C23.2899 17 23.1729 17.1347 23.0853 17.2882C22.9976 17.4417 22.9411 17.6109 22.9189 17.7863C22.8967 17.9616 22.9092 18.1396 22.9558 18.3101C23.0023 18.4806 23.0821 18.6403 23.1903 18.78C23.2986 18.9197 23.4333 19.0367 23.5868 19.1243C23.7403 19.2119 23.9096 19.2685 24.0849 19.2907C24.2603 19.3129 24.4383 19.3004 24.6088 19.2538C24.7793 19.2072 24.9389 19.1275 25.0786 19.0192L26.9916 17.5356V28.5717C26.9916 28.7485 27.0264 28.9235 27.0941 29.0868C27.1617 29.2502 27.2609 29.3986 27.3859 29.5236C27.5109 29.6486 27.6593 29.7477 27.8226 29.8154C27.986 29.883 28.161 29.9178 28.3378 29.9178H45.0206C45.1974 29.9178 45.3724 29.883 45.5358 29.8154C45.6991 29.7477 45.8475 29.6486 45.9725 29.5236C46.0975 29.3986 46.1967 29.2502 46.2643 29.0868C46.3319 28.9235 46.3668 28.7485 46.3667 28.5717V17.7485L47.9663 19.0119C48.2465 19.2331 48.6031 19.3339 48.9576 19.2922C49.3121 19.2505 49.6355 19.0696 49.8567 18.7895C50.0779 18.5093 50.1787 18.1527 50.137 17.7982C50.0953 17.4437 49.9145 17.1202 49.6343 16.8991H49.6343ZM37.8008 27.2255H35.2536V20.4096H37.8008V27.2255ZM43.6744 27.2255H40.4931V19.0634C40.4931 18.8866 40.4583 18.7116 40.3907 18.5483C40.323 18.3849 40.2239 18.2365 40.0988 18.1115C39.9738 17.9865 39.8254 17.8874 39.6621 17.8197C39.4988 17.7521 39.3237 17.7173 39.1469 17.7173H33.9075C33.7307 17.7173 33.5556 17.7521 33.3923 17.8197C33.229 17.8874 33.0806 17.9865 32.9556 18.1115C32.8305 18.2365 32.7314 18.3849 32.6637 18.5483C32.5961 18.7116 32.5613 18.8866 32.5613 19.0634V27.2255H29.6839V15.4475L36.6313 10.0594L43.6744 15.6221L43.6744 27.2255Z" fill="#171717"></path>
</svg>
