<?xml version="1.0" encoding="UTF-8"?>
<svg xmlns="http://www.w3.org/2000/svg" width="57" height="57" viewBox="0 0 57 57" fill="none">
  <path d="M14.9648 8.82812L18.9648 6.82812L21.9648 7.32812L25.9648 9.82812L26.9648 14.8281L28.9648 16.8281L30.9648 19.3281L30.4648 22.8281C31.2982 23.8281 33.0648 25.8281 33.4648 25.8281C33.8648 25.8281 33.9648 29.1615 33.9648 30.8281L32.4648 34.3281L29.4648 36.8281L21.9648 38.8281L17.9648 39.3281L9.46484 35.3281L6.46484 30.8281V28.3281L7.96484 25.3281L9.46484 22.8281L8.96484 20.3281L9.96484 16.8281L11.9648 14.8281L12.9648 12.3281L14.9648 8.82812Z" fill="#FFCB05"></path>
  <path d="M34.7382 30.048C34.7382 29.293 35.351 28.6602 36.1059 28.6602H40.3791C41.1341 28.6602 41.7464 29.2935 41.7464 30.048L42.5215 36.9266C42.5215 37.682 41.9087 38.2895 41.1537 38.2895H40.7267L39.6744 47.1333C39.6744 47.591 39.302 47.9204 38.8419 47.9204H37.645C37.1859 47.9204 36.812 47.591 36.812 47.1333L35.7583 38.2895H35.3322C34.5768 38.2895 33.965 37.6815 33.965 36.9266L34.7382 30.048Z" fill="black"></path>
  <path d="M35.9488 25.6203C35.9488 26.8866 36.9752 27.913 38.241 27.913C39.5073 27.913 40.5332 26.8866 40.5332 25.6203C40.5332 24.3545 39.5073 23.3281 38.241 23.3281C36.9752 23.3281 35.9488 24.3545 35.9488 25.6203Z" fill="black"></path>
  <path d="M27.836 31.5273H31.573C32.2341 31.5273 32.7713 32.0841 32.7713 32.7434L33.4473 38.763C33.4473 39.4232 32.9125 39.9551 32.2523 39.9551H31.8799L30.9597 47.6935C30.9597 48.0952 30.6332 48.3805 30.2301 48.3805H29.1826C28.781 48.3805 28.453 48.0952 28.453 47.6935L27.5319 39.9551H27.1595C26.5007 39.9551 25.9645 39.4232 25.9645 38.763L26.6419 32.7434C26.6405 32.0841 27.1757 31.5273 27.8359 31.5273H27.836Z" fill="black"></path>
  <path d="M27.6982 28.8726C27.6982 29.9804 28.5958 30.878 29.7036 30.878C30.8109 30.878 31.709 29.9804 31.709 28.8726C31.709 27.7653 30.8109 26.8672 29.7036 26.8672C28.5958 26.8672 27.6982 27.7653 27.6982 28.8726Z" fill="black"></path>
  <path d="M44.3603 35.8047H47.1485C47.6418 35.8047 48.0425 36.2201 48.0425 36.7119L48.5469 41.2032C48.5469 41.6957 48.1479 42.0926 47.6553 42.0926H47.3774L46.6909 47.8661C46.6909 48.1658 46.4473 48.3787 46.1466 48.3787H45.3651C45.0654 48.3787 44.8207 48.1658 44.8207 47.8661L44.1335 42.0926H43.8556C43.3641 42.0926 42.9641 41.6957 42.9641 41.2032L43.4695 36.7119C43.4684 36.2201 43.8677 35.8047 44.3603 35.8047H44.3603Z" fill="black"></path>
  <path d="M44.2576 33.8243C44.2576 34.6509 44.9273 35.3206 45.7538 35.3206C46.58 35.3206 47.25 34.6508 47.25 33.8243C47.25 32.9982 46.5799 32.3281 45.7538 32.3281C44.9272 32.3281 44.2576 32.9982 44.2576 33.8243Z" fill="black"></path>
  <path d="M26.7959 15.2609L26.729 15.5018C28.8597 16.0936 30.3464 18.0381 30.3464 20.2274C30.3464 20.9305 30.1869 21.6299 29.8683 22.3091L29.8682 22.3094C29.7227 22.6206 29.8259 22.9935 30.1134 23.1845C32.6165 24.8505 33.956 27.0209 33.956 29.2831C33.956 31.6482 32.4913 33.8255 30.0592 35.4233C27.6295 37.0196 24.2603 38.0164 20.5327 38.0164C16.8046 38.0164 13.4352 37.0197 11.0054 35.4233C8.57329 33.8255 7.10863 31.6482 7.10863 29.2831C7.10863 27.3469 8.08022 25.4921 9.96647 23.9235L9.96667 23.9234C10.2419 23.694 10.2997 23.2928 10.0969 22.9956C9.53978 22.1768 9.24499 21.2203 9.24499 20.2277C9.24499 18.0385 10.7306 16.0941 12.8609 15.5023C13.1934 15.4107 13.4085 15.0893 13.3665 14.7472L13.3662 14.7451L13.3364 14.5182L13.3361 14.516L13.3352 14.51C13.3088 14.3217 13.2853 14.154 13.2853 13.9819C13.2853 10.3967 16.1995 7.47855 19.7832 7.47202H19.7955C23.3847 7.47202 26.3054 10.3927 26.3051 13.9815C26.3051 14.1531 26.2818 14.3198 26.2555 14.5078L26.2543 14.5158L26.2541 14.5178L26.2242 14.7447L26.224 14.7468C26.182 15.0888 26.3969 15.4108 26.7299 15.502L26.7959 15.2609ZM26.7959 15.2609C29.0335 15.8824 30.5964 17.9244 30.5964 20.2274C30.5964 20.9693 30.4279 21.7048 30.0947 22.4153C30.0013 22.615 30.0678 22.8542 30.2519 22.9764L26.7959 15.2609ZM10.096 36.4706C12.7802 38.2905 16.4724 39.4097 20.5323 39.4098H20.5326C24.5922 39.4097 28.2841 38.2905 30.9682 36.4706C33.6508 34.6517 35.3492 32.1139 35.3492 29.2828C35.3492 26.6564 33.9185 24.2168 31.3586 22.3527C31.6114 21.6607 31.7399 20.9474 31.7399 20.227C31.7399 17.6138 30.0967 15.2779 27.6788 14.3492C27.6904 14.2308 27.6986 14.1081 27.6986 13.9816C27.6986 9.62331 24.1534 6.07812 19.7951 6.07812C15.4368 6.07812 11.8919 9.62332 11.8916 13.9816V13.9816C11.8916 14.1079 11.8998 14.2307 11.9114 14.3492C9.49437 15.2776 7.85122 17.6136 7.85122 20.227C7.85122 21.291 8.11568 22.3252 8.62096 23.2498C6.75356 24.9747 5.71484 27.0956 5.71484 29.2828C5.71484 32.1138 7.41325 34.6516 10.096 36.4706Z" fill="black" stroke="black" stroke-width="0.5"></path>
  <path d="M20.5329 47.9766H20.7829V47.9303C21.0425 47.8318 21.2296 47.584 21.2296 47.2881L21.2293 19.1642C21.2293 18.7798 20.9129 18.4766 20.5326 18.4766C20.1528 18.4766 19.8359 18.7792 19.8359 19.1642V19.1642L19.8363 47.289C19.8363 47.6734 20.1526 47.9766 20.5329 47.9766Z" fill="black" stroke="black" stroke-width="0.5"></path>
  <path d="M15.8813 21.947L15.7027 21.772C15.4328 22.0475 15.439 22.4884 15.7135 22.7573L15.7135 22.7574L20.0456 26.9993L20.0457 26.9995C20.1807 27.1315 20.3577 27.1981 20.533 27.1981H20.783V27.152C20.8737 27.1173 20.9588 27.0628 21.0314 26.988C21.3007 26.7125 21.2943 26.272 21.0201 26.0033L21.02 26.0032L16.688 21.7613C16.688 21.7613 16.6879 21.7613 16.6879 21.7612C16.4147 21.4936 15.9711 21.495 15.7017 21.773L15.8813 21.947ZM15.8813 21.947C16.0531 21.7697 16.3377 21.7681 16.513 21.9399L20.5318 26.9481L20.5314 26.9481H20.283V26.8716C20.261 26.8568 20.24 26.8398 20.2205 26.8207L15.8884 22.5787C15.7121 22.406 15.7085 22.1233 15.8813 21.947Z" fill="black" stroke="black" stroke-width="0.5"></path>
  <path d="M20.0455 34.0918L20.0455 34.0918L20.0337 35.076C20.1063 35.1511 20.1916 35.2058 20.2826 35.2406V35.2867H20.5326C20.708 35.2867 20.885 35.2202 21.02 35.0879C21.02 35.0879 21.0201 35.0878 21.0201 35.0877L25.352 30.8466L25.3521 30.8466C25.6264 30.5778 25.6327 30.1373 25.3633 29.8618C25.0945 29.5849 24.6518 29.5843 24.3784 29.8497L24.3784 29.8497L24.3776 29.8505L20.0455 34.0918Z" fill="black" stroke="black" stroke-width="0.5"></path>
  <path d="M35.4923 36.5532L36.1423 30.0532C36.1551 29.9254 36.2627 29.8281 36.3911 29.8281H40.2386C40.367 29.8281 40.4746 29.9255 40.4873 30.0533L41.1366 36.5533C41.1513 36.7004 41.0357 36.8281 40.8878 36.8281H35.7411C35.5932 36.8281 35.4776 36.7004 35.4923 36.5532Z" fill="white"></path>
  <path d="M27.4923 38.0532L27.9423 33.5532C27.9551 33.4254 28.0627 33.3281 28.1911 33.3281H31.2386C31.367 33.3281 31.4746 33.4254 31.4874 33.5532L31.9374 38.0532C31.9521 38.2004 31.8365 38.3281 31.6886 38.3281H27.7411C27.5932 38.3281 27.4776 38.2004 27.4923 38.0532Z" fill="white"></path>
  <path d="M43.9993 40.8477L44.4659 37.0477C44.4813 36.9223 44.5878 36.8281 44.7141 36.8281H46.8119C46.9404 36.8281 47.048 36.9256 47.0607 37.0534L47.4376 40.8534C47.4522 41.0006 47.3366 41.1281 47.1888 41.1281H44.2474C44.0973 41.1281 43.981 40.9967 43.9993 40.8477Z" fill="white"></path>
</svg>
