<?xml version="1.0" encoding="UTF-8"?>
<svg xmlns="http://www.w3.org/2000/svg" width="56" height="56" viewBox="0 0 56 56" fill="none">
  <path d="M28 53.9276V1.9858L29.949 1.47656C35.6336 3.5135 47.1979 7.68919 47.9776 8.09659C48.7571 8.50397 48.952 22.1854 48.952 28.9751C47.9776 33.049 45.931 41.2986 45.5412 41.7059L43.1049 44.2521L36.7705 50.872L28 53.9276Z" fill="#FFCB05"></path>
  <path d="M27.9985 53.527V3.35313L26.1044 2.86133C20.5798 4.82887 9.34142 8.86246 8.58379 9.25598C7.82615 9.6495 7.63672 22.8653 7.63672 29.4239C8.58379 33.3591 10.5726 41.3278 10.9514 41.7213L13.3191 44.1809L19.475 50.5755L27.9985 53.527Z" fill="white"></path>
  <path d="M27.9999 16.8359L20.1523 23.2727L20.3742 35.4172H36.2911L35.7839 22.6072L27.9999 16.8359Z" fill="white"></path>
  <path d="M49.49 7.90448L28.4878 0.163045C28.1885 0.066629 27.8661 0.0681039 27.5676 0.167255L6.52031 7.90027C6.24987 7.99628 6.01571 8.1735 5.84985 8.40769C5.684 8.64188 5.59456 8.9216 5.59378 9.20857V26.6697C5.58627 31.9465 7.01636 37.1256 9.73046 41.6509C12.4446 46.1762 16.3401 49.8767 20.9988 52.3549L27.393 55.7298C27.5916 55.8324 27.8094 55.8926 28.0325 55.9064C28.2574 55.8921 28.4769 55.8312 28.6772 55.7277L35.0672 52.3539C39.7174 49.8712 43.6028 46.1678 46.3055 41.6419C49.0081 37.116 50.4258 31.9389 50.406 26.6676V9.20857C50.4058 8.92343 50.3177 8.64527 50.1538 8.41193C49.9899 8.17859 49.7581 8.00141 49.49 7.90448V7.90448ZM28.0346 52.9291L22.2882 49.8541C18.0793 47.6247 14.5616 44.2849 12.117 40.1973C9.67239 36.1096 8.39439 31.4304 8.42173 26.6676V10.2171L28.0325 2.95947L47.6433 10.2171V26.7338C47.6706 31.4965 46.3927 36.1756 43.9483 40.2632C41.504 44.3508 37.9865 47.6907 33.7779 49.9203L28.0346 52.9291Z" fill="#171717"></path>
  <path d="M14.9018 24.4389C14.7622 24.5472 14.6453 24.6819 14.5577 24.8354C14.4701 24.9889 14.4137 25.1581 14.3915 25.3334C14.3693 25.5087 14.3819 25.6866 14.4285 25.857C14.4751 26.0275 14.5548 26.1871 14.6631 26.3267C14.7714 26.4663 14.9061 26.5833 15.0596 26.6708C15.213 26.7584 15.3822 26.8149 15.5575 26.837C15.7328 26.8592 15.9108 26.8466 16.0812 26.8C16.2517 26.7534 16.4112 26.6737 16.5509 26.5654L18.4639 25.0818V36.1189C18.4639 36.2957 18.4987 36.4708 18.5663 36.6341C18.634 36.7974 18.7331 36.9458 18.8581 37.0708C18.9831 37.1958 19.1315 37.295 19.2949 37.3626C19.4582 37.4303 19.6333 37.4651 19.81 37.4651H36.4929C36.6697 37.4651 36.8447 37.4303 37.008 37.3626C37.1714 37.295 37.3198 37.1958 37.4448 37.0708C37.5698 36.9458 37.6689 36.7974 37.7366 36.6341C37.8042 36.4708 37.839 36.2957 37.839 36.1189V25.2948L39.4386 26.5581C39.7188 26.7782 40.0748 26.8782 40.4285 26.8362C40.7823 26.7942 41.105 26.6136 41.3258 26.3341C41.5466 26.0545 41.6476 25.6988 41.6065 25.3449C41.5654 24.991 41.3856 24.6679 41.1066 24.4463L28.9449 14.8403C28.709 14.6539 28.4174 14.5519 28.1168 14.5508C27.8161 14.5496 27.5238 14.6493 27.2865 14.8339L14.9018 24.4389ZM29.2731 34.7728H26.7259V27.9568H29.2731V34.7728ZM35.1467 23.1685V34.7728H31.9654V26.6107C31.9654 26.4339 31.9306 26.2588 31.8629 26.0955C31.7953 25.9322 31.6961 25.7838 31.5711 25.6588C31.4461 25.5338 31.2977 25.4346 31.1344 25.367C30.9711 25.2993 30.796 25.2645 30.6192 25.2645H25.3797C25.203 25.2645 25.0279 25.2993 24.8646 25.367C24.7012 25.4346 24.5528 25.5338 24.4278 25.6588C24.3028 25.7838 24.2037 25.9322 24.136 26.0955C24.0684 26.2588 24.0336 26.4339 24.0336 26.6107V34.7728H21.1562V22.994L28.1036 17.6061L35.1467 23.1685Z" fill="#171717"></path>
</svg>
